%TF.GenerationSoftware,KiCad,Pcbnew,7.0.5-0*%
%TF.CreationDate,2024-11-15T11:06:40-08:00*%
%TF.ProjectId,arm,61726d2e-6b69-4636-9164-5f7063625858,rev?*%
%TF.SameCoordinates,Original*%
%TF.FileFunction,Legend,Top*%
%TF.FilePolarity,Positive*%
%FSLAX46Y46*%
G04 Gerber Fmt 4.6, Leading zero omitted, Abs format (unit mm)*
G04 Created by KiCad (PCBNEW 7.0.5-0) date 2024-11-15 11:06:40*
%MOMM*%
%LPD*%
G01*
G04 APERTURE LIST*
%ADD10C,0.150000*%
%ADD11C,0.120000*%
G04 APERTURE END LIST*
D10*
X396554819Y-258047618D02*
X396554819Y-258619046D01*
X396554819Y-258333332D02*
X395554819Y-258333332D01*
X395554819Y-258333332D02*
X395697676Y-258428570D01*
X395697676Y-258428570D02*
X395792914Y-258523808D01*
X395792914Y-258523808D02*
X395840533Y-258619046D01*
X395983390Y-257476189D02*
X395935771Y-257571427D01*
X395935771Y-257571427D02*
X395888152Y-257619046D01*
X395888152Y-257619046D02*
X395792914Y-257666665D01*
X395792914Y-257666665D02*
X395745295Y-257666665D01*
X395745295Y-257666665D02*
X395650057Y-257619046D01*
X395650057Y-257619046D02*
X395602438Y-257571427D01*
X395602438Y-257571427D02*
X395554819Y-257476189D01*
X395554819Y-257476189D02*
X395554819Y-257285713D01*
X395554819Y-257285713D02*
X395602438Y-257190475D01*
X395602438Y-257190475D02*
X395650057Y-257142856D01*
X395650057Y-257142856D02*
X395745295Y-257095237D01*
X395745295Y-257095237D02*
X395792914Y-257095237D01*
X395792914Y-257095237D02*
X395888152Y-257142856D01*
X395888152Y-257142856D02*
X395935771Y-257190475D01*
X395935771Y-257190475D02*
X395983390Y-257285713D01*
X395983390Y-257285713D02*
X395983390Y-257476189D01*
X395983390Y-257476189D02*
X396031009Y-257571427D01*
X396031009Y-257571427D02*
X396078628Y-257619046D01*
X396078628Y-257619046D02*
X396173866Y-257666665D01*
X396173866Y-257666665D02*
X396364342Y-257666665D01*
X396364342Y-257666665D02*
X396459580Y-257619046D01*
X396459580Y-257619046D02*
X396507200Y-257571427D01*
X396507200Y-257571427D02*
X396554819Y-257476189D01*
X396554819Y-257476189D02*
X396554819Y-257285713D01*
X396554819Y-257285713D02*
X396507200Y-257190475D01*
X396507200Y-257190475D02*
X396459580Y-257142856D01*
X396459580Y-257142856D02*
X396364342Y-257095237D01*
X396364342Y-257095237D02*
X396173866Y-257095237D01*
X396173866Y-257095237D02*
X396078628Y-257142856D01*
X396078628Y-257142856D02*
X396031009Y-257190475D01*
X396031009Y-257190475D02*
X395983390Y-257285713D01*
X396459580Y-256666665D02*
X396507200Y-256619046D01*
X396507200Y-256619046D02*
X396554819Y-256666665D01*
X396554819Y-256666665D02*
X396507200Y-256714284D01*
X396507200Y-256714284D02*
X396459580Y-256666665D01*
X396459580Y-256666665D02*
X396554819Y-256666665D01*
X395554819Y-255714285D02*
X395554819Y-256190475D01*
X395554819Y-256190475D02*
X396031009Y-256238094D01*
X396031009Y-256238094D02*
X395983390Y-256190475D01*
X395983390Y-256190475D02*
X395935771Y-256095237D01*
X395935771Y-256095237D02*
X395935771Y-255857142D01*
X395935771Y-255857142D02*
X395983390Y-255761904D01*
X395983390Y-255761904D02*
X396031009Y-255714285D01*
X396031009Y-255714285D02*
X396126247Y-255666666D01*
X396126247Y-255666666D02*
X396364342Y-255666666D01*
X396364342Y-255666666D02*
X396459580Y-255714285D01*
X396459580Y-255714285D02*
X396507200Y-255761904D01*
X396507200Y-255761904D02*
X396554819Y-255857142D01*
X396554819Y-255857142D02*
X396554819Y-256095237D01*
X396554819Y-256095237D02*
X396507200Y-256190475D01*
X396507200Y-256190475D02*
X396459580Y-256238094D01*
X395554819Y-255047618D02*
X395554819Y-254952380D01*
X395554819Y-254952380D02*
X395602438Y-254857142D01*
X395602438Y-254857142D02*
X395650057Y-254809523D01*
X395650057Y-254809523D02*
X395745295Y-254761904D01*
X395745295Y-254761904D02*
X395935771Y-254714285D01*
X395935771Y-254714285D02*
X396173866Y-254714285D01*
X396173866Y-254714285D02*
X396364342Y-254761904D01*
X396364342Y-254761904D02*
X396459580Y-254809523D01*
X396459580Y-254809523D02*
X396507200Y-254857142D01*
X396507200Y-254857142D02*
X396554819Y-254952380D01*
X396554819Y-254952380D02*
X396554819Y-255047618D01*
X396554819Y-255047618D02*
X396507200Y-255142856D01*
X396507200Y-255142856D02*
X396459580Y-255190475D01*
X396459580Y-255190475D02*
X396364342Y-255238094D01*
X396364342Y-255238094D02*
X396173866Y-255285713D01*
X396173866Y-255285713D02*
X395935771Y-255285713D01*
X395935771Y-255285713D02*
X395745295Y-255238094D01*
X395745295Y-255238094D02*
X395650057Y-255190475D01*
X395650057Y-255190475D02*
X395602438Y-255142856D01*
X395602438Y-255142856D02*
X395554819Y-255047618D01*
X395554819Y-254095237D02*
X395554819Y-253999999D01*
X395554819Y-253999999D02*
X395602438Y-253904761D01*
X395602438Y-253904761D02*
X395650057Y-253857142D01*
X395650057Y-253857142D02*
X395745295Y-253809523D01*
X395745295Y-253809523D02*
X395935771Y-253761904D01*
X395935771Y-253761904D02*
X396173866Y-253761904D01*
X396173866Y-253761904D02*
X396364342Y-253809523D01*
X396364342Y-253809523D02*
X396459580Y-253857142D01*
X396459580Y-253857142D02*
X396507200Y-253904761D01*
X396507200Y-253904761D02*
X396554819Y-253999999D01*
X396554819Y-253999999D02*
X396554819Y-254095237D01*
X396554819Y-254095237D02*
X396507200Y-254190475D01*
X396507200Y-254190475D02*
X396459580Y-254238094D01*
X396459580Y-254238094D02*
X396364342Y-254285713D01*
X396364342Y-254285713D02*
X396173866Y-254333332D01*
X396173866Y-254333332D02*
X395935771Y-254333332D01*
X395935771Y-254333332D02*
X395745295Y-254285713D01*
X395745295Y-254285713D02*
X395650057Y-254238094D01*
X395650057Y-254238094D02*
X395602438Y-254190475D01*
X395602438Y-254190475D02*
X395554819Y-254095237D01*
X395554819Y-253142856D02*
X395554819Y-253047618D01*
X395554819Y-253047618D02*
X395602438Y-252952380D01*
X395602438Y-252952380D02*
X395650057Y-252904761D01*
X395650057Y-252904761D02*
X395745295Y-252857142D01*
X395745295Y-252857142D02*
X395935771Y-252809523D01*
X395935771Y-252809523D02*
X396173866Y-252809523D01*
X396173866Y-252809523D02*
X396364342Y-252857142D01*
X396364342Y-252857142D02*
X396459580Y-252904761D01*
X396459580Y-252904761D02*
X396507200Y-252952380D01*
X396507200Y-252952380D02*
X396554819Y-253047618D01*
X396554819Y-253047618D02*
X396554819Y-253142856D01*
X396554819Y-253142856D02*
X396507200Y-253238094D01*
X396507200Y-253238094D02*
X396459580Y-253285713D01*
X396459580Y-253285713D02*
X396364342Y-253333332D01*
X396364342Y-253333332D02*
X396173866Y-253380951D01*
X396173866Y-253380951D02*
X395935771Y-253380951D01*
X395935771Y-253380951D02*
X395745295Y-253333332D01*
X395745295Y-253333332D02*
X395650057Y-253285713D01*
X395650057Y-253285713D02*
X395602438Y-253238094D01*
X395602438Y-253238094D02*
X395554819Y-253142856D01*
X396554819Y-251619046D02*
X395888152Y-251619046D01*
X395983390Y-251619046D02*
X395935771Y-251571427D01*
X395935771Y-251571427D02*
X395888152Y-251476189D01*
X395888152Y-251476189D02*
X395888152Y-251333332D01*
X395888152Y-251333332D02*
X395935771Y-251238094D01*
X395935771Y-251238094D02*
X396031009Y-251190475D01*
X396031009Y-251190475D02*
X396554819Y-251190475D01*
X396031009Y-251190475D02*
X395935771Y-251142856D01*
X395935771Y-251142856D02*
X395888152Y-251047618D01*
X395888152Y-251047618D02*
X395888152Y-250904761D01*
X395888152Y-250904761D02*
X395935771Y-250809522D01*
X395935771Y-250809522D02*
X396031009Y-250761903D01*
X396031009Y-250761903D02*
X396554819Y-250761903D01*
X396554819Y-250285713D02*
X395888152Y-250285713D01*
X395983390Y-250285713D02*
X395935771Y-250238094D01*
X395935771Y-250238094D02*
X395888152Y-250142856D01*
X395888152Y-250142856D02*
X395888152Y-249999999D01*
X395888152Y-249999999D02*
X395935771Y-249904761D01*
X395935771Y-249904761D02*
X396031009Y-249857142D01*
X396031009Y-249857142D02*
X396554819Y-249857142D01*
X396031009Y-249857142D02*
X395935771Y-249809523D01*
X395935771Y-249809523D02*
X395888152Y-249714285D01*
X395888152Y-249714285D02*
X395888152Y-249571428D01*
X395888152Y-249571428D02*
X395935771Y-249476189D01*
X395935771Y-249476189D02*
X396031009Y-249428570D01*
X396031009Y-249428570D02*
X396554819Y-249428570D01*
X447500000Y-244750000D02*
X396663580Y-244750000D01*
X447500000Y-263250000D02*
X396663580Y-263250000D01*
X397250000Y-244750000D02*
X397250000Y-263250000D01*
X397250000Y-244750000D02*
X397250000Y-263250000D01*
X397250000Y-244750000D02*
X397836421Y-245876504D01*
X397250000Y-244750000D02*
X396663579Y-245876504D01*
X397250000Y-263250000D02*
X396663579Y-262123496D01*
X397250000Y-263250000D02*
X397836421Y-262123496D01*
X453880953Y-270150057D02*
X453928572Y-270102438D01*
X453928572Y-270102438D02*
X454023810Y-270054819D01*
X454023810Y-270054819D02*
X454261905Y-270054819D01*
X454261905Y-270054819D02*
X454357143Y-270102438D01*
X454357143Y-270102438D02*
X454404762Y-270150057D01*
X454404762Y-270150057D02*
X454452381Y-270245295D01*
X454452381Y-270245295D02*
X454452381Y-270340533D01*
X454452381Y-270340533D02*
X454404762Y-270483390D01*
X454404762Y-270483390D02*
X453833334Y-271054819D01*
X453833334Y-271054819D02*
X454452381Y-271054819D01*
X455404762Y-271054819D02*
X454833334Y-271054819D01*
X455119048Y-271054819D02*
X455119048Y-270054819D01*
X455119048Y-270054819D02*
X455023810Y-270197676D01*
X455023810Y-270197676D02*
X454928572Y-270292914D01*
X454928572Y-270292914D02*
X454833334Y-270340533D01*
X455833334Y-270959580D02*
X455880953Y-271007200D01*
X455880953Y-271007200D02*
X455833334Y-271054819D01*
X455833334Y-271054819D02*
X455785715Y-271007200D01*
X455785715Y-271007200D02*
X455833334Y-270959580D01*
X455833334Y-270959580D02*
X455833334Y-271054819D01*
X456500000Y-270054819D02*
X456595238Y-270054819D01*
X456595238Y-270054819D02*
X456690476Y-270102438D01*
X456690476Y-270102438D02*
X456738095Y-270150057D01*
X456738095Y-270150057D02*
X456785714Y-270245295D01*
X456785714Y-270245295D02*
X456833333Y-270435771D01*
X456833333Y-270435771D02*
X456833333Y-270673866D01*
X456833333Y-270673866D02*
X456785714Y-270864342D01*
X456785714Y-270864342D02*
X456738095Y-270959580D01*
X456738095Y-270959580D02*
X456690476Y-271007200D01*
X456690476Y-271007200D02*
X456595238Y-271054819D01*
X456595238Y-271054819D02*
X456500000Y-271054819D01*
X456500000Y-271054819D02*
X456404762Y-271007200D01*
X456404762Y-271007200D02*
X456357143Y-270959580D01*
X456357143Y-270959580D02*
X456309524Y-270864342D01*
X456309524Y-270864342D02*
X456261905Y-270673866D01*
X456261905Y-270673866D02*
X456261905Y-270435771D01*
X456261905Y-270435771D02*
X456309524Y-270245295D01*
X456309524Y-270245295D02*
X456357143Y-270150057D01*
X456357143Y-270150057D02*
X456404762Y-270102438D01*
X456404762Y-270102438D02*
X456500000Y-270054819D01*
X457452381Y-270054819D02*
X457547619Y-270054819D01*
X457547619Y-270054819D02*
X457642857Y-270102438D01*
X457642857Y-270102438D02*
X457690476Y-270150057D01*
X457690476Y-270150057D02*
X457738095Y-270245295D01*
X457738095Y-270245295D02*
X457785714Y-270435771D01*
X457785714Y-270435771D02*
X457785714Y-270673866D01*
X457785714Y-270673866D02*
X457738095Y-270864342D01*
X457738095Y-270864342D02*
X457690476Y-270959580D01*
X457690476Y-270959580D02*
X457642857Y-271007200D01*
X457642857Y-271007200D02*
X457547619Y-271054819D01*
X457547619Y-271054819D02*
X457452381Y-271054819D01*
X457452381Y-271054819D02*
X457357143Y-271007200D01*
X457357143Y-271007200D02*
X457309524Y-270959580D01*
X457309524Y-270959580D02*
X457261905Y-270864342D01*
X457261905Y-270864342D02*
X457214286Y-270673866D01*
X457214286Y-270673866D02*
X457214286Y-270435771D01*
X457214286Y-270435771D02*
X457261905Y-270245295D01*
X457261905Y-270245295D02*
X457309524Y-270150057D01*
X457309524Y-270150057D02*
X457357143Y-270102438D01*
X457357143Y-270102438D02*
X457452381Y-270054819D01*
X458404762Y-270054819D02*
X458500000Y-270054819D01*
X458500000Y-270054819D02*
X458595238Y-270102438D01*
X458595238Y-270102438D02*
X458642857Y-270150057D01*
X458642857Y-270150057D02*
X458690476Y-270245295D01*
X458690476Y-270245295D02*
X458738095Y-270435771D01*
X458738095Y-270435771D02*
X458738095Y-270673866D01*
X458738095Y-270673866D02*
X458690476Y-270864342D01*
X458690476Y-270864342D02*
X458642857Y-270959580D01*
X458642857Y-270959580D02*
X458595238Y-271007200D01*
X458595238Y-271007200D02*
X458500000Y-271054819D01*
X458500000Y-271054819D02*
X458404762Y-271054819D01*
X458404762Y-271054819D02*
X458309524Y-271007200D01*
X458309524Y-271007200D02*
X458261905Y-270959580D01*
X458261905Y-270959580D02*
X458214286Y-270864342D01*
X458214286Y-270864342D02*
X458166667Y-270673866D01*
X458166667Y-270673866D02*
X458166667Y-270435771D01*
X458166667Y-270435771D02*
X458214286Y-270245295D01*
X458214286Y-270245295D02*
X458261905Y-270150057D01*
X458261905Y-270150057D02*
X458309524Y-270102438D01*
X458309524Y-270102438D02*
X458404762Y-270054819D01*
X459357143Y-270054819D02*
X459452381Y-270054819D01*
X459452381Y-270054819D02*
X459547619Y-270102438D01*
X459547619Y-270102438D02*
X459595238Y-270150057D01*
X459595238Y-270150057D02*
X459642857Y-270245295D01*
X459642857Y-270245295D02*
X459690476Y-270435771D01*
X459690476Y-270435771D02*
X459690476Y-270673866D01*
X459690476Y-270673866D02*
X459642857Y-270864342D01*
X459642857Y-270864342D02*
X459595238Y-270959580D01*
X459595238Y-270959580D02*
X459547619Y-271007200D01*
X459547619Y-271007200D02*
X459452381Y-271054819D01*
X459452381Y-271054819D02*
X459357143Y-271054819D01*
X459357143Y-271054819D02*
X459261905Y-271007200D01*
X459261905Y-271007200D02*
X459214286Y-270959580D01*
X459214286Y-270959580D02*
X459166667Y-270864342D01*
X459166667Y-270864342D02*
X459119048Y-270673866D01*
X459119048Y-270673866D02*
X459119048Y-270435771D01*
X459119048Y-270435771D02*
X459166667Y-270245295D01*
X459166667Y-270245295D02*
X459214286Y-270150057D01*
X459214286Y-270150057D02*
X459261905Y-270102438D01*
X459261905Y-270102438D02*
X459357143Y-270054819D01*
X460880953Y-271054819D02*
X460880953Y-270388152D01*
X460880953Y-270483390D02*
X460928572Y-270435771D01*
X460928572Y-270435771D02*
X461023810Y-270388152D01*
X461023810Y-270388152D02*
X461166667Y-270388152D01*
X461166667Y-270388152D02*
X461261905Y-270435771D01*
X461261905Y-270435771D02*
X461309524Y-270531009D01*
X461309524Y-270531009D02*
X461309524Y-271054819D01*
X461309524Y-270531009D02*
X461357143Y-270435771D01*
X461357143Y-270435771D02*
X461452381Y-270388152D01*
X461452381Y-270388152D02*
X461595238Y-270388152D01*
X461595238Y-270388152D02*
X461690477Y-270435771D01*
X461690477Y-270435771D02*
X461738096Y-270531009D01*
X461738096Y-270531009D02*
X461738096Y-271054819D01*
X462214286Y-271054819D02*
X462214286Y-270388152D01*
X462214286Y-270483390D02*
X462261905Y-270435771D01*
X462261905Y-270435771D02*
X462357143Y-270388152D01*
X462357143Y-270388152D02*
X462500000Y-270388152D01*
X462500000Y-270388152D02*
X462595238Y-270435771D01*
X462595238Y-270435771D02*
X462642857Y-270531009D01*
X462642857Y-270531009D02*
X462642857Y-271054819D01*
X462642857Y-270531009D02*
X462690476Y-270435771D01*
X462690476Y-270435771D02*
X462785714Y-270388152D01*
X462785714Y-270388152D02*
X462928571Y-270388152D01*
X462928571Y-270388152D02*
X463023810Y-270435771D01*
X463023810Y-270435771D02*
X463071429Y-270531009D01*
X463071429Y-270531009D02*
X463071429Y-271054819D01*
X448000000Y-263750000D02*
X448000000Y-272336420D01*
X469000000Y-263750000D02*
X469000000Y-272336420D01*
X448000000Y-271750000D02*
X469000000Y-271750000D01*
X448000000Y-271750000D02*
X469000000Y-271750000D01*
X448000000Y-271750000D02*
X449126504Y-271163579D01*
X448000000Y-271750000D02*
X449126504Y-272336421D01*
X469000000Y-271750000D02*
X467873496Y-272336421D01*
X469000000Y-271750000D02*
X467873496Y-271163579D01*
%TO.C,D34*%
X678985714Y-253854819D02*
X678985714Y-252854819D01*
X678985714Y-252854819D02*
X679223809Y-252854819D01*
X679223809Y-252854819D02*
X679366666Y-252902438D01*
X679366666Y-252902438D02*
X679461904Y-252997676D01*
X679461904Y-252997676D02*
X679509523Y-253092914D01*
X679509523Y-253092914D02*
X679557142Y-253283390D01*
X679557142Y-253283390D02*
X679557142Y-253426247D01*
X679557142Y-253426247D02*
X679509523Y-253616723D01*
X679509523Y-253616723D02*
X679461904Y-253711961D01*
X679461904Y-253711961D02*
X679366666Y-253807200D01*
X679366666Y-253807200D02*
X679223809Y-253854819D01*
X679223809Y-253854819D02*
X678985714Y-253854819D01*
X679890476Y-252854819D02*
X680509523Y-252854819D01*
X680509523Y-252854819D02*
X680176190Y-253235771D01*
X680176190Y-253235771D02*
X680319047Y-253235771D01*
X680319047Y-253235771D02*
X680414285Y-253283390D01*
X680414285Y-253283390D02*
X680461904Y-253331009D01*
X680461904Y-253331009D02*
X680509523Y-253426247D01*
X680509523Y-253426247D02*
X680509523Y-253664342D01*
X680509523Y-253664342D02*
X680461904Y-253759580D01*
X680461904Y-253759580D02*
X680414285Y-253807200D01*
X680414285Y-253807200D02*
X680319047Y-253854819D01*
X680319047Y-253854819D02*
X680033333Y-253854819D01*
X680033333Y-253854819D02*
X679938095Y-253807200D01*
X679938095Y-253807200D02*
X679890476Y-253759580D01*
X681366666Y-253188152D02*
X681366666Y-253854819D01*
X681128571Y-252807200D02*
X680890476Y-253521485D01*
X680890476Y-253521485D02*
X681509523Y-253521485D01*
%TO.C,D40*%
X720385714Y-253854819D02*
X720385714Y-252854819D01*
X720385714Y-252854819D02*
X720623809Y-252854819D01*
X720623809Y-252854819D02*
X720766666Y-252902438D01*
X720766666Y-252902438D02*
X720861904Y-252997676D01*
X720861904Y-252997676D02*
X720909523Y-253092914D01*
X720909523Y-253092914D02*
X720957142Y-253283390D01*
X720957142Y-253283390D02*
X720957142Y-253426247D01*
X720957142Y-253426247D02*
X720909523Y-253616723D01*
X720909523Y-253616723D02*
X720861904Y-253711961D01*
X720861904Y-253711961D02*
X720766666Y-253807200D01*
X720766666Y-253807200D02*
X720623809Y-253854819D01*
X720623809Y-253854819D02*
X720385714Y-253854819D01*
X721814285Y-253188152D02*
X721814285Y-253854819D01*
X721576190Y-252807200D02*
X721338095Y-253521485D01*
X721338095Y-253521485D02*
X721957142Y-253521485D01*
X722528571Y-252854819D02*
X722623809Y-252854819D01*
X722623809Y-252854819D02*
X722719047Y-252902438D01*
X722719047Y-252902438D02*
X722766666Y-252950057D01*
X722766666Y-252950057D02*
X722814285Y-253045295D01*
X722814285Y-253045295D02*
X722861904Y-253235771D01*
X722861904Y-253235771D02*
X722861904Y-253473866D01*
X722861904Y-253473866D02*
X722814285Y-253664342D01*
X722814285Y-253664342D02*
X722766666Y-253759580D01*
X722766666Y-253759580D02*
X722719047Y-253807200D01*
X722719047Y-253807200D02*
X722623809Y-253854819D01*
X722623809Y-253854819D02*
X722528571Y-253854819D01*
X722528571Y-253854819D02*
X722433333Y-253807200D01*
X722433333Y-253807200D02*
X722385714Y-253759580D01*
X722385714Y-253759580D02*
X722338095Y-253664342D01*
X722338095Y-253664342D02*
X722290476Y-253473866D01*
X722290476Y-253473866D02*
X722290476Y-253235771D01*
X722290476Y-253235771D02*
X722338095Y-253045295D01*
X722338095Y-253045295D02*
X722385714Y-252950057D01*
X722385714Y-252950057D02*
X722433333Y-252902438D01*
X722433333Y-252902438D02*
X722528571Y-252854819D01*
%TO.C,C34*%
X682349580Y-255162857D02*
X682397200Y-255210476D01*
X682397200Y-255210476D02*
X682444819Y-255353333D01*
X682444819Y-255353333D02*
X682444819Y-255448571D01*
X682444819Y-255448571D02*
X682397200Y-255591428D01*
X682397200Y-255591428D02*
X682301961Y-255686666D01*
X682301961Y-255686666D02*
X682206723Y-255734285D01*
X682206723Y-255734285D02*
X682016247Y-255781904D01*
X682016247Y-255781904D02*
X681873390Y-255781904D01*
X681873390Y-255781904D02*
X681682914Y-255734285D01*
X681682914Y-255734285D02*
X681587676Y-255686666D01*
X681587676Y-255686666D02*
X681492438Y-255591428D01*
X681492438Y-255591428D02*
X681444819Y-255448571D01*
X681444819Y-255448571D02*
X681444819Y-255353333D01*
X681444819Y-255353333D02*
X681492438Y-255210476D01*
X681492438Y-255210476D02*
X681540057Y-255162857D01*
X681444819Y-254829523D02*
X681444819Y-254210476D01*
X681444819Y-254210476D02*
X681825771Y-254543809D01*
X681825771Y-254543809D02*
X681825771Y-254400952D01*
X681825771Y-254400952D02*
X681873390Y-254305714D01*
X681873390Y-254305714D02*
X681921009Y-254258095D01*
X681921009Y-254258095D02*
X682016247Y-254210476D01*
X682016247Y-254210476D02*
X682254342Y-254210476D01*
X682254342Y-254210476D02*
X682349580Y-254258095D01*
X682349580Y-254258095D02*
X682397200Y-254305714D01*
X682397200Y-254305714D02*
X682444819Y-254400952D01*
X682444819Y-254400952D02*
X682444819Y-254686666D01*
X682444819Y-254686666D02*
X682397200Y-254781904D01*
X682397200Y-254781904D02*
X682349580Y-254829523D01*
X681778152Y-253353333D02*
X682444819Y-253353333D01*
X681397200Y-253591428D02*
X682111485Y-253829523D01*
X682111485Y-253829523D02*
X682111485Y-253210476D01*
%TO.C,D20*%
X582385714Y-253854819D02*
X582385714Y-252854819D01*
X582385714Y-252854819D02*
X582623809Y-252854819D01*
X582623809Y-252854819D02*
X582766666Y-252902438D01*
X582766666Y-252902438D02*
X582861904Y-252997676D01*
X582861904Y-252997676D02*
X582909523Y-253092914D01*
X582909523Y-253092914D02*
X582957142Y-253283390D01*
X582957142Y-253283390D02*
X582957142Y-253426247D01*
X582957142Y-253426247D02*
X582909523Y-253616723D01*
X582909523Y-253616723D02*
X582861904Y-253711961D01*
X582861904Y-253711961D02*
X582766666Y-253807200D01*
X582766666Y-253807200D02*
X582623809Y-253854819D01*
X582623809Y-253854819D02*
X582385714Y-253854819D01*
X583338095Y-252950057D02*
X583385714Y-252902438D01*
X583385714Y-252902438D02*
X583480952Y-252854819D01*
X583480952Y-252854819D02*
X583719047Y-252854819D01*
X583719047Y-252854819D02*
X583814285Y-252902438D01*
X583814285Y-252902438D02*
X583861904Y-252950057D01*
X583861904Y-252950057D02*
X583909523Y-253045295D01*
X583909523Y-253045295D02*
X583909523Y-253140533D01*
X583909523Y-253140533D02*
X583861904Y-253283390D01*
X583861904Y-253283390D02*
X583290476Y-253854819D01*
X583290476Y-253854819D02*
X583909523Y-253854819D01*
X584528571Y-252854819D02*
X584623809Y-252854819D01*
X584623809Y-252854819D02*
X584719047Y-252902438D01*
X584719047Y-252902438D02*
X584766666Y-252950057D01*
X584766666Y-252950057D02*
X584814285Y-253045295D01*
X584814285Y-253045295D02*
X584861904Y-253235771D01*
X584861904Y-253235771D02*
X584861904Y-253473866D01*
X584861904Y-253473866D02*
X584814285Y-253664342D01*
X584814285Y-253664342D02*
X584766666Y-253759580D01*
X584766666Y-253759580D02*
X584719047Y-253807200D01*
X584719047Y-253807200D02*
X584623809Y-253854819D01*
X584623809Y-253854819D02*
X584528571Y-253854819D01*
X584528571Y-253854819D02*
X584433333Y-253807200D01*
X584433333Y-253807200D02*
X584385714Y-253759580D01*
X584385714Y-253759580D02*
X584338095Y-253664342D01*
X584338095Y-253664342D02*
X584290476Y-253473866D01*
X584290476Y-253473866D02*
X584290476Y-253235771D01*
X584290476Y-253235771D02*
X584338095Y-253045295D01*
X584338095Y-253045295D02*
X584385714Y-252950057D01*
X584385714Y-252950057D02*
X584433333Y-252902438D01*
X584433333Y-252902438D02*
X584528571Y-252854819D01*
%TO.C,D4*%
X472461905Y-253854819D02*
X472461905Y-252854819D01*
X472461905Y-252854819D02*
X472700000Y-252854819D01*
X472700000Y-252854819D02*
X472842857Y-252902438D01*
X472842857Y-252902438D02*
X472938095Y-252997676D01*
X472938095Y-252997676D02*
X472985714Y-253092914D01*
X472985714Y-253092914D02*
X473033333Y-253283390D01*
X473033333Y-253283390D02*
X473033333Y-253426247D01*
X473033333Y-253426247D02*
X472985714Y-253616723D01*
X472985714Y-253616723D02*
X472938095Y-253711961D01*
X472938095Y-253711961D02*
X472842857Y-253807200D01*
X472842857Y-253807200D02*
X472700000Y-253854819D01*
X472700000Y-253854819D02*
X472461905Y-253854819D01*
X473890476Y-253188152D02*
X473890476Y-253854819D01*
X473652381Y-252807200D02*
X473414286Y-253521485D01*
X473414286Y-253521485D02*
X474033333Y-253521485D01*
%TO.C,D35*%
X685885714Y-253854819D02*
X685885714Y-252854819D01*
X685885714Y-252854819D02*
X686123809Y-252854819D01*
X686123809Y-252854819D02*
X686266666Y-252902438D01*
X686266666Y-252902438D02*
X686361904Y-252997676D01*
X686361904Y-252997676D02*
X686409523Y-253092914D01*
X686409523Y-253092914D02*
X686457142Y-253283390D01*
X686457142Y-253283390D02*
X686457142Y-253426247D01*
X686457142Y-253426247D02*
X686409523Y-253616723D01*
X686409523Y-253616723D02*
X686361904Y-253711961D01*
X686361904Y-253711961D02*
X686266666Y-253807200D01*
X686266666Y-253807200D02*
X686123809Y-253854819D01*
X686123809Y-253854819D02*
X685885714Y-253854819D01*
X686790476Y-252854819D02*
X687409523Y-252854819D01*
X687409523Y-252854819D02*
X687076190Y-253235771D01*
X687076190Y-253235771D02*
X687219047Y-253235771D01*
X687219047Y-253235771D02*
X687314285Y-253283390D01*
X687314285Y-253283390D02*
X687361904Y-253331009D01*
X687361904Y-253331009D02*
X687409523Y-253426247D01*
X687409523Y-253426247D02*
X687409523Y-253664342D01*
X687409523Y-253664342D02*
X687361904Y-253759580D01*
X687361904Y-253759580D02*
X687314285Y-253807200D01*
X687314285Y-253807200D02*
X687219047Y-253854819D01*
X687219047Y-253854819D02*
X686933333Y-253854819D01*
X686933333Y-253854819D02*
X686838095Y-253807200D01*
X686838095Y-253807200D02*
X686790476Y-253759580D01*
X688314285Y-252854819D02*
X687838095Y-252854819D01*
X687838095Y-252854819D02*
X687790476Y-253331009D01*
X687790476Y-253331009D02*
X687838095Y-253283390D01*
X687838095Y-253283390D02*
X687933333Y-253235771D01*
X687933333Y-253235771D02*
X688171428Y-253235771D01*
X688171428Y-253235771D02*
X688266666Y-253283390D01*
X688266666Y-253283390D02*
X688314285Y-253331009D01*
X688314285Y-253331009D02*
X688361904Y-253426247D01*
X688361904Y-253426247D02*
X688361904Y-253664342D01*
X688361904Y-253664342D02*
X688314285Y-253759580D01*
X688314285Y-253759580D02*
X688266666Y-253807200D01*
X688266666Y-253807200D02*
X688171428Y-253854819D01*
X688171428Y-253854819D02*
X687933333Y-253854819D01*
X687933333Y-253854819D02*
X687838095Y-253807200D01*
X687838095Y-253807200D02*
X687790476Y-253759580D01*
%TO.C,D28*%
X637585714Y-253854819D02*
X637585714Y-252854819D01*
X637585714Y-252854819D02*
X637823809Y-252854819D01*
X637823809Y-252854819D02*
X637966666Y-252902438D01*
X637966666Y-252902438D02*
X638061904Y-252997676D01*
X638061904Y-252997676D02*
X638109523Y-253092914D01*
X638109523Y-253092914D02*
X638157142Y-253283390D01*
X638157142Y-253283390D02*
X638157142Y-253426247D01*
X638157142Y-253426247D02*
X638109523Y-253616723D01*
X638109523Y-253616723D02*
X638061904Y-253711961D01*
X638061904Y-253711961D02*
X637966666Y-253807200D01*
X637966666Y-253807200D02*
X637823809Y-253854819D01*
X637823809Y-253854819D02*
X637585714Y-253854819D01*
X638538095Y-252950057D02*
X638585714Y-252902438D01*
X638585714Y-252902438D02*
X638680952Y-252854819D01*
X638680952Y-252854819D02*
X638919047Y-252854819D01*
X638919047Y-252854819D02*
X639014285Y-252902438D01*
X639014285Y-252902438D02*
X639061904Y-252950057D01*
X639061904Y-252950057D02*
X639109523Y-253045295D01*
X639109523Y-253045295D02*
X639109523Y-253140533D01*
X639109523Y-253140533D02*
X639061904Y-253283390D01*
X639061904Y-253283390D02*
X638490476Y-253854819D01*
X638490476Y-253854819D02*
X639109523Y-253854819D01*
X639680952Y-253283390D02*
X639585714Y-253235771D01*
X639585714Y-253235771D02*
X639538095Y-253188152D01*
X639538095Y-253188152D02*
X639490476Y-253092914D01*
X639490476Y-253092914D02*
X639490476Y-253045295D01*
X639490476Y-253045295D02*
X639538095Y-252950057D01*
X639538095Y-252950057D02*
X639585714Y-252902438D01*
X639585714Y-252902438D02*
X639680952Y-252854819D01*
X639680952Y-252854819D02*
X639871428Y-252854819D01*
X639871428Y-252854819D02*
X639966666Y-252902438D01*
X639966666Y-252902438D02*
X640014285Y-252950057D01*
X640014285Y-252950057D02*
X640061904Y-253045295D01*
X640061904Y-253045295D02*
X640061904Y-253092914D01*
X640061904Y-253092914D02*
X640014285Y-253188152D01*
X640014285Y-253188152D02*
X639966666Y-253235771D01*
X639966666Y-253235771D02*
X639871428Y-253283390D01*
X639871428Y-253283390D02*
X639680952Y-253283390D01*
X639680952Y-253283390D02*
X639585714Y-253331009D01*
X639585714Y-253331009D02*
X639538095Y-253378628D01*
X639538095Y-253378628D02*
X639490476Y-253473866D01*
X639490476Y-253473866D02*
X639490476Y-253664342D01*
X639490476Y-253664342D02*
X639538095Y-253759580D01*
X639538095Y-253759580D02*
X639585714Y-253807200D01*
X639585714Y-253807200D02*
X639680952Y-253854819D01*
X639680952Y-253854819D02*
X639871428Y-253854819D01*
X639871428Y-253854819D02*
X639966666Y-253807200D01*
X639966666Y-253807200D02*
X640014285Y-253759580D01*
X640014285Y-253759580D02*
X640061904Y-253664342D01*
X640061904Y-253664342D02*
X640061904Y-253473866D01*
X640061904Y-253473866D02*
X640014285Y-253378628D01*
X640014285Y-253378628D02*
X639966666Y-253331009D01*
X639966666Y-253331009D02*
X639871428Y-253283390D01*
%TO.C,C24*%
X613349580Y-255162856D02*
X613397200Y-255210475D01*
X613397200Y-255210475D02*
X613444819Y-255353332D01*
X613444819Y-255353332D02*
X613444819Y-255448570D01*
X613444819Y-255448570D02*
X613397200Y-255591427D01*
X613397200Y-255591427D02*
X613301961Y-255686665D01*
X613301961Y-255686665D02*
X613206723Y-255734284D01*
X613206723Y-255734284D02*
X613016247Y-255781903D01*
X613016247Y-255781903D02*
X612873390Y-255781903D01*
X612873390Y-255781903D02*
X612682914Y-255734284D01*
X612682914Y-255734284D02*
X612587676Y-255686665D01*
X612587676Y-255686665D02*
X612492438Y-255591427D01*
X612492438Y-255591427D02*
X612444819Y-255448570D01*
X612444819Y-255448570D02*
X612444819Y-255353332D01*
X612444819Y-255353332D02*
X612492438Y-255210475D01*
X612492438Y-255210475D02*
X612540057Y-255162856D01*
X612540057Y-254781903D02*
X612492438Y-254734284D01*
X612492438Y-254734284D02*
X612444819Y-254639046D01*
X612444819Y-254639046D02*
X612444819Y-254400951D01*
X612444819Y-254400951D02*
X612492438Y-254305713D01*
X612492438Y-254305713D02*
X612540057Y-254258094D01*
X612540057Y-254258094D02*
X612635295Y-254210475D01*
X612635295Y-254210475D02*
X612730533Y-254210475D01*
X612730533Y-254210475D02*
X612873390Y-254258094D01*
X612873390Y-254258094D02*
X613444819Y-254829522D01*
X613444819Y-254829522D02*
X613444819Y-254210475D01*
X612778152Y-253353332D02*
X613444819Y-253353332D01*
X612397200Y-253591427D02*
X613111485Y-253829522D01*
X613111485Y-253829522D02*
X613111485Y-253210475D01*
%TO.C,D8*%
X500061905Y-253854819D02*
X500061905Y-252854819D01*
X500061905Y-252854819D02*
X500300000Y-252854819D01*
X500300000Y-252854819D02*
X500442857Y-252902438D01*
X500442857Y-252902438D02*
X500538095Y-252997676D01*
X500538095Y-252997676D02*
X500585714Y-253092914D01*
X500585714Y-253092914D02*
X500633333Y-253283390D01*
X500633333Y-253283390D02*
X500633333Y-253426247D01*
X500633333Y-253426247D02*
X500585714Y-253616723D01*
X500585714Y-253616723D02*
X500538095Y-253711961D01*
X500538095Y-253711961D02*
X500442857Y-253807200D01*
X500442857Y-253807200D02*
X500300000Y-253854819D01*
X500300000Y-253854819D02*
X500061905Y-253854819D01*
X501204762Y-253283390D02*
X501109524Y-253235771D01*
X501109524Y-253235771D02*
X501061905Y-253188152D01*
X501061905Y-253188152D02*
X501014286Y-253092914D01*
X501014286Y-253092914D02*
X501014286Y-253045295D01*
X501014286Y-253045295D02*
X501061905Y-252950057D01*
X501061905Y-252950057D02*
X501109524Y-252902438D01*
X501109524Y-252902438D02*
X501204762Y-252854819D01*
X501204762Y-252854819D02*
X501395238Y-252854819D01*
X501395238Y-252854819D02*
X501490476Y-252902438D01*
X501490476Y-252902438D02*
X501538095Y-252950057D01*
X501538095Y-252950057D02*
X501585714Y-253045295D01*
X501585714Y-253045295D02*
X501585714Y-253092914D01*
X501585714Y-253092914D02*
X501538095Y-253188152D01*
X501538095Y-253188152D02*
X501490476Y-253235771D01*
X501490476Y-253235771D02*
X501395238Y-253283390D01*
X501395238Y-253283390D02*
X501204762Y-253283390D01*
X501204762Y-253283390D02*
X501109524Y-253331009D01*
X501109524Y-253331009D02*
X501061905Y-253378628D01*
X501061905Y-253378628D02*
X501014286Y-253473866D01*
X501014286Y-253473866D02*
X501014286Y-253664342D01*
X501014286Y-253664342D02*
X501061905Y-253759580D01*
X501061905Y-253759580D02*
X501109524Y-253807200D01*
X501109524Y-253807200D02*
X501204762Y-253854819D01*
X501204762Y-253854819D02*
X501395238Y-253854819D01*
X501395238Y-253854819D02*
X501490476Y-253807200D01*
X501490476Y-253807200D02*
X501538095Y-253759580D01*
X501538095Y-253759580D02*
X501585714Y-253664342D01*
X501585714Y-253664342D02*
X501585714Y-253473866D01*
X501585714Y-253473866D02*
X501538095Y-253378628D01*
X501538095Y-253378628D02*
X501490476Y-253331009D01*
X501490476Y-253331009D02*
X501395238Y-253283390D01*
%TO.C,D14*%
X540985714Y-253854819D02*
X540985714Y-252854819D01*
X540985714Y-252854819D02*
X541223809Y-252854819D01*
X541223809Y-252854819D02*
X541366666Y-252902438D01*
X541366666Y-252902438D02*
X541461904Y-252997676D01*
X541461904Y-252997676D02*
X541509523Y-253092914D01*
X541509523Y-253092914D02*
X541557142Y-253283390D01*
X541557142Y-253283390D02*
X541557142Y-253426247D01*
X541557142Y-253426247D02*
X541509523Y-253616723D01*
X541509523Y-253616723D02*
X541461904Y-253711961D01*
X541461904Y-253711961D02*
X541366666Y-253807200D01*
X541366666Y-253807200D02*
X541223809Y-253854819D01*
X541223809Y-253854819D02*
X540985714Y-253854819D01*
X542509523Y-253854819D02*
X541938095Y-253854819D01*
X542223809Y-253854819D02*
X542223809Y-252854819D01*
X542223809Y-252854819D02*
X542128571Y-252997676D01*
X542128571Y-252997676D02*
X542033333Y-253092914D01*
X542033333Y-253092914D02*
X541938095Y-253140533D01*
X543366666Y-253188152D02*
X543366666Y-253854819D01*
X543128571Y-252807200D02*
X542890476Y-253521485D01*
X542890476Y-253521485D02*
X543509523Y-253521485D01*
%TO.C,D10*%
X513385714Y-253854819D02*
X513385714Y-252854819D01*
X513385714Y-252854819D02*
X513623809Y-252854819D01*
X513623809Y-252854819D02*
X513766666Y-252902438D01*
X513766666Y-252902438D02*
X513861904Y-252997676D01*
X513861904Y-252997676D02*
X513909523Y-253092914D01*
X513909523Y-253092914D02*
X513957142Y-253283390D01*
X513957142Y-253283390D02*
X513957142Y-253426247D01*
X513957142Y-253426247D02*
X513909523Y-253616723D01*
X513909523Y-253616723D02*
X513861904Y-253711961D01*
X513861904Y-253711961D02*
X513766666Y-253807200D01*
X513766666Y-253807200D02*
X513623809Y-253854819D01*
X513623809Y-253854819D02*
X513385714Y-253854819D01*
X514909523Y-253854819D02*
X514338095Y-253854819D01*
X514623809Y-253854819D02*
X514623809Y-252854819D01*
X514623809Y-252854819D02*
X514528571Y-252997676D01*
X514528571Y-252997676D02*
X514433333Y-253092914D01*
X514433333Y-253092914D02*
X514338095Y-253140533D01*
X515528571Y-252854819D02*
X515623809Y-252854819D01*
X515623809Y-252854819D02*
X515719047Y-252902438D01*
X515719047Y-252902438D02*
X515766666Y-252950057D01*
X515766666Y-252950057D02*
X515814285Y-253045295D01*
X515814285Y-253045295D02*
X515861904Y-253235771D01*
X515861904Y-253235771D02*
X515861904Y-253473866D01*
X515861904Y-253473866D02*
X515814285Y-253664342D01*
X515814285Y-253664342D02*
X515766666Y-253759580D01*
X515766666Y-253759580D02*
X515719047Y-253807200D01*
X515719047Y-253807200D02*
X515623809Y-253854819D01*
X515623809Y-253854819D02*
X515528571Y-253854819D01*
X515528571Y-253854819D02*
X515433333Y-253807200D01*
X515433333Y-253807200D02*
X515385714Y-253759580D01*
X515385714Y-253759580D02*
X515338095Y-253664342D01*
X515338095Y-253664342D02*
X515290476Y-253473866D01*
X515290476Y-253473866D02*
X515290476Y-253235771D01*
X515290476Y-253235771D02*
X515338095Y-253045295D01*
X515338095Y-253045295D02*
X515385714Y-252950057D01*
X515385714Y-252950057D02*
X515433333Y-252902438D01*
X515433333Y-252902438D02*
X515528571Y-252854819D01*
%TO.C,D16*%
X554785714Y-253854819D02*
X554785714Y-252854819D01*
X554785714Y-252854819D02*
X555023809Y-252854819D01*
X555023809Y-252854819D02*
X555166666Y-252902438D01*
X555166666Y-252902438D02*
X555261904Y-252997676D01*
X555261904Y-252997676D02*
X555309523Y-253092914D01*
X555309523Y-253092914D02*
X555357142Y-253283390D01*
X555357142Y-253283390D02*
X555357142Y-253426247D01*
X555357142Y-253426247D02*
X555309523Y-253616723D01*
X555309523Y-253616723D02*
X555261904Y-253711961D01*
X555261904Y-253711961D02*
X555166666Y-253807200D01*
X555166666Y-253807200D02*
X555023809Y-253854819D01*
X555023809Y-253854819D02*
X554785714Y-253854819D01*
X556309523Y-253854819D02*
X555738095Y-253854819D01*
X556023809Y-253854819D02*
X556023809Y-252854819D01*
X556023809Y-252854819D02*
X555928571Y-252997676D01*
X555928571Y-252997676D02*
X555833333Y-253092914D01*
X555833333Y-253092914D02*
X555738095Y-253140533D01*
X557166666Y-252854819D02*
X556976190Y-252854819D01*
X556976190Y-252854819D02*
X556880952Y-252902438D01*
X556880952Y-252902438D02*
X556833333Y-252950057D01*
X556833333Y-252950057D02*
X556738095Y-253092914D01*
X556738095Y-253092914D02*
X556690476Y-253283390D01*
X556690476Y-253283390D02*
X556690476Y-253664342D01*
X556690476Y-253664342D02*
X556738095Y-253759580D01*
X556738095Y-253759580D02*
X556785714Y-253807200D01*
X556785714Y-253807200D02*
X556880952Y-253854819D01*
X556880952Y-253854819D02*
X557071428Y-253854819D01*
X557071428Y-253854819D02*
X557166666Y-253807200D01*
X557166666Y-253807200D02*
X557214285Y-253759580D01*
X557214285Y-253759580D02*
X557261904Y-253664342D01*
X557261904Y-253664342D02*
X557261904Y-253426247D01*
X557261904Y-253426247D02*
X557214285Y-253331009D01*
X557214285Y-253331009D02*
X557166666Y-253283390D01*
X557166666Y-253283390D02*
X557071428Y-253235771D01*
X557071428Y-253235771D02*
X556880952Y-253235771D01*
X556880952Y-253235771D02*
X556785714Y-253283390D01*
X556785714Y-253283390D02*
X556738095Y-253331009D01*
X556738095Y-253331009D02*
X556690476Y-253426247D01*
%TO.C,C16*%
X558149580Y-255162856D02*
X558197200Y-255210475D01*
X558197200Y-255210475D02*
X558244819Y-255353332D01*
X558244819Y-255353332D02*
X558244819Y-255448570D01*
X558244819Y-255448570D02*
X558197200Y-255591427D01*
X558197200Y-255591427D02*
X558101961Y-255686665D01*
X558101961Y-255686665D02*
X558006723Y-255734284D01*
X558006723Y-255734284D02*
X557816247Y-255781903D01*
X557816247Y-255781903D02*
X557673390Y-255781903D01*
X557673390Y-255781903D02*
X557482914Y-255734284D01*
X557482914Y-255734284D02*
X557387676Y-255686665D01*
X557387676Y-255686665D02*
X557292438Y-255591427D01*
X557292438Y-255591427D02*
X557244819Y-255448570D01*
X557244819Y-255448570D02*
X557244819Y-255353332D01*
X557244819Y-255353332D02*
X557292438Y-255210475D01*
X557292438Y-255210475D02*
X557340057Y-255162856D01*
X558244819Y-254210475D02*
X558244819Y-254781903D01*
X558244819Y-254496189D02*
X557244819Y-254496189D01*
X557244819Y-254496189D02*
X557387676Y-254591427D01*
X557387676Y-254591427D02*
X557482914Y-254686665D01*
X557482914Y-254686665D02*
X557530533Y-254781903D01*
X557244819Y-253353332D02*
X557244819Y-253543808D01*
X557244819Y-253543808D02*
X557292438Y-253639046D01*
X557292438Y-253639046D02*
X557340057Y-253686665D01*
X557340057Y-253686665D02*
X557482914Y-253781903D01*
X557482914Y-253781903D02*
X557673390Y-253829522D01*
X557673390Y-253829522D02*
X558054342Y-253829522D01*
X558054342Y-253829522D02*
X558149580Y-253781903D01*
X558149580Y-253781903D02*
X558197200Y-253734284D01*
X558197200Y-253734284D02*
X558244819Y-253639046D01*
X558244819Y-253639046D02*
X558244819Y-253448570D01*
X558244819Y-253448570D02*
X558197200Y-253353332D01*
X558197200Y-253353332D02*
X558149580Y-253305713D01*
X558149580Y-253305713D02*
X558054342Y-253258094D01*
X558054342Y-253258094D02*
X557816247Y-253258094D01*
X557816247Y-253258094D02*
X557721009Y-253305713D01*
X557721009Y-253305713D02*
X557673390Y-253353332D01*
X557673390Y-253353332D02*
X557625771Y-253448570D01*
X557625771Y-253448570D02*
X557625771Y-253639046D01*
X557625771Y-253639046D02*
X557673390Y-253734284D01*
X557673390Y-253734284D02*
X557721009Y-253781903D01*
X557721009Y-253781903D02*
X557816247Y-253829522D01*
%TO.C,D11*%
X520285714Y-253854819D02*
X520285714Y-252854819D01*
X520285714Y-252854819D02*
X520523809Y-252854819D01*
X520523809Y-252854819D02*
X520666666Y-252902438D01*
X520666666Y-252902438D02*
X520761904Y-252997676D01*
X520761904Y-252997676D02*
X520809523Y-253092914D01*
X520809523Y-253092914D02*
X520857142Y-253283390D01*
X520857142Y-253283390D02*
X520857142Y-253426247D01*
X520857142Y-253426247D02*
X520809523Y-253616723D01*
X520809523Y-253616723D02*
X520761904Y-253711961D01*
X520761904Y-253711961D02*
X520666666Y-253807200D01*
X520666666Y-253807200D02*
X520523809Y-253854819D01*
X520523809Y-253854819D02*
X520285714Y-253854819D01*
X521809523Y-253854819D02*
X521238095Y-253854819D01*
X521523809Y-253854819D02*
X521523809Y-252854819D01*
X521523809Y-252854819D02*
X521428571Y-252997676D01*
X521428571Y-252997676D02*
X521333333Y-253092914D01*
X521333333Y-253092914D02*
X521238095Y-253140533D01*
X522761904Y-253854819D02*
X522190476Y-253854819D01*
X522476190Y-253854819D02*
X522476190Y-252854819D01*
X522476190Y-252854819D02*
X522380952Y-252997676D01*
X522380952Y-252997676D02*
X522285714Y-253092914D01*
X522285714Y-253092914D02*
X522190476Y-253140533D01*
%TO.C,D5*%
X479361905Y-253854819D02*
X479361905Y-252854819D01*
X479361905Y-252854819D02*
X479600000Y-252854819D01*
X479600000Y-252854819D02*
X479742857Y-252902438D01*
X479742857Y-252902438D02*
X479838095Y-252997676D01*
X479838095Y-252997676D02*
X479885714Y-253092914D01*
X479885714Y-253092914D02*
X479933333Y-253283390D01*
X479933333Y-253283390D02*
X479933333Y-253426247D01*
X479933333Y-253426247D02*
X479885714Y-253616723D01*
X479885714Y-253616723D02*
X479838095Y-253711961D01*
X479838095Y-253711961D02*
X479742857Y-253807200D01*
X479742857Y-253807200D02*
X479600000Y-253854819D01*
X479600000Y-253854819D02*
X479361905Y-253854819D01*
X480838095Y-252854819D02*
X480361905Y-252854819D01*
X480361905Y-252854819D02*
X480314286Y-253331009D01*
X480314286Y-253331009D02*
X480361905Y-253283390D01*
X480361905Y-253283390D02*
X480457143Y-253235771D01*
X480457143Y-253235771D02*
X480695238Y-253235771D01*
X480695238Y-253235771D02*
X480790476Y-253283390D01*
X480790476Y-253283390D02*
X480838095Y-253331009D01*
X480838095Y-253331009D02*
X480885714Y-253426247D01*
X480885714Y-253426247D02*
X480885714Y-253664342D01*
X480885714Y-253664342D02*
X480838095Y-253759580D01*
X480838095Y-253759580D02*
X480790476Y-253807200D01*
X480790476Y-253807200D02*
X480695238Y-253854819D01*
X480695238Y-253854819D02*
X480457143Y-253854819D01*
X480457143Y-253854819D02*
X480361905Y-253807200D01*
X480361905Y-253807200D02*
X480314286Y-253759580D01*
%TO.C,C10*%
X516749580Y-255162857D02*
X516797200Y-255210476D01*
X516797200Y-255210476D02*
X516844819Y-255353333D01*
X516844819Y-255353333D02*
X516844819Y-255448571D01*
X516844819Y-255448571D02*
X516797200Y-255591428D01*
X516797200Y-255591428D02*
X516701961Y-255686666D01*
X516701961Y-255686666D02*
X516606723Y-255734285D01*
X516606723Y-255734285D02*
X516416247Y-255781904D01*
X516416247Y-255781904D02*
X516273390Y-255781904D01*
X516273390Y-255781904D02*
X516082914Y-255734285D01*
X516082914Y-255734285D02*
X515987676Y-255686666D01*
X515987676Y-255686666D02*
X515892438Y-255591428D01*
X515892438Y-255591428D02*
X515844819Y-255448571D01*
X515844819Y-255448571D02*
X515844819Y-255353333D01*
X515844819Y-255353333D02*
X515892438Y-255210476D01*
X515892438Y-255210476D02*
X515940057Y-255162857D01*
X516844819Y-254210476D02*
X516844819Y-254781904D01*
X516844819Y-254496190D02*
X515844819Y-254496190D01*
X515844819Y-254496190D02*
X515987676Y-254591428D01*
X515987676Y-254591428D02*
X516082914Y-254686666D01*
X516082914Y-254686666D02*
X516130533Y-254781904D01*
X515844819Y-253591428D02*
X515844819Y-253496190D01*
X515844819Y-253496190D02*
X515892438Y-253400952D01*
X515892438Y-253400952D02*
X515940057Y-253353333D01*
X515940057Y-253353333D02*
X516035295Y-253305714D01*
X516035295Y-253305714D02*
X516225771Y-253258095D01*
X516225771Y-253258095D02*
X516463866Y-253258095D01*
X516463866Y-253258095D02*
X516654342Y-253305714D01*
X516654342Y-253305714D02*
X516749580Y-253353333D01*
X516749580Y-253353333D02*
X516797200Y-253400952D01*
X516797200Y-253400952D02*
X516844819Y-253496190D01*
X516844819Y-253496190D02*
X516844819Y-253591428D01*
X516844819Y-253591428D02*
X516797200Y-253686666D01*
X516797200Y-253686666D02*
X516749580Y-253734285D01*
X516749580Y-253734285D02*
X516654342Y-253781904D01*
X516654342Y-253781904D02*
X516463866Y-253829523D01*
X516463866Y-253829523D02*
X516225771Y-253829523D01*
X516225771Y-253829523D02*
X516035295Y-253781904D01*
X516035295Y-253781904D02*
X515940057Y-253734285D01*
X515940057Y-253734285D02*
X515892438Y-253686666D01*
X515892438Y-253686666D02*
X515844819Y-253591428D01*
%TO.C,C2*%
X461549580Y-254166666D02*
X461597200Y-254214285D01*
X461597200Y-254214285D02*
X461644819Y-254357142D01*
X461644819Y-254357142D02*
X461644819Y-254452380D01*
X461644819Y-254452380D02*
X461597200Y-254595237D01*
X461597200Y-254595237D02*
X461501961Y-254690475D01*
X461501961Y-254690475D02*
X461406723Y-254738094D01*
X461406723Y-254738094D02*
X461216247Y-254785713D01*
X461216247Y-254785713D02*
X461073390Y-254785713D01*
X461073390Y-254785713D02*
X460882914Y-254738094D01*
X460882914Y-254738094D02*
X460787676Y-254690475D01*
X460787676Y-254690475D02*
X460692438Y-254595237D01*
X460692438Y-254595237D02*
X460644819Y-254452380D01*
X460644819Y-254452380D02*
X460644819Y-254357142D01*
X460644819Y-254357142D02*
X460692438Y-254214285D01*
X460692438Y-254214285D02*
X460740057Y-254166666D01*
X460740057Y-253785713D02*
X460692438Y-253738094D01*
X460692438Y-253738094D02*
X460644819Y-253642856D01*
X460644819Y-253642856D02*
X460644819Y-253404761D01*
X460644819Y-253404761D02*
X460692438Y-253309523D01*
X460692438Y-253309523D02*
X460740057Y-253261904D01*
X460740057Y-253261904D02*
X460835295Y-253214285D01*
X460835295Y-253214285D02*
X460930533Y-253214285D01*
X460930533Y-253214285D02*
X461073390Y-253261904D01*
X461073390Y-253261904D02*
X461644819Y-253833332D01*
X461644819Y-253833332D02*
X461644819Y-253214285D01*
%TO.C,C29*%
X647849580Y-255162857D02*
X647897200Y-255210476D01*
X647897200Y-255210476D02*
X647944819Y-255353333D01*
X647944819Y-255353333D02*
X647944819Y-255448571D01*
X647944819Y-255448571D02*
X647897200Y-255591428D01*
X647897200Y-255591428D02*
X647801961Y-255686666D01*
X647801961Y-255686666D02*
X647706723Y-255734285D01*
X647706723Y-255734285D02*
X647516247Y-255781904D01*
X647516247Y-255781904D02*
X647373390Y-255781904D01*
X647373390Y-255781904D02*
X647182914Y-255734285D01*
X647182914Y-255734285D02*
X647087676Y-255686666D01*
X647087676Y-255686666D02*
X646992438Y-255591428D01*
X646992438Y-255591428D02*
X646944819Y-255448571D01*
X646944819Y-255448571D02*
X646944819Y-255353333D01*
X646944819Y-255353333D02*
X646992438Y-255210476D01*
X646992438Y-255210476D02*
X647040057Y-255162857D01*
X647040057Y-254781904D02*
X646992438Y-254734285D01*
X646992438Y-254734285D02*
X646944819Y-254639047D01*
X646944819Y-254639047D02*
X646944819Y-254400952D01*
X646944819Y-254400952D02*
X646992438Y-254305714D01*
X646992438Y-254305714D02*
X647040057Y-254258095D01*
X647040057Y-254258095D02*
X647135295Y-254210476D01*
X647135295Y-254210476D02*
X647230533Y-254210476D01*
X647230533Y-254210476D02*
X647373390Y-254258095D01*
X647373390Y-254258095D02*
X647944819Y-254829523D01*
X647944819Y-254829523D02*
X647944819Y-254210476D01*
X647944819Y-253734285D02*
X647944819Y-253543809D01*
X647944819Y-253543809D02*
X647897200Y-253448571D01*
X647897200Y-253448571D02*
X647849580Y-253400952D01*
X647849580Y-253400952D02*
X647706723Y-253305714D01*
X647706723Y-253305714D02*
X647516247Y-253258095D01*
X647516247Y-253258095D02*
X647135295Y-253258095D01*
X647135295Y-253258095D02*
X647040057Y-253305714D01*
X647040057Y-253305714D02*
X646992438Y-253353333D01*
X646992438Y-253353333D02*
X646944819Y-253448571D01*
X646944819Y-253448571D02*
X646944819Y-253639047D01*
X646944819Y-253639047D02*
X646992438Y-253734285D01*
X646992438Y-253734285D02*
X647040057Y-253781904D01*
X647040057Y-253781904D02*
X647135295Y-253829523D01*
X647135295Y-253829523D02*
X647373390Y-253829523D01*
X647373390Y-253829523D02*
X647468628Y-253781904D01*
X647468628Y-253781904D02*
X647516247Y-253734285D01*
X647516247Y-253734285D02*
X647563866Y-253639047D01*
X647563866Y-253639047D02*
X647563866Y-253448571D01*
X647563866Y-253448571D02*
X647516247Y-253353333D01*
X647516247Y-253353333D02*
X647468628Y-253305714D01*
X647468628Y-253305714D02*
X647373390Y-253258095D01*
%TO.C,D21*%
X589285714Y-253854819D02*
X589285714Y-252854819D01*
X589285714Y-252854819D02*
X589523809Y-252854819D01*
X589523809Y-252854819D02*
X589666666Y-252902438D01*
X589666666Y-252902438D02*
X589761904Y-252997676D01*
X589761904Y-252997676D02*
X589809523Y-253092914D01*
X589809523Y-253092914D02*
X589857142Y-253283390D01*
X589857142Y-253283390D02*
X589857142Y-253426247D01*
X589857142Y-253426247D02*
X589809523Y-253616723D01*
X589809523Y-253616723D02*
X589761904Y-253711961D01*
X589761904Y-253711961D02*
X589666666Y-253807200D01*
X589666666Y-253807200D02*
X589523809Y-253854819D01*
X589523809Y-253854819D02*
X589285714Y-253854819D01*
X590238095Y-252950057D02*
X590285714Y-252902438D01*
X590285714Y-252902438D02*
X590380952Y-252854819D01*
X590380952Y-252854819D02*
X590619047Y-252854819D01*
X590619047Y-252854819D02*
X590714285Y-252902438D01*
X590714285Y-252902438D02*
X590761904Y-252950057D01*
X590761904Y-252950057D02*
X590809523Y-253045295D01*
X590809523Y-253045295D02*
X590809523Y-253140533D01*
X590809523Y-253140533D02*
X590761904Y-253283390D01*
X590761904Y-253283390D02*
X590190476Y-253854819D01*
X590190476Y-253854819D02*
X590809523Y-253854819D01*
X591761904Y-253854819D02*
X591190476Y-253854819D01*
X591476190Y-253854819D02*
X591476190Y-252854819D01*
X591476190Y-252854819D02*
X591380952Y-252997676D01*
X591380952Y-252997676D02*
X591285714Y-253092914D01*
X591285714Y-253092914D02*
X591190476Y-253140533D01*
%TO.C,D1*%
X451761905Y-253854819D02*
X451761905Y-252854819D01*
X451761905Y-252854819D02*
X452000000Y-252854819D01*
X452000000Y-252854819D02*
X452142857Y-252902438D01*
X452142857Y-252902438D02*
X452238095Y-252997676D01*
X452238095Y-252997676D02*
X452285714Y-253092914D01*
X452285714Y-253092914D02*
X452333333Y-253283390D01*
X452333333Y-253283390D02*
X452333333Y-253426247D01*
X452333333Y-253426247D02*
X452285714Y-253616723D01*
X452285714Y-253616723D02*
X452238095Y-253711961D01*
X452238095Y-253711961D02*
X452142857Y-253807200D01*
X452142857Y-253807200D02*
X452000000Y-253854819D01*
X452000000Y-253854819D02*
X451761905Y-253854819D01*
X453285714Y-253854819D02*
X452714286Y-253854819D01*
X453000000Y-253854819D02*
X453000000Y-252854819D01*
X453000000Y-252854819D02*
X452904762Y-252997676D01*
X452904762Y-252997676D02*
X452809524Y-253092914D01*
X452809524Y-253092914D02*
X452714286Y-253140533D01*
%TO.C,C39*%
X716849581Y-255162857D02*
X716897201Y-255210476D01*
X716897201Y-255210476D02*
X716944820Y-255353333D01*
X716944820Y-255353333D02*
X716944820Y-255448571D01*
X716944820Y-255448571D02*
X716897201Y-255591428D01*
X716897201Y-255591428D02*
X716801962Y-255686666D01*
X716801962Y-255686666D02*
X716706724Y-255734285D01*
X716706724Y-255734285D02*
X716516248Y-255781904D01*
X716516248Y-255781904D02*
X716373391Y-255781904D01*
X716373391Y-255781904D02*
X716182915Y-255734285D01*
X716182915Y-255734285D02*
X716087677Y-255686666D01*
X716087677Y-255686666D02*
X715992439Y-255591428D01*
X715992439Y-255591428D02*
X715944820Y-255448571D01*
X715944820Y-255448571D02*
X715944820Y-255353333D01*
X715944820Y-255353333D02*
X715992439Y-255210476D01*
X715992439Y-255210476D02*
X716040058Y-255162857D01*
X715944820Y-254829523D02*
X715944820Y-254210476D01*
X715944820Y-254210476D02*
X716325772Y-254543809D01*
X716325772Y-254543809D02*
X716325772Y-254400952D01*
X716325772Y-254400952D02*
X716373391Y-254305714D01*
X716373391Y-254305714D02*
X716421010Y-254258095D01*
X716421010Y-254258095D02*
X716516248Y-254210476D01*
X716516248Y-254210476D02*
X716754343Y-254210476D01*
X716754343Y-254210476D02*
X716849581Y-254258095D01*
X716849581Y-254258095D02*
X716897201Y-254305714D01*
X716897201Y-254305714D02*
X716944820Y-254400952D01*
X716944820Y-254400952D02*
X716944820Y-254686666D01*
X716944820Y-254686666D02*
X716897201Y-254781904D01*
X716897201Y-254781904D02*
X716849581Y-254829523D01*
X716944820Y-253734285D02*
X716944820Y-253543809D01*
X716944820Y-253543809D02*
X716897201Y-253448571D01*
X716897201Y-253448571D02*
X716849581Y-253400952D01*
X716849581Y-253400952D02*
X716706724Y-253305714D01*
X716706724Y-253305714D02*
X716516248Y-253258095D01*
X716516248Y-253258095D02*
X716135296Y-253258095D01*
X716135296Y-253258095D02*
X716040058Y-253305714D01*
X716040058Y-253305714D02*
X715992439Y-253353333D01*
X715992439Y-253353333D02*
X715944820Y-253448571D01*
X715944820Y-253448571D02*
X715944820Y-253639047D01*
X715944820Y-253639047D02*
X715992439Y-253734285D01*
X715992439Y-253734285D02*
X716040058Y-253781904D01*
X716040058Y-253781904D02*
X716135296Y-253829523D01*
X716135296Y-253829523D02*
X716373391Y-253829523D01*
X716373391Y-253829523D02*
X716468629Y-253781904D01*
X716468629Y-253781904D02*
X716516248Y-253734285D01*
X716516248Y-253734285D02*
X716563867Y-253639047D01*
X716563867Y-253639047D02*
X716563867Y-253448571D01*
X716563867Y-253448571D02*
X716516248Y-253353333D01*
X716516248Y-253353333D02*
X716468629Y-253305714D01*
X716468629Y-253305714D02*
X716373391Y-253258095D01*
%TO.C,D36*%
X692785714Y-253854819D02*
X692785714Y-252854819D01*
X692785714Y-252854819D02*
X693023809Y-252854819D01*
X693023809Y-252854819D02*
X693166666Y-252902438D01*
X693166666Y-252902438D02*
X693261904Y-252997676D01*
X693261904Y-252997676D02*
X693309523Y-253092914D01*
X693309523Y-253092914D02*
X693357142Y-253283390D01*
X693357142Y-253283390D02*
X693357142Y-253426247D01*
X693357142Y-253426247D02*
X693309523Y-253616723D01*
X693309523Y-253616723D02*
X693261904Y-253711961D01*
X693261904Y-253711961D02*
X693166666Y-253807200D01*
X693166666Y-253807200D02*
X693023809Y-253854819D01*
X693023809Y-253854819D02*
X692785714Y-253854819D01*
X693690476Y-252854819D02*
X694309523Y-252854819D01*
X694309523Y-252854819D02*
X693976190Y-253235771D01*
X693976190Y-253235771D02*
X694119047Y-253235771D01*
X694119047Y-253235771D02*
X694214285Y-253283390D01*
X694214285Y-253283390D02*
X694261904Y-253331009D01*
X694261904Y-253331009D02*
X694309523Y-253426247D01*
X694309523Y-253426247D02*
X694309523Y-253664342D01*
X694309523Y-253664342D02*
X694261904Y-253759580D01*
X694261904Y-253759580D02*
X694214285Y-253807200D01*
X694214285Y-253807200D02*
X694119047Y-253854819D01*
X694119047Y-253854819D02*
X693833333Y-253854819D01*
X693833333Y-253854819D02*
X693738095Y-253807200D01*
X693738095Y-253807200D02*
X693690476Y-253759580D01*
X695166666Y-252854819D02*
X694976190Y-252854819D01*
X694976190Y-252854819D02*
X694880952Y-252902438D01*
X694880952Y-252902438D02*
X694833333Y-252950057D01*
X694833333Y-252950057D02*
X694738095Y-253092914D01*
X694738095Y-253092914D02*
X694690476Y-253283390D01*
X694690476Y-253283390D02*
X694690476Y-253664342D01*
X694690476Y-253664342D02*
X694738095Y-253759580D01*
X694738095Y-253759580D02*
X694785714Y-253807200D01*
X694785714Y-253807200D02*
X694880952Y-253854819D01*
X694880952Y-253854819D02*
X695071428Y-253854819D01*
X695071428Y-253854819D02*
X695166666Y-253807200D01*
X695166666Y-253807200D02*
X695214285Y-253759580D01*
X695214285Y-253759580D02*
X695261904Y-253664342D01*
X695261904Y-253664342D02*
X695261904Y-253426247D01*
X695261904Y-253426247D02*
X695214285Y-253331009D01*
X695214285Y-253331009D02*
X695166666Y-253283390D01*
X695166666Y-253283390D02*
X695071428Y-253235771D01*
X695071428Y-253235771D02*
X694880952Y-253235771D01*
X694880952Y-253235771D02*
X694785714Y-253283390D01*
X694785714Y-253283390D02*
X694738095Y-253331009D01*
X694738095Y-253331009D02*
X694690476Y-253426247D01*
%TO.C,C9*%
X509849580Y-254706666D02*
X509897200Y-254754285D01*
X509897200Y-254754285D02*
X509944819Y-254897142D01*
X509944819Y-254897142D02*
X509944819Y-254992380D01*
X509944819Y-254992380D02*
X509897200Y-255135237D01*
X509897200Y-255135237D02*
X509801961Y-255230475D01*
X509801961Y-255230475D02*
X509706723Y-255278094D01*
X509706723Y-255278094D02*
X509516247Y-255325713D01*
X509516247Y-255325713D02*
X509373390Y-255325713D01*
X509373390Y-255325713D02*
X509182914Y-255278094D01*
X509182914Y-255278094D02*
X509087676Y-255230475D01*
X509087676Y-255230475D02*
X508992438Y-255135237D01*
X508992438Y-255135237D02*
X508944819Y-254992380D01*
X508944819Y-254992380D02*
X508944819Y-254897142D01*
X508944819Y-254897142D02*
X508992438Y-254754285D01*
X508992438Y-254754285D02*
X509040057Y-254706666D01*
X509944819Y-254230475D02*
X509944819Y-254039999D01*
X509944819Y-254039999D02*
X509897200Y-253944761D01*
X509897200Y-253944761D02*
X509849580Y-253897142D01*
X509849580Y-253897142D02*
X509706723Y-253801904D01*
X509706723Y-253801904D02*
X509516247Y-253754285D01*
X509516247Y-253754285D02*
X509135295Y-253754285D01*
X509135295Y-253754285D02*
X509040057Y-253801904D01*
X509040057Y-253801904D02*
X508992438Y-253849523D01*
X508992438Y-253849523D02*
X508944819Y-253944761D01*
X508944819Y-253944761D02*
X508944819Y-254135237D01*
X508944819Y-254135237D02*
X508992438Y-254230475D01*
X508992438Y-254230475D02*
X509040057Y-254278094D01*
X509040057Y-254278094D02*
X509135295Y-254325713D01*
X509135295Y-254325713D02*
X509373390Y-254325713D01*
X509373390Y-254325713D02*
X509468628Y-254278094D01*
X509468628Y-254278094D02*
X509516247Y-254230475D01*
X509516247Y-254230475D02*
X509563866Y-254135237D01*
X509563866Y-254135237D02*
X509563866Y-253944761D01*
X509563866Y-253944761D02*
X509516247Y-253849523D01*
X509516247Y-253849523D02*
X509468628Y-253801904D01*
X509468628Y-253801904D02*
X509373390Y-253754285D01*
%TO.C,D6*%
X486261905Y-253854819D02*
X486261905Y-252854819D01*
X486261905Y-252854819D02*
X486500000Y-252854819D01*
X486500000Y-252854819D02*
X486642857Y-252902438D01*
X486642857Y-252902438D02*
X486738095Y-252997676D01*
X486738095Y-252997676D02*
X486785714Y-253092914D01*
X486785714Y-253092914D02*
X486833333Y-253283390D01*
X486833333Y-253283390D02*
X486833333Y-253426247D01*
X486833333Y-253426247D02*
X486785714Y-253616723D01*
X486785714Y-253616723D02*
X486738095Y-253711961D01*
X486738095Y-253711961D02*
X486642857Y-253807200D01*
X486642857Y-253807200D02*
X486500000Y-253854819D01*
X486500000Y-253854819D02*
X486261905Y-253854819D01*
X487690476Y-252854819D02*
X487500000Y-252854819D01*
X487500000Y-252854819D02*
X487404762Y-252902438D01*
X487404762Y-252902438D02*
X487357143Y-252950057D01*
X487357143Y-252950057D02*
X487261905Y-253092914D01*
X487261905Y-253092914D02*
X487214286Y-253283390D01*
X487214286Y-253283390D02*
X487214286Y-253664342D01*
X487214286Y-253664342D02*
X487261905Y-253759580D01*
X487261905Y-253759580D02*
X487309524Y-253807200D01*
X487309524Y-253807200D02*
X487404762Y-253854819D01*
X487404762Y-253854819D02*
X487595238Y-253854819D01*
X487595238Y-253854819D02*
X487690476Y-253807200D01*
X487690476Y-253807200D02*
X487738095Y-253759580D01*
X487738095Y-253759580D02*
X487785714Y-253664342D01*
X487785714Y-253664342D02*
X487785714Y-253426247D01*
X487785714Y-253426247D02*
X487738095Y-253331009D01*
X487738095Y-253331009D02*
X487690476Y-253283390D01*
X487690476Y-253283390D02*
X487595238Y-253235771D01*
X487595238Y-253235771D02*
X487404762Y-253235771D01*
X487404762Y-253235771D02*
X487309524Y-253283390D01*
X487309524Y-253283390D02*
X487261905Y-253331009D01*
X487261905Y-253331009D02*
X487214286Y-253426247D01*
%TO.C,C1*%
X454649580Y-254706666D02*
X454697200Y-254754285D01*
X454697200Y-254754285D02*
X454744819Y-254897142D01*
X454744819Y-254897142D02*
X454744819Y-254992380D01*
X454744819Y-254992380D02*
X454697200Y-255135237D01*
X454697200Y-255135237D02*
X454601961Y-255230475D01*
X454601961Y-255230475D02*
X454506723Y-255278094D01*
X454506723Y-255278094D02*
X454316247Y-255325713D01*
X454316247Y-255325713D02*
X454173390Y-255325713D01*
X454173390Y-255325713D02*
X453982914Y-255278094D01*
X453982914Y-255278094D02*
X453887676Y-255230475D01*
X453887676Y-255230475D02*
X453792438Y-255135237D01*
X453792438Y-255135237D02*
X453744819Y-254992380D01*
X453744819Y-254992380D02*
X453744819Y-254897142D01*
X453744819Y-254897142D02*
X453792438Y-254754285D01*
X453792438Y-254754285D02*
X453840057Y-254706666D01*
X454744819Y-253754285D02*
X454744819Y-254325713D01*
X454744819Y-254039999D02*
X453744819Y-254039999D01*
X453744819Y-254039999D02*
X453887676Y-254135237D01*
X453887676Y-254135237D02*
X453982914Y-254230475D01*
X453982914Y-254230475D02*
X454030533Y-254325713D01*
%TO.C,C36*%
X696149580Y-255162857D02*
X696197200Y-255210476D01*
X696197200Y-255210476D02*
X696244819Y-255353333D01*
X696244819Y-255353333D02*
X696244819Y-255448571D01*
X696244819Y-255448571D02*
X696197200Y-255591428D01*
X696197200Y-255591428D02*
X696101961Y-255686666D01*
X696101961Y-255686666D02*
X696006723Y-255734285D01*
X696006723Y-255734285D02*
X695816247Y-255781904D01*
X695816247Y-255781904D02*
X695673390Y-255781904D01*
X695673390Y-255781904D02*
X695482914Y-255734285D01*
X695482914Y-255734285D02*
X695387676Y-255686666D01*
X695387676Y-255686666D02*
X695292438Y-255591428D01*
X695292438Y-255591428D02*
X695244819Y-255448571D01*
X695244819Y-255448571D02*
X695244819Y-255353333D01*
X695244819Y-255353333D02*
X695292438Y-255210476D01*
X695292438Y-255210476D02*
X695340057Y-255162857D01*
X695244819Y-254829523D02*
X695244819Y-254210476D01*
X695244819Y-254210476D02*
X695625771Y-254543809D01*
X695625771Y-254543809D02*
X695625771Y-254400952D01*
X695625771Y-254400952D02*
X695673390Y-254305714D01*
X695673390Y-254305714D02*
X695721009Y-254258095D01*
X695721009Y-254258095D02*
X695816247Y-254210476D01*
X695816247Y-254210476D02*
X696054342Y-254210476D01*
X696054342Y-254210476D02*
X696149580Y-254258095D01*
X696149580Y-254258095D02*
X696197200Y-254305714D01*
X696197200Y-254305714D02*
X696244819Y-254400952D01*
X696244819Y-254400952D02*
X696244819Y-254686666D01*
X696244819Y-254686666D02*
X696197200Y-254781904D01*
X696197200Y-254781904D02*
X696149580Y-254829523D01*
X695244819Y-253353333D02*
X695244819Y-253543809D01*
X695244819Y-253543809D02*
X695292438Y-253639047D01*
X695292438Y-253639047D02*
X695340057Y-253686666D01*
X695340057Y-253686666D02*
X695482914Y-253781904D01*
X695482914Y-253781904D02*
X695673390Y-253829523D01*
X695673390Y-253829523D02*
X696054342Y-253829523D01*
X696054342Y-253829523D02*
X696149580Y-253781904D01*
X696149580Y-253781904D02*
X696197200Y-253734285D01*
X696197200Y-253734285D02*
X696244819Y-253639047D01*
X696244819Y-253639047D02*
X696244819Y-253448571D01*
X696244819Y-253448571D02*
X696197200Y-253353333D01*
X696197200Y-253353333D02*
X696149580Y-253305714D01*
X696149580Y-253305714D02*
X696054342Y-253258095D01*
X696054342Y-253258095D02*
X695816247Y-253258095D01*
X695816247Y-253258095D02*
X695721009Y-253305714D01*
X695721009Y-253305714D02*
X695673390Y-253353333D01*
X695673390Y-253353333D02*
X695625771Y-253448571D01*
X695625771Y-253448571D02*
X695625771Y-253639047D01*
X695625771Y-253639047D02*
X695673390Y-253734285D01*
X695673390Y-253734285D02*
X695721009Y-253781904D01*
X695721009Y-253781904D02*
X695816247Y-253829523D01*
%TO.C,C8*%
X502949580Y-254686666D02*
X502997200Y-254734285D01*
X502997200Y-254734285D02*
X503044819Y-254877142D01*
X503044819Y-254877142D02*
X503044819Y-254972380D01*
X503044819Y-254972380D02*
X502997200Y-255115237D01*
X502997200Y-255115237D02*
X502901961Y-255210475D01*
X502901961Y-255210475D02*
X502806723Y-255258094D01*
X502806723Y-255258094D02*
X502616247Y-255305713D01*
X502616247Y-255305713D02*
X502473390Y-255305713D01*
X502473390Y-255305713D02*
X502282914Y-255258094D01*
X502282914Y-255258094D02*
X502187676Y-255210475D01*
X502187676Y-255210475D02*
X502092438Y-255115237D01*
X502092438Y-255115237D02*
X502044819Y-254972380D01*
X502044819Y-254972380D02*
X502044819Y-254877142D01*
X502044819Y-254877142D02*
X502092438Y-254734285D01*
X502092438Y-254734285D02*
X502140057Y-254686666D01*
X502473390Y-254115237D02*
X502425771Y-254210475D01*
X502425771Y-254210475D02*
X502378152Y-254258094D01*
X502378152Y-254258094D02*
X502282914Y-254305713D01*
X502282914Y-254305713D02*
X502235295Y-254305713D01*
X502235295Y-254305713D02*
X502140057Y-254258094D01*
X502140057Y-254258094D02*
X502092438Y-254210475D01*
X502092438Y-254210475D02*
X502044819Y-254115237D01*
X502044819Y-254115237D02*
X502044819Y-253924761D01*
X502044819Y-253924761D02*
X502092438Y-253829523D01*
X502092438Y-253829523D02*
X502140057Y-253781904D01*
X502140057Y-253781904D02*
X502235295Y-253734285D01*
X502235295Y-253734285D02*
X502282914Y-253734285D01*
X502282914Y-253734285D02*
X502378152Y-253781904D01*
X502378152Y-253781904D02*
X502425771Y-253829523D01*
X502425771Y-253829523D02*
X502473390Y-253924761D01*
X502473390Y-253924761D02*
X502473390Y-254115237D01*
X502473390Y-254115237D02*
X502521009Y-254210475D01*
X502521009Y-254210475D02*
X502568628Y-254258094D01*
X502568628Y-254258094D02*
X502663866Y-254305713D01*
X502663866Y-254305713D02*
X502854342Y-254305713D01*
X502854342Y-254305713D02*
X502949580Y-254258094D01*
X502949580Y-254258094D02*
X502997200Y-254210475D01*
X502997200Y-254210475D02*
X503044819Y-254115237D01*
X503044819Y-254115237D02*
X503044819Y-253924761D01*
X503044819Y-253924761D02*
X502997200Y-253829523D01*
X502997200Y-253829523D02*
X502949580Y-253781904D01*
X502949580Y-253781904D02*
X502854342Y-253734285D01*
X502854342Y-253734285D02*
X502663866Y-253734285D01*
X502663866Y-253734285D02*
X502568628Y-253781904D01*
X502568628Y-253781904D02*
X502521009Y-253829523D01*
X502521009Y-253829523D02*
X502473390Y-253924761D01*
%TO.C,D33*%
X672085714Y-253854819D02*
X672085714Y-252854819D01*
X672085714Y-252854819D02*
X672323809Y-252854819D01*
X672323809Y-252854819D02*
X672466666Y-252902438D01*
X672466666Y-252902438D02*
X672561904Y-252997676D01*
X672561904Y-252997676D02*
X672609523Y-253092914D01*
X672609523Y-253092914D02*
X672657142Y-253283390D01*
X672657142Y-253283390D02*
X672657142Y-253426247D01*
X672657142Y-253426247D02*
X672609523Y-253616723D01*
X672609523Y-253616723D02*
X672561904Y-253711961D01*
X672561904Y-253711961D02*
X672466666Y-253807200D01*
X672466666Y-253807200D02*
X672323809Y-253854819D01*
X672323809Y-253854819D02*
X672085714Y-253854819D01*
X672990476Y-252854819D02*
X673609523Y-252854819D01*
X673609523Y-252854819D02*
X673276190Y-253235771D01*
X673276190Y-253235771D02*
X673419047Y-253235771D01*
X673419047Y-253235771D02*
X673514285Y-253283390D01*
X673514285Y-253283390D02*
X673561904Y-253331009D01*
X673561904Y-253331009D02*
X673609523Y-253426247D01*
X673609523Y-253426247D02*
X673609523Y-253664342D01*
X673609523Y-253664342D02*
X673561904Y-253759580D01*
X673561904Y-253759580D02*
X673514285Y-253807200D01*
X673514285Y-253807200D02*
X673419047Y-253854819D01*
X673419047Y-253854819D02*
X673133333Y-253854819D01*
X673133333Y-253854819D02*
X673038095Y-253807200D01*
X673038095Y-253807200D02*
X672990476Y-253759580D01*
X673942857Y-252854819D02*
X674561904Y-252854819D01*
X674561904Y-252854819D02*
X674228571Y-253235771D01*
X674228571Y-253235771D02*
X674371428Y-253235771D01*
X674371428Y-253235771D02*
X674466666Y-253283390D01*
X674466666Y-253283390D02*
X674514285Y-253331009D01*
X674514285Y-253331009D02*
X674561904Y-253426247D01*
X674561904Y-253426247D02*
X674561904Y-253664342D01*
X674561904Y-253664342D02*
X674514285Y-253759580D01*
X674514285Y-253759580D02*
X674466666Y-253807200D01*
X674466666Y-253807200D02*
X674371428Y-253854819D01*
X674371428Y-253854819D02*
X674085714Y-253854819D01*
X674085714Y-253854819D02*
X673990476Y-253807200D01*
X673990476Y-253807200D02*
X673942857Y-253759580D01*
%TO.C,D37*%
X699685714Y-253854819D02*
X699685714Y-252854819D01*
X699685714Y-252854819D02*
X699923809Y-252854819D01*
X699923809Y-252854819D02*
X700066666Y-252902438D01*
X700066666Y-252902438D02*
X700161904Y-252997676D01*
X700161904Y-252997676D02*
X700209523Y-253092914D01*
X700209523Y-253092914D02*
X700257142Y-253283390D01*
X700257142Y-253283390D02*
X700257142Y-253426247D01*
X700257142Y-253426247D02*
X700209523Y-253616723D01*
X700209523Y-253616723D02*
X700161904Y-253711961D01*
X700161904Y-253711961D02*
X700066666Y-253807200D01*
X700066666Y-253807200D02*
X699923809Y-253854819D01*
X699923809Y-253854819D02*
X699685714Y-253854819D01*
X700590476Y-252854819D02*
X701209523Y-252854819D01*
X701209523Y-252854819D02*
X700876190Y-253235771D01*
X700876190Y-253235771D02*
X701019047Y-253235771D01*
X701019047Y-253235771D02*
X701114285Y-253283390D01*
X701114285Y-253283390D02*
X701161904Y-253331009D01*
X701161904Y-253331009D02*
X701209523Y-253426247D01*
X701209523Y-253426247D02*
X701209523Y-253664342D01*
X701209523Y-253664342D02*
X701161904Y-253759580D01*
X701161904Y-253759580D02*
X701114285Y-253807200D01*
X701114285Y-253807200D02*
X701019047Y-253854819D01*
X701019047Y-253854819D02*
X700733333Y-253854819D01*
X700733333Y-253854819D02*
X700638095Y-253807200D01*
X700638095Y-253807200D02*
X700590476Y-253759580D01*
X701542857Y-252854819D02*
X702209523Y-252854819D01*
X702209523Y-252854819D02*
X701780952Y-253854819D01*
%TO.C,D22*%
X596185714Y-253854819D02*
X596185714Y-252854819D01*
X596185714Y-252854819D02*
X596423809Y-252854819D01*
X596423809Y-252854819D02*
X596566666Y-252902438D01*
X596566666Y-252902438D02*
X596661904Y-252997676D01*
X596661904Y-252997676D02*
X596709523Y-253092914D01*
X596709523Y-253092914D02*
X596757142Y-253283390D01*
X596757142Y-253283390D02*
X596757142Y-253426247D01*
X596757142Y-253426247D02*
X596709523Y-253616723D01*
X596709523Y-253616723D02*
X596661904Y-253711961D01*
X596661904Y-253711961D02*
X596566666Y-253807200D01*
X596566666Y-253807200D02*
X596423809Y-253854819D01*
X596423809Y-253854819D02*
X596185714Y-253854819D01*
X597138095Y-252950057D02*
X597185714Y-252902438D01*
X597185714Y-252902438D02*
X597280952Y-252854819D01*
X597280952Y-252854819D02*
X597519047Y-252854819D01*
X597519047Y-252854819D02*
X597614285Y-252902438D01*
X597614285Y-252902438D02*
X597661904Y-252950057D01*
X597661904Y-252950057D02*
X597709523Y-253045295D01*
X597709523Y-253045295D02*
X597709523Y-253140533D01*
X597709523Y-253140533D02*
X597661904Y-253283390D01*
X597661904Y-253283390D02*
X597090476Y-253854819D01*
X597090476Y-253854819D02*
X597709523Y-253854819D01*
X598090476Y-252950057D02*
X598138095Y-252902438D01*
X598138095Y-252902438D02*
X598233333Y-252854819D01*
X598233333Y-252854819D02*
X598471428Y-252854819D01*
X598471428Y-252854819D02*
X598566666Y-252902438D01*
X598566666Y-252902438D02*
X598614285Y-252950057D01*
X598614285Y-252950057D02*
X598661904Y-253045295D01*
X598661904Y-253045295D02*
X598661904Y-253140533D01*
X598661904Y-253140533D02*
X598614285Y-253283390D01*
X598614285Y-253283390D02*
X598042857Y-253854819D01*
X598042857Y-253854819D02*
X598661904Y-253854819D01*
%TO.C,C4*%
X475349580Y-254686666D02*
X475397200Y-254734285D01*
X475397200Y-254734285D02*
X475444819Y-254877142D01*
X475444819Y-254877142D02*
X475444819Y-254972380D01*
X475444819Y-254972380D02*
X475397200Y-255115237D01*
X475397200Y-255115237D02*
X475301961Y-255210475D01*
X475301961Y-255210475D02*
X475206723Y-255258094D01*
X475206723Y-255258094D02*
X475016247Y-255305713D01*
X475016247Y-255305713D02*
X474873390Y-255305713D01*
X474873390Y-255305713D02*
X474682914Y-255258094D01*
X474682914Y-255258094D02*
X474587676Y-255210475D01*
X474587676Y-255210475D02*
X474492438Y-255115237D01*
X474492438Y-255115237D02*
X474444819Y-254972380D01*
X474444819Y-254972380D02*
X474444819Y-254877142D01*
X474444819Y-254877142D02*
X474492438Y-254734285D01*
X474492438Y-254734285D02*
X474540057Y-254686666D01*
X474778152Y-253829523D02*
X475444819Y-253829523D01*
X474397200Y-254067618D02*
X475111485Y-254305713D01*
X475111485Y-254305713D02*
X475111485Y-253686666D01*
%TO.C,C31*%
X661649581Y-255162857D02*
X661697201Y-255210476D01*
X661697201Y-255210476D02*
X661744820Y-255353333D01*
X661744820Y-255353333D02*
X661744820Y-255448571D01*
X661744820Y-255448571D02*
X661697201Y-255591428D01*
X661697201Y-255591428D02*
X661601962Y-255686666D01*
X661601962Y-255686666D02*
X661506724Y-255734285D01*
X661506724Y-255734285D02*
X661316248Y-255781904D01*
X661316248Y-255781904D02*
X661173391Y-255781904D01*
X661173391Y-255781904D02*
X660982915Y-255734285D01*
X660982915Y-255734285D02*
X660887677Y-255686666D01*
X660887677Y-255686666D02*
X660792439Y-255591428D01*
X660792439Y-255591428D02*
X660744820Y-255448571D01*
X660744820Y-255448571D02*
X660744820Y-255353333D01*
X660744820Y-255353333D02*
X660792439Y-255210476D01*
X660792439Y-255210476D02*
X660840058Y-255162857D01*
X660744820Y-254829523D02*
X660744820Y-254210476D01*
X660744820Y-254210476D02*
X661125772Y-254543809D01*
X661125772Y-254543809D02*
X661125772Y-254400952D01*
X661125772Y-254400952D02*
X661173391Y-254305714D01*
X661173391Y-254305714D02*
X661221010Y-254258095D01*
X661221010Y-254258095D02*
X661316248Y-254210476D01*
X661316248Y-254210476D02*
X661554343Y-254210476D01*
X661554343Y-254210476D02*
X661649581Y-254258095D01*
X661649581Y-254258095D02*
X661697201Y-254305714D01*
X661697201Y-254305714D02*
X661744820Y-254400952D01*
X661744820Y-254400952D02*
X661744820Y-254686666D01*
X661744820Y-254686666D02*
X661697201Y-254781904D01*
X661697201Y-254781904D02*
X661649581Y-254829523D01*
X661744820Y-253258095D02*
X661744820Y-253829523D01*
X661744820Y-253543809D02*
X660744820Y-253543809D01*
X660744820Y-253543809D02*
X660887677Y-253639047D01*
X660887677Y-253639047D02*
X660982915Y-253734285D01*
X660982915Y-253734285D02*
X661030534Y-253829523D01*
%TO.C,D3*%
X465561905Y-253854819D02*
X465561905Y-252854819D01*
X465561905Y-252854819D02*
X465800000Y-252854819D01*
X465800000Y-252854819D02*
X465942857Y-252902438D01*
X465942857Y-252902438D02*
X466038095Y-252997676D01*
X466038095Y-252997676D02*
X466085714Y-253092914D01*
X466085714Y-253092914D02*
X466133333Y-253283390D01*
X466133333Y-253283390D02*
X466133333Y-253426247D01*
X466133333Y-253426247D02*
X466085714Y-253616723D01*
X466085714Y-253616723D02*
X466038095Y-253711961D01*
X466038095Y-253711961D02*
X465942857Y-253807200D01*
X465942857Y-253807200D02*
X465800000Y-253854819D01*
X465800000Y-253854819D02*
X465561905Y-253854819D01*
X466466667Y-252854819D02*
X467085714Y-252854819D01*
X467085714Y-252854819D02*
X466752381Y-253235771D01*
X466752381Y-253235771D02*
X466895238Y-253235771D01*
X466895238Y-253235771D02*
X466990476Y-253283390D01*
X466990476Y-253283390D02*
X467038095Y-253331009D01*
X467038095Y-253331009D02*
X467085714Y-253426247D01*
X467085714Y-253426247D02*
X467085714Y-253664342D01*
X467085714Y-253664342D02*
X467038095Y-253759580D01*
X467038095Y-253759580D02*
X466990476Y-253807200D01*
X466990476Y-253807200D02*
X466895238Y-253854819D01*
X466895238Y-253854819D02*
X466609524Y-253854819D01*
X466609524Y-253854819D02*
X466514286Y-253807200D01*
X466514286Y-253807200D02*
X466466667Y-253759580D01*
%TO.C,C27*%
X634049580Y-255162857D02*
X634097200Y-255210476D01*
X634097200Y-255210476D02*
X634144819Y-255353333D01*
X634144819Y-255353333D02*
X634144819Y-255448571D01*
X634144819Y-255448571D02*
X634097200Y-255591428D01*
X634097200Y-255591428D02*
X634001961Y-255686666D01*
X634001961Y-255686666D02*
X633906723Y-255734285D01*
X633906723Y-255734285D02*
X633716247Y-255781904D01*
X633716247Y-255781904D02*
X633573390Y-255781904D01*
X633573390Y-255781904D02*
X633382914Y-255734285D01*
X633382914Y-255734285D02*
X633287676Y-255686666D01*
X633287676Y-255686666D02*
X633192438Y-255591428D01*
X633192438Y-255591428D02*
X633144819Y-255448571D01*
X633144819Y-255448571D02*
X633144819Y-255353333D01*
X633144819Y-255353333D02*
X633192438Y-255210476D01*
X633192438Y-255210476D02*
X633240057Y-255162857D01*
X633240057Y-254781904D02*
X633192438Y-254734285D01*
X633192438Y-254734285D02*
X633144819Y-254639047D01*
X633144819Y-254639047D02*
X633144819Y-254400952D01*
X633144819Y-254400952D02*
X633192438Y-254305714D01*
X633192438Y-254305714D02*
X633240057Y-254258095D01*
X633240057Y-254258095D02*
X633335295Y-254210476D01*
X633335295Y-254210476D02*
X633430533Y-254210476D01*
X633430533Y-254210476D02*
X633573390Y-254258095D01*
X633573390Y-254258095D02*
X634144819Y-254829523D01*
X634144819Y-254829523D02*
X634144819Y-254210476D01*
X633144819Y-253877142D02*
X633144819Y-253210476D01*
X633144819Y-253210476D02*
X634144819Y-253639047D01*
%TO.C,C28*%
X640949580Y-255162857D02*
X640997200Y-255210476D01*
X640997200Y-255210476D02*
X641044819Y-255353333D01*
X641044819Y-255353333D02*
X641044819Y-255448571D01*
X641044819Y-255448571D02*
X640997200Y-255591428D01*
X640997200Y-255591428D02*
X640901961Y-255686666D01*
X640901961Y-255686666D02*
X640806723Y-255734285D01*
X640806723Y-255734285D02*
X640616247Y-255781904D01*
X640616247Y-255781904D02*
X640473390Y-255781904D01*
X640473390Y-255781904D02*
X640282914Y-255734285D01*
X640282914Y-255734285D02*
X640187676Y-255686666D01*
X640187676Y-255686666D02*
X640092438Y-255591428D01*
X640092438Y-255591428D02*
X640044819Y-255448571D01*
X640044819Y-255448571D02*
X640044819Y-255353333D01*
X640044819Y-255353333D02*
X640092438Y-255210476D01*
X640092438Y-255210476D02*
X640140057Y-255162857D01*
X640140057Y-254781904D02*
X640092438Y-254734285D01*
X640092438Y-254734285D02*
X640044819Y-254639047D01*
X640044819Y-254639047D02*
X640044819Y-254400952D01*
X640044819Y-254400952D02*
X640092438Y-254305714D01*
X640092438Y-254305714D02*
X640140057Y-254258095D01*
X640140057Y-254258095D02*
X640235295Y-254210476D01*
X640235295Y-254210476D02*
X640330533Y-254210476D01*
X640330533Y-254210476D02*
X640473390Y-254258095D01*
X640473390Y-254258095D02*
X641044819Y-254829523D01*
X641044819Y-254829523D02*
X641044819Y-254210476D01*
X640473390Y-253639047D02*
X640425771Y-253734285D01*
X640425771Y-253734285D02*
X640378152Y-253781904D01*
X640378152Y-253781904D02*
X640282914Y-253829523D01*
X640282914Y-253829523D02*
X640235295Y-253829523D01*
X640235295Y-253829523D02*
X640140057Y-253781904D01*
X640140057Y-253781904D02*
X640092438Y-253734285D01*
X640092438Y-253734285D02*
X640044819Y-253639047D01*
X640044819Y-253639047D02*
X640044819Y-253448571D01*
X640044819Y-253448571D02*
X640092438Y-253353333D01*
X640092438Y-253353333D02*
X640140057Y-253305714D01*
X640140057Y-253305714D02*
X640235295Y-253258095D01*
X640235295Y-253258095D02*
X640282914Y-253258095D01*
X640282914Y-253258095D02*
X640378152Y-253305714D01*
X640378152Y-253305714D02*
X640425771Y-253353333D01*
X640425771Y-253353333D02*
X640473390Y-253448571D01*
X640473390Y-253448571D02*
X640473390Y-253639047D01*
X640473390Y-253639047D02*
X640521009Y-253734285D01*
X640521009Y-253734285D02*
X640568628Y-253781904D01*
X640568628Y-253781904D02*
X640663866Y-253829523D01*
X640663866Y-253829523D02*
X640854342Y-253829523D01*
X640854342Y-253829523D02*
X640949580Y-253781904D01*
X640949580Y-253781904D02*
X640997200Y-253734285D01*
X640997200Y-253734285D02*
X641044819Y-253639047D01*
X641044819Y-253639047D02*
X641044819Y-253448571D01*
X641044819Y-253448571D02*
X640997200Y-253353333D01*
X640997200Y-253353333D02*
X640949580Y-253305714D01*
X640949580Y-253305714D02*
X640854342Y-253258095D01*
X640854342Y-253258095D02*
X640663866Y-253258095D01*
X640663866Y-253258095D02*
X640568628Y-253305714D01*
X640568628Y-253305714D02*
X640521009Y-253353333D01*
X640521009Y-253353333D02*
X640473390Y-253448571D01*
%TO.C,D13*%
X534085714Y-253854819D02*
X534085714Y-252854819D01*
X534085714Y-252854819D02*
X534323809Y-252854819D01*
X534323809Y-252854819D02*
X534466666Y-252902438D01*
X534466666Y-252902438D02*
X534561904Y-252997676D01*
X534561904Y-252997676D02*
X534609523Y-253092914D01*
X534609523Y-253092914D02*
X534657142Y-253283390D01*
X534657142Y-253283390D02*
X534657142Y-253426247D01*
X534657142Y-253426247D02*
X534609523Y-253616723D01*
X534609523Y-253616723D02*
X534561904Y-253711961D01*
X534561904Y-253711961D02*
X534466666Y-253807200D01*
X534466666Y-253807200D02*
X534323809Y-253854819D01*
X534323809Y-253854819D02*
X534085714Y-253854819D01*
X535609523Y-253854819D02*
X535038095Y-253854819D01*
X535323809Y-253854819D02*
X535323809Y-252854819D01*
X535323809Y-252854819D02*
X535228571Y-252997676D01*
X535228571Y-252997676D02*
X535133333Y-253092914D01*
X535133333Y-253092914D02*
X535038095Y-253140533D01*
X535942857Y-252854819D02*
X536561904Y-252854819D01*
X536561904Y-252854819D02*
X536228571Y-253235771D01*
X536228571Y-253235771D02*
X536371428Y-253235771D01*
X536371428Y-253235771D02*
X536466666Y-253283390D01*
X536466666Y-253283390D02*
X536514285Y-253331009D01*
X536514285Y-253331009D02*
X536561904Y-253426247D01*
X536561904Y-253426247D02*
X536561904Y-253664342D01*
X536561904Y-253664342D02*
X536514285Y-253759580D01*
X536514285Y-253759580D02*
X536466666Y-253807200D01*
X536466666Y-253807200D02*
X536371428Y-253854819D01*
X536371428Y-253854819D02*
X536085714Y-253854819D01*
X536085714Y-253854819D02*
X535990476Y-253807200D01*
X535990476Y-253807200D02*
X535942857Y-253759580D01*
%TO.C,C40*%
X723749580Y-255162856D02*
X723797200Y-255210475D01*
X723797200Y-255210475D02*
X723844819Y-255353332D01*
X723844819Y-255353332D02*
X723844819Y-255448570D01*
X723844819Y-255448570D02*
X723797200Y-255591427D01*
X723797200Y-255591427D02*
X723701961Y-255686665D01*
X723701961Y-255686665D02*
X723606723Y-255734284D01*
X723606723Y-255734284D02*
X723416247Y-255781903D01*
X723416247Y-255781903D02*
X723273390Y-255781903D01*
X723273390Y-255781903D02*
X723082914Y-255734284D01*
X723082914Y-255734284D02*
X722987676Y-255686665D01*
X722987676Y-255686665D02*
X722892438Y-255591427D01*
X722892438Y-255591427D02*
X722844819Y-255448570D01*
X722844819Y-255448570D02*
X722844819Y-255353332D01*
X722844819Y-255353332D02*
X722892438Y-255210475D01*
X722892438Y-255210475D02*
X722940057Y-255162856D01*
X723178152Y-254305713D02*
X723844819Y-254305713D01*
X722797200Y-254543808D02*
X723511485Y-254781903D01*
X723511485Y-254781903D02*
X723511485Y-254162856D01*
X722844819Y-253591427D02*
X722844819Y-253496189D01*
X722844819Y-253496189D02*
X722892438Y-253400951D01*
X722892438Y-253400951D02*
X722940057Y-253353332D01*
X722940057Y-253353332D02*
X723035295Y-253305713D01*
X723035295Y-253305713D02*
X723225771Y-253258094D01*
X723225771Y-253258094D02*
X723463866Y-253258094D01*
X723463866Y-253258094D02*
X723654342Y-253305713D01*
X723654342Y-253305713D02*
X723749580Y-253353332D01*
X723749580Y-253353332D02*
X723797200Y-253400951D01*
X723797200Y-253400951D02*
X723844819Y-253496189D01*
X723844819Y-253496189D02*
X723844819Y-253591427D01*
X723844819Y-253591427D02*
X723797200Y-253686665D01*
X723797200Y-253686665D02*
X723749580Y-253734284D01*
X723749580Y-253734284D02*
X723654342Y-253781903D01*
X723654342Y-253781903D02*
X723463866Y-253829522D01*
X723463866Y-253829522D02*
X723225771Y-253829522D01*
X723225771Y-253829522D02*
X723035295Y-253781903D01*
X723035295Y-253781903D02*
X722940057Y-253734284D01*
X722940057Y-253734284D02*
X722892438Y-253686665D01*
X722892438Y-253686665D02*
X722844819Y-253591427D01*
%TO.C,C22*%
X599549580Y-255162857D02*
X599597200Y-255210476D01*
X599597200Y-255210476D02*
X599644819Y-255353333D01*
X599644819Y-255353333D02*
X599644819Y-255448571D01*
X599644819Y-255448571D02*
X599597200Y-255591428D01*
X599597200Y-255591428D02*
X599501961Y-255686666D01*
X599501961Y-255686666D02*
X599406723Y-255734285D01*
X599406723Y-255734285D02*
X599216247Y-255781904D01*
X599216247Y-255781904D02*
X599073390Y-255781904D01*
X599073390Y-255781904D02*
X598882914Y-255734285D01*
X598882914Y-255734285D02*
X598787676Y-255686666D01*
X598787676Y-255686666D02*
X598692438Y-255591428D01*
X598692438Y-255591428D02*
X598644819Y-255448571D01*
X598644819Y-255448571D02*
X598644819Y-255353333D01*
X598644819Y-255353333D02*
X598692438Y-255210476D01*
X598692438Y-255210476D02*
X598740057Y-255162857D01*
X598740057Y-254781904D02*
X598692438Y-254734285D01*
X598692438Y-254734285D02*
X598644819Y-254639047D01*
X598644819Y-254639047D02*
X598644819Y-254400952D01*
X598644819Y-254400952D02*
X598692438Y-254305714D01*
X598692438Y-254305714D02*
X598740057Y-254258095D01*
X598740057Y-254258095D02*
X598835295Y-254210476D01*
X598835295Y-254210476D02*
X598930533Y-254210476D01*
X598930533Y-254210476D02*
X599073390Y-254258095D01*
X599073390Y-254258095D02*
X599644819Y-254829523D01*
X599644819Y-254829523D02*
X599644819Y-254210476D01*
X598740057Y-253829523D02*
X598692438Y-253781904D01*
X598692438Y-253781904D02*
X598644819Y-253686666D01*
X598644819Y-253686666D02*
X598644819Y-253448571D01*
X598644819Y-253448571D02*
X598692438Y-253353333D01*
X598692438Y-253353333D02*
X598740057Y-253305714D01*
X598740057Y-253305714D02*
X598835295Y-253258095D01*
X598835295Y-253258095D02*
X598930533Y-253258095D01*
X598930533Y-253258095D02*
X599073390Y-253305714D01*
X599073390Y-253305714D02*
X599644819Y-253877142D01*
X599644819Y-253877142D02*
X599644819Y-253258095D01*
%TO.C,D18*%
X568585714Y-253854819D02*
X568585714Y-252854819D01*
X568585714Y-252854819D02*
X568823809Y-252854819D01*
X568823809Y-252854819D02*
X568966666Y-252902438D01*
X568966666Y-252902438D02*
X569061904Y-252997676D01*
X569061904Y-252997676D02*
X569109523Y-253092914D01*
X569109523Y-253092914D02*
X569157142Y-253283390D01*
X569157142Y-253283390D02*
X569157142Y-253426247D01*
X569157142Y-253426247D02*
X569109523Y-253616723D01*
X569109523Y-253616723D02*
X569061904Y-253711961D01*
X569061904Y-253711961D02*
X568966666Y-253807200D01*
X568966666Y-253807200D02*
X568823809Y-253854819D01*
X568823809Y-253854819D02*
X568585714Y-253854819D01*
X570109523Y-253854819D02*
X569538095Y-253854819D01*
X569823809Y-253854819D02*
X569823809Y-252854819D01*
X569823809Y-252854819D02*
X569728571Y-252997676D01*
X569728571Y-252997676D02*
X569633333Y-253092914D01*
X569633333Y-253092914D02*
X569538095Y-253140533D01*
X570680952Y-253283390D02*
X570585714Y-253235771D01*
X570585714Y-253235771D02*
X570538095Y-253188152D01*
X570538095Y-253188152D02*
X570490476Y-253092914D01*
X570490476Y-253092914D02*
X570490476Y-253045295D01*
X570490476Y-253045295D02*
X570538095Y-252950057D01*
X570538095Y-252950057D02*
X570585714Y-252902438D01*
X570585714Y-252902438D02*
X570680952Y-252854819D01*
X570680952Y-252854819D02*
X570871428Y-252854819D01*
X570871428Y-252854819D02*
X570966666Y-252902438D01*
X570966666Y-252902438D02*
X571014285Y-252950057D01*
X571014285Y-252950057D02*
X571061904Y-253045295D01*
X571061904Y-253045295D02*
X571061904Y-253092914D01*
X571061904Y-253092914D02*
X571014285Y-253188152D01*
X571014285Y-253188152D02*
X570966666Y-253235771D01*
X570966666Y-253235771D02*
X570871428Y-253283390D01*
X570871428Y-253283390D02*
X570680952Y-253283390D01*
X570680952Y-253283390D02*
X570585714Y-253331009D01*
X570585714Y-253331009D02*
X570538095Y-253378628D01*
X570538095Y-253378628D02*
X570490476Y-253473866D01*
X570490476Y-253473866D02*
X570490476Y-253664342D01*
X570490476Y-253664342D02*
X570538095Y-253759580D01*
X570538095Y-253759580D02*
X570585714Y-253807200D01*
X570585714Y-253807200D02*
X570680952Y-253854819D01*
X570680952Y-253854819D02*
X570871428Y-253854819D01*
X570871428Y-253854819D02*
X570966666Y-253807200D01*
X570966666Y-253807200D02*
X571014285Y-253759580D01*
X571014285Y-253759580D02*
X571061904Y-253664342D01*
X571061904Y-253664342D02*
X571061904Y-253473866D01*
X571061904Y-253473866D02*
X571014285Y-253378628D01*
X571014285Y-253378628D02*
X570966666Y-253331009D01*
X570966666Y-253331009D02*
X570871428Y-253283390D01*
%TO.C,D29*%
X644485714Y-253854819D02*
X644485714Y-252854819D01*
X644485714Y-252854819D02*
X644723809Y-252854819D01*
X644723809Y-252854819D02*
X644866666Y-252902438D01*
X644866666Y-252902438D02*
X644961904Y-252997676D01*
X644961904Y-252997676D02*
X645009523Y-253092914D01*
X645009523Y-253092914D02*
X645057142Y-253283390D01*
X645057142Y-253283390D02*
X645057142Y-253426247D01*
X645057142Y-253426247D02*
X645009523Y-253616723D01*
X645009523Y-253616723D02*
X644961904Y-253711961D01*
X644961904Y-253711961D02*
X644866666Y-253807200D01*
X644866666Y-253807200D02*
X644723809Y-253854819D01*
X644723809Y-253854819D02*
X644485714Y-253854819D01*
X645438095Y-252950057D02*
X645485714Y-252902438D01*
X645485714Y-252902438D02*
X645580952Y-252854819D01*
X645580952Y-252854819D02*
X645819047Y-252854819D01*
X645819047Y-252854819D02*
X645914285Y-252902438D01*
X645914285Y-252902438D02*
X645961904Y-252950057D01*
X645961904Y-252950057D02*
X646009523Y-253045295D01*
X646009523Y-253045295D02*
X646009523Y-253140533D01*
X646009523Y-253140533D02*
X645961904Y-253283390D01*
X645961904Y-253283390D02*
X645390476Y-253854819D01*
X645390476Y-253854819D02*
X646009523Y-253854819D01*
X646485714Y-253854819D02*
X646676190Y-253854819D01*
X646676190Y-253854819D02*
X646771428Y-253807200D01*
X646771428Y-253807200D02*
X646819047Y-253759580D01*
X646819047Y-253759580D02*
X646914285Y-253616723D01*
X646914285Y-253616723D02*
X646961904Y-253426247D01*
X646961904Y-253426247D02*
X646961904Y-253045295D01*
X646961904Y-253045295D02*
X646914285Y-252950057D01*
X646914285Y-252950057D02*
X646866666Y-252902438D01*
X646866666Y-252902438D02*
X646771428Y-252854819D01*
X646771428Y-252854819D02*
X646580952Y-252854819D01*
X646580952Y-252854819D02*
X646485714Y-252902438D01*
X646485714Y-252902438D02*
X646438095Y-252950057D01*
X646438095Y-252950057D02*
X646390476Y-253045295D01*
X646390476Y-253045295D02*
X646390476Y-253283390D01*
X646390476Y-253283390D02*
X646438095Y-253378628D01*
X646438095Y-253378628D02*
X646485714Y-253426247D01*
X646485714Y-253426247D02*
X646580952Y-253473866D01*
X646580952Y-253473866D02*
X646771428Y-253473866D01*
X646771428Y-253473866D02*
X646866666Y-253426247D01*
X646866666Y-253426247D02*
X646914285Y-253378628D01*
X646914285Y-253378628D02*
X646961904Y-253283390D01*
%TO.C,D27*%
X630685714Y-253854819D02*
X630685714Y-252854819D01*
X630685714Y-252854819D02*
X630923809Y-252854819D01*
X630923809Y-252854819D02*
X631066666Y-252902438D01*
X631066666Y-252902438D02*
X631161904Y-252997676D01*
X631161904Y-252997676D02*
X631209523Y-253092914D01*
X631209523Y-253092914D02*
X631257142Y-253283390D01*
X631257142Y-253283390D02*
X631257142Y-253426247D01*
X631257142Y-253426247D02*
X631209523Y-253616723D01*
X631209523Y-253616723D02*
X631161904Y-253711961D01*
X631161904Y-253711961D02*
X631066666Y-253807200D01*
X631066666Y-253807200D02*
X630923809Y-253854819D01*
X630923809Y-253854819D02*
X630685714Y-253854819D01*
X631638095Y-252950057D02*
X631685714Y-252902438D01*
X631685714Y-252902438D02*
X631780952Y-252854819D01*
X631780952Y-252854819D02*
X632019047Y-252854819D01*
X632019047Y-252854819D02*
X632114285Y-252902438D01*
X632114285Y-252902438D02*
X632161904Y-252950057D01*
X632161904Y-252950057D02*
X632209523Y-253045295D01*
X632209523Y-253045295D02*
X632209523Y-253140533D01*
X632209523Y-253140533D02*
X632161904Y-253283390D01*
X632161904Y-253283390D02*
X631590476Y-253854819D01*
X631590476Y-253854819D02*
X632209523Y-253854819D01*
X632542857Y-252854819D02*
X633209523Y-252854819D01*
X633209523Y-252854819D02*
X632780952Y-253854819D01*
%TO.C,C33*%
X675449580Y-255182857D02*
X675497200Y-255230476D01*
X675497200Y-255230476D02*
X675544819Y-255373333D01*
X675544819Y-255373333D02*
X675544819Y-255468571D01*
X675544819Y-255468571D02*
X675497200Y-255611428D01*
X675497200Y-255611428D02*
X675401961Y-255706666D01*
X675401961Y-255706666D02*
X675306723Y-255754285D01*
X675306723Y-255754285D02*
X675116247Y-255801904D01*
X675116247Y-255801904D02*
X674973390Y-255801904D01*
X674973390Y-255801904D02*
X674782914Y-255754285D01*
X674782914Y-255754285D02*
X674687676Y-255706666D01*
X674687676Y-255706666D02*
X674592438Y-255611428D01*
X674592438Y-255611428D02*
X674544819Y-255468571D01*
X674544819Y-255468571D02*
X674544819Y-255373333D01*
X674544819Y-255373333D02*
X674592438Y-255230476D01*
X674592438Y-255230476D02*
X674640057Y-255182857D01*
X674544819Y-254849523D02*
X674544819Y-254230476D01*
X674544819Y-254230476D02*
X674925771Y-254563809D01*
X674925771Y-254563809D02*
X674925771Y-254420952D01*
X674925771Y-254420952D02*
X674973390Y-254325714D01*
X674973390Y-254325714D02*
X675021009Y-254278095D01*
X675021009Y-254278095D02*
X675116247Y-254230476D01*
X675116247Y-254230476D02*
X675354342Y-254230476D01*
X675354342Y-254230476D02*
X675449580Y-254278095D01*
X675449580Y-254278095D02*
X675497200Y-254325714D01*
X675497200Y-254325714D02*
X675544819Y-254420952D01*
X675544819Y-254420952D02*
X675544819Y-254706666D01*
X675544819Y-254706666D02*
X675497200Y-254801904D01*
X675497200Y-254801904D02*
X675449580Y-254849523D01*
X674544819Y-253897142D02*
X674544819Y-253278095D01*
X674544819Y-253278095D02*
X674925771Y-253611428D01*
X674925771Y-253611428D02*
X674925771Y-253468571D01*
X674925771Y-253468571D02*
X674973390Y-253373333D01*
X674973390Y-253373333D02*
X675021009Y-253325714D01*
X675021009Y-253325714D02*
X675116247Y-253278095D01*
X675116247Y-253278095D02*
X675354342Y-253278095D01*
X675354342Y-253278095D02*
X675449580Y-253325714D01*
X675449580Y-253325714D02*
X675497200Y-253373333D01*
X675497200Y-253373333D02*
X675544819Y-253468571D01*
X675544819Y-253468571D02*
X675544819Y-253754285D01*
X675544819Y-253754285D02*
X675497200Y-253849523D01*
X675497200Y-253849523D02*
X675449580Y-253897142D01*
%TO.C,D30*%
X651385714Y-253854819D02*
X651385714Y-252854819D01*
X651385714Y-252854819D02*
X651623809Y-252854819D01*
X651623809Y-252854819D02*
X651766666Y-252902438D01*
X651766666Y-252902438D02*
X651861904Y-252997676D01*
X651861904Y-252997676D02*
X651909523Y-253092914D01*
X651909523Y-253092914D02*
X651957142Y-253283390D01*
X651957142Y-253283390D02*
X651957142Y-253426247D01*
X651957142Y-253426247D02*
X651909523Y-253616723D01*
X651909523Y-253616723D02*
X651861904Y-253711961D01*
X651861904Y-253711961D02*
X651766666Y-253807200D01*
X651766666Y-253807200D02*
X651623809Y-253854819D01*
X651623809Y-253854819D02*
X651385714Y-253854819D01*
X652290476Y-252854819D02*
X652909523Y-252854819D01*
X652909523Y-252854819D02*
X652576190Y-253235771D01*
X652576190Y-253235771D02*
X652719047Y-253235771D01*
X652719047Y-253235771D02*
X652814285Y-253283390D01*
X652814285Y-253283390D02*
X652861904Y-253331009D01*
X652861904Y-253331009D02*
X652909523Y-253426247D01*
X652909523Y-253426247D02*
X652909523Y-253664342D01*
X652909523Y-253664342D02*
X652861904Y-253759580D01*
X652861904Y-253759580D02*
X652814285Y-253807200D01*
X652814285Y-253807200D02*
X652719047Y-253854819D01*
X652719047Y-253854819D02*
X652433333Y-253854819D01*
X652433333Y-253854819D02*
X652338095Y-253807200D01*
X652338095Y-253807200D02*
X652290476Y-253759580D01*
X653528571Y-252854819D02*
X653623809Y-252854819D01*
X653623809Y-252854819D02*
X653719047Y-252902438D01*
X653719047Y-252902438D02*
X653766666Y-252950057D01*
X653766666Y-252950057D02*
X653814285Y-253045295D01*
X653814285Y-253045295D02*
X653861904Y-253235771D01*
X653861904Y-253235771D02*
X653861904Y-253473866D01*
X653861904Y-253473866D02*
X653814285Y-253664342D01*
X653814285Y-253664342D02*
X653766666Y-253759580D01*
X653766666Y-253759580D02*
X653719047Y-253807200D01*
X653719047Y-253807200D02*
X653623809Y-253854819D01*
X653623809Y-253854819D02*
X653528571Y-253854819D01*
X653528571Y-253854819D02*
X653433333Y-253807200D01*
X653433333Y-253807200D02*
X653385714Y-253759580D01*
X653385714Y-253759580D02*
X653338095Y-253664342D01*
X653338095Y-253664342D02*
X653290476Y-253473866D01*
X653290476Y-253473866D02*
X653290476Y-253235771D01*
X653290476Y-253235771D02*
X653338095Y-253045295D01*
X653338095Y-253045295D02*
X653385714Y-252950057D01*
X653385714Y-252950057D02*
X653433333Y-252902438D01*
X653433333Y-252902438D02*
X653528571Y-252854819D01*
%TO.C,D23*%
X603085714Y-253854819D02*
X603085714Y-252854819D01*
X603085714Y-252854819D02*
X603323809Y-252854819D01*
X603323809Y-252854819D02*
X603466666Y-252902438D01*
X603466666Y-252902438D02*
X603561904Y-252997676D01*
X603561904Y-252997676D02*
X603609523Y-253092914D01*
X603609523Y-253092914D02*
X603657142Y-253283390D01*
X603657142Y-253283390D02*
X603657142Y-253426247D01*
X603657142Y-253426247D02*
X603609523Y-253616723D01*
X603609523Y-253616723D02*
X603561904Y-253711961D01*
X603561904Y-253711961D02*
X603466666Y-253807200D01*
X603466666Y-253807200D02*
X603323809Y-253854819D01*
X603323809Y-253854819D02*
X603085714Y-253854819D01*
X604038095Y-252950057D02*
X604085714Y-252902438D01*
X604085714Y-252902438D02*
X604180952Y-252854819D01*
X604180952Y-252854819D02*
X604419047Y-252854819D01*
X604419047Y-252854819D02*
X604514285Y-252902438D01*
X604514285Y-252902438D02*
X604561904Y-252950057D01*
X604561904Y-252950057D02*
X604609523Y-253045295D01*
X604609523Y-253045295D02*
X604609523Y-253140533D01*
X604609523Y-253140533D02*
X604561904Y-253283390D01*
X604561904Y-253283390D02*
X603990476Y-253854819D01*
X603990476Y-253854819D02*
X604609523Y-253854819D01*
X604942857Y-252854819D02*
X605561904Y-252854819D01*
X605561904Y-252854819D02*
X605228571Y-253235771D01*
X605228571Y-253235771D02*
X605371428Y-253235771D01*
X605371428Y-253235771D02*
X605466666Y-253283390D01*
X605466666Y-253283390D02*
X605514285Y-253331009D01*
X605514285Y-253331009D02*
X605561904Y-253426247D01*
X605561904Y-253426247D02*
X605561904Y-253664342D01*
X605561904Y-253664342D02*
X605514285Y-253759580D01*
X605514285Y-253759580D02*
X605466666Y-253807200D01*
X605466666Y-253807200D02*
X605371428Y-253854819D01*
X605371428Y-253854819D02*
X605085714Y-253854819D01*
X605085714Y-253854819D02*
X604990476Y-253807200D01*
X604990476Y-253807200D02*
X604942857Y-253759580D01*
%TO.C,C19*%
X578849580Y-255162857D02*
X578897200Y-255210476D01*
X578897200Y-255210476D02*
X578944819Y-255353333D01*
X578944819Y-255353333D02*
X578944819Y-255448571D01*
X578944819Y-255448571D02*
X578897200Y-255591428D01*
X578897200Y-255591428D02*
X578801961Y-255686666D01*
X578801961Y-255686666D02*
X578706723Y-255734285D01*
X578706723Y-255734285D02*
X578516247Y-255781904D01*
X578516247Y-255781904D02*
X578373390Y-255781904D01*
X578373390Y-255781904D02*
X578182914Y-255734285D01*
X578182914Y-255734285D02*
X578087676Y-255686666D01*
X578087676Y-255686666D02*
X577992438Y-255591428D01*
X577992438Y-255591428D02*
X577944819Y-255448571D01*
X577944819Y-255448571D02*
X577944819Y-255353333D01*
X577944819Y-255353333D02*
X577992438Y-255210476D01*
X577992438Y-255210476D02*
X578040057Y-255162857D01*
X578944819Y-254210476D02*
X578944819Y-254781904D01*
X578944819Y-254496190D02*
X577944819Y-254496190D01*
X577944819Y-254496190D02*
X578087676Y-254591428D01*
X578087676Y-254591428D02*
X578182914Y-254686666D01*
X578182914Y-254686666D02*
X578230533Y-254781904D01*
X578944819Y-253734285D02*
X578944819Y-253543809D01*
X578944819Y-253543809D02*
X578897200Y-253448571D01*
X578897200Y-253448571D02*
X578849580Y-253400952D01*
X578849580Y-253400952D02*
X578706723Y-253305714D01*
X578706723Y-253305714D02*
X578516247Y-253258095D01*
X578516247Y-253258095D02*
X578135295Y-253258095D01*
X578135295Y-253258095D02*
X578040057Y-253305714D01*
X578040057Y-253305714D02*
X577992438Y-253353333D01*
X577992438Y-253353333D02*
X577944819Y-253448571D01*
X577944819Y-253448571D02*
X577944819Y-253639047D01*
X577944819Y-253639047D02*
X577992438Y-253734285D01*
X577992438Y-253734285D02*
X578040057Y-253781904D01*
X578040057Y-253781904D02*
X578135295Y-253829523D01*
X578135295Y-253829523D02*
X578373390Y-253829523D01*
X578373390Y-253829523D02*
X578468628Y-253781904D01*
X578468628Y-253781904D02*
X578516247Y-253734285D01*
X578516247Y-253734285D02*
X578563866Y-253639047D01*
X578563866Y-253639047D02*
X578563866Y-253448571D01*
X578563866Y-253448571D02*
X578516247Y-253353333D01*
X578516247Y-253353333D02*
X578468628Y-253305714D01*
X578468628Y-253305714D02*
X578373390Y-253258095D01*
%TO.C,D2*%
X458661905Y-253854819D02*
X458661905Y-252854819D01*
X458661905Y-252854819D02*
X458900000Y-252854819D01*
X458900000Y-252854819D02*
X459042857Y-252902438D01*
X459042857Y-252902438D02*
X459138095Y-252997676D01*
X459138095Y-252997676D02*
X459185714Y-253092914D01*
X459185714Y-253092914D02*
X459233333Y-253283390D01*
X459233333Y-253283390D02*
X459233333Y-253426247D01*
X459233333Y-253426247D02*
X459185714Y-253616723D01*
X459185714Y-253616723D02*
X459138095Y-253711961D01*
X459138095Y-253711961D02*
X459042857Y-253807200D01*
X459042857Y-253807200D02*
X458900000Y-253854819D01*
X458900000Y-253854819D02*
X458661905Y-253854819D01*
X459614286Y-252950057D02*
X459661905Y-252902438D01*
X459661905Y-252902438D02*
X459757143Y-252854819D01*
X459757143Y-252854819D02*
X459995238Y-252854819D01*
X459995238Y-252854819D02*
X460090476Y-252902438D01*
X460090476Y-252902438D02*
X460138095Y-252950057D01*
X460138095Y-252950057D02*
X460185714Y-253045295D01*
X460185714Y-253045295D02*
X460185714Y-253140533D01*
X460185714Y-253140533D02*
X460138095Y-253283390D01*
X460138095Y-253283390D02*
X459566667Y-253854819D01*
X459566667Y-253854819D02*
X460185714Y-253854819D01*
%TO.C,C5*%
X482249580Y-254686666D02*
X482297200Y-254734285D01*
X482297200Y-254734285D02*
X482344819Y-254877142D01*
X482344819Y-254877142D02*
X482344819Y-254972380D01*
X482344819Y-254972380D02*
X482297200Y-255115237D01*
X482297200Y-255115237D02*
X482201961Y-255210475D01*
X482201961Y-255210475D02*
X482106723Y-255258094D01*
X482106723Y-255258094D02*
X481916247Y-255305713D01*
X481916247Y-255305713D02*
X481773390Y-255305713D01*
X481773390Y-255305713D02*
X481582914Y-255258094D01*
X481582914Y-255258094D02*
X481487676Y-255210475D01*
X481487676Y-255210475D02*
X481392438Y-255115237D01*
X481392438Y-255115237D02*
X481344819Y-254972380D01*
X481344819Y-254972380D02*
X481344819Y-254877142D01*
X481344819Y-254877142D02*
X481392438Y-254734285D01*
X481392438Y-254734285D02*
X481440057Y-254686666D01*
X481344819Y-253781904D02*
X481344819Y-254258094D01*
X481344819Y-254258094D02*
X481821009Y-254305713D01*
X481821009Y-254305713D02*
X481773390Y-254258094D01*
X481773390Y-254258094D02*
X481725771Y-254162856D01*
X481725771Y-254162856D02*
X481725771Y-253924761D01*
X481725771Y-253924761D02*
X481773390Y-253829523D01*
X481773390Y-253829523D02*
X481821009Y-253781904D01*
X481821009Y-253781904D02*
X481916247Y-253734285D01*
X481916247Y-253734285D02*
X482154342Y-253734285D01*
X482154342Y-253734285D02*
X482249580Y-253781904D01*
X482249580Y-253781904D02*
X482297200Y-253829523D01*
X482297200Y-253829523D02*
X482344819Y-253924761D01*
X482344819Y-253924761D02*
X482344819Y-254162856D01*
X482344819Y-254162856D02*
X482297200Y-254258094D01*
X482297200Y-254258094D02*
X482249580Y-254305713D01*
%TO.C,D15*%
X547885714Y-253854819D02*
X547885714Y-252854819D01*
X547885714Y-252854819D02*
X548123809Y-252854819D01*
X548123809Y-252854819D02*
X548266666Y-252902438D01*
X548266666Y-252902438D02*
X548361904Y-252997676D01*
X548361904Y-252997676D02*
X548409523Y-253092914D01*
X548409523Y-253092914D02*
X548457142Y-253283390D01*
X548457142Y-253283390D02*
X548457142Y-253426247D01*
X548457142Y-253426247D02*
X548409523Y-253616723D01*
X548409523Y-253616723D02*
X548361904Y-253711961D01*
X548361904Y-253711961D02*
X548266666Y-253807200D01*
X548266666Y-253807200D02*
X548123809Y-253854819D01*
X548123809Y-253854819D02*
X547885714Y-253854819D01*
X549409523Y-253854819D02*
X548838095Y-253854819D01*
X549123809Y-253854819D02*
X549123809Y-252854819D01*
X549123809Y-252854819D02*
X549028571Y-252997676D01*
X549028571Y-252997676D02*
X548933333Y-253092914D01*
X548933333Y-253092914D02*
X548838095Y-253140533D01*
X550314285Y-252854819D02*
X549838095Y-252854819D01*
X549838095Y-252854819D02*
X549790476Y-253331009D01*
X549790476Y-253331009D02*
X549838095Y-253283390D01*
X549838095Y-253283390D02*
X549933333Y-253235771D01*
X549933333Y-253235771D02*
X550171428Y-253235771D01*
X550171428Y-253235771D02*
X550266666Y-253283390D01*
X550266666Y-253283390D02*
X550314285Y-253331009D01*
X550314285Y-253331009D02*
X550361904Y-253426247D01*
X550361904Y-253426247D02*
X550361904Y-253664342D01*
X550361904Y-253664342D02*
X550314285Y-253759580D01*
X550314285Y-253759580D02*
X550266666Y-253807200D01*
X550266666Y-253807200D02*
X550171428Y-253854819D01*
X550171428Y-253854819D02*
X549933333Y-253854819D01*
X549933333Y-253854819D02*
X549838095Y-253807200D01*
X549838095Y-253807200D02*
X549790476Y-253759580D01*
%TO.C,C32*%
X668549580Y-255162856D02*
X668597200Y-255210475D01*
X668597200Y-255210475D02*
X668644819Y-255353332D01*
X668644819Y-255353332D02*
X668644819Y-255448570D01*
X668644819Y-255448570D02*
X668597200Y-255591427D01*
X668597200Y-255591427D02*
X668501961Y-255686665D01*
X668501961Y-255686665D02*
X668406723Y-255734284D01*
X668406723Y-255734284D02*
X668216247Y-255781903D01*
X668216247Y-255781903D02*
X668073390Y-255781903D01*
X668073390Y-255781903D02*
X667882914Y-255734284D01*
X667882914Y-255734284D02*
X667787676Y-255686665D01*
X667787676Y-255686665D02*
X667692438Y-255591427D01*
X667692438Y-255591427D02*
X667644819Y-255448570D01*
X667644819Y-255448570D02*
X667644819Y-255353332D01*
X667644819Y-255353332D02*
X667692438Y-255210475D01*
X667692438Y-255210475D02*
X667740057Y-255162856D01*
X667644819Y-254829522D02*
X667644819Y-254210475D01*
X667644819Y-254210475D02*
X668025771Y-254543808D01*
X668025771Y-254543808D02*
X668025771Y-254400951D01*
X668025771Y-254400951D02*
X668073390Y-254305713D01*
X668073390Y-254305713D02*
X668121009Y-254258094D01*
X668121009Y-254258094D02*
X668216247Y-254210475D01*
X668216247Y-254210475D02*
X668454342Y-254210475D01*
X668454342Y-254210475D02*
X668549580Y-254258094D01*
X668549580Y-254258094D02*
X668597200Y-254305713D01*
X668597200Y-254305713D02*
X668644819Y-254400951D01*
X668644819Y-254400951D02*
X668644819Y-254686665D01*
X668644819Y-254686665D02*
X668597200Y-254781903D01*
X668597200Y-254781903D02*
X668549580Y-254829522D01*
X667740057Y-253829522D02*
X667692438Y-253781903D01*
X667692438Y-253781903D02*
X667644819Y-253686665D01*
X667644819Y-253686665D02*
X667644819Y-253448570D01*
X667644819Y-253448570D02*
X667692438Y-253353332D01*
X667692438Y-253353332D02*
X667740057Y-253305713D01*
X667740057Y-253305713D02*
X667835295Y-253258094D01*
X667835295Y-253258094D02*
X667930533Y-253258094D01*
X667930533Y-253258094D02*
X668073390Y-253305713D01*
X668073390Y-253305713D02*
X668644819Y-253877141D01*
X668644819Y-253877141D02*
X668644819Y-253258094D01*
%TO.C,C14*%
X544349580Y-255162856D02*
X544397200Y-255210475D01*
X544397200Y-255210475D02*
X544444819Y-255353332D01*
X544444819Y-255353332D02*
X544444819Y-255448570D01*
X544444819Y-255448570D02*
X544397200Y-255591427D01*
X544397200Y-255591427D02*
X544301961Y-255686665D01*
X544301961Y-255686665D02*
X544206723Y-255734284D01*
X544206723Y-255734284D02*
X544016247Y-255781903D01*
X544016247Y-255781903D02*
X543873390Y-255781903D01*
X543873390Y-255781903D02*
X543682914Y-255734284D01*
X543682914Y-255734284D02*
X543587676Y-255686665D01*
X543587676Y-255686665D02*
X543492438Y-255591427D01*
X543492438Y-255591427D02*
X543444819Y-255448570D01*
X543444819Y-255448570D02*
X543444819Y-255353332D01*
X543444819Y-255353332D02*
X543492438Y-255210475D01*
X543492438Y-255210475D02*
X543540057Y-255162856D01*
X544444819Y-254210475D02*
X544444819Y-254781903D01*
X544444819Y-254496189D02*
X543444819Y-254496189D01*
X543444819Y-254496189D02*
X543587676Y-254591427D01*
X543587676Y-254591427D02*
X543682914Y-254686665D01*
X543682914Y-254686665D02*
X543730533Y-254781903D01*
X543778152Y-253353332D02*
X544444819Y-253353332D01*
X543397200Y-253591427D02*
X544111485Y-253829522D01*
X544111485Y-253829522D02*
X544111485Y-253210475D01*
%TO.C,C13*%
X537449580Y-255142857D02*
X537497200Y-255190476D01*
X537497200Y-255190476D02*
X537544819Y-255333333D01*
X537544819Y-255333333D02*
X537544819Y-255428571D01*
X537544819Y-255428571D02*
X537497200Y-255571428D01*
X537497200Y-255571428D02*
X537401961Y-255666666D01*
X537401961Y-255666666D02*
X537306723Y-255714285D01*
X537306723Y-255714285D02*
X537116247Y-255761904D01*
X537116247Y-255761904D02*
X536973390Y-255761904D01*
X536973390Y-255761904D02*
X536782914Y-255714285D01*
X536782914Y-255714285D02*
X536687676Y-255666666D01*
X536687676Y-255666666D02*
X536592438Y-255571428D01*
X536592438Y-255571428D02*
X536544819Y-255428571D01*
X536544819Y-255428571D02*
X536544819Y-255333333D01*
X536544819Y-255333333D02*
X536592438Y-255190476D01*
X536592438Y-255190476D02*
X536640057Y-255142857D01*
X537544819Y-254190476D02*
X537544819Y-254761904D01*
X537544819Y-254476190D02*
X536544819Y-254476190D01*
X536544819Y-254476190D02*
X536687676Y-254571428D01*
X536687676Y-254571428D02*
X536782914Y-254666666D01*
X536782914Y-254666666D02*
X536830533Y-254761904D01*
X536544819Y-253857142D02*
X536544819Y-253238095D01*
X536544819Y-253238095D02*
X536925771Y-253571428D01*
X536925771Y-253571428D02*
X536925771Y-253428571D01*
X536925771Y-253428571D02*
X536973390Y-253333333D01*
X536973390Y-253333333D02*
X537021009Y-253285714D01*
X537021009Y-253285714D02*
X537116247Y-253238095D01*
X537116247Y-253238095D02*
X537354342Y-253238095D01*
X537354342Y-253238095D02*
X537449580Y-253285714D01*
X537449580Y-253285714D02*
X537497200Y-253333333D01*
X537497200Y-253333333D02*
X537544819Y-253428571D01*
X537544819Y-253428571D02*
X537544819Y-253714285D01*
X537544819Y-253714285D02*
X537497200Y-253809523D01*
X537497200Y-253809523D02*
X537449580Y-253857142D01*
%TO.C,C25*%
X620249580Y-255182857D02*
X620297200Y-255230476D01*
X620297200Y-255230476D02*
X620344819Y-255373333D01*
X620344819Y-255373333D02*
X620344819Y-255468571D01*
X620344819Y-255468571D02*
X620297200Y-255611428D01*
X620297200Y-255611428D02*
X620201961Y-255706666D01*
X620201961Y-255706666D02*
X620106723Y-255754285D01*
X620106723Y-255754285D02*
X619916247Y-255801904D01*
X619916247Y-255801904D02*
X619773390Y-255801904D01*
X619773390Y-255801904D02*
X619582914Y-255754285D01*
X619582914Y-255754285D02*
X619487676Y-255706666D01*
X619487676Y-255706666D02*
X619392438Y-255611428D01*
X619392438Y-255611428D02*
X619344819Y-255468571D01*
X619344819Y-255468571D02*
X619344819Y-255373333D01*
X619344819Y-255373333D02*
X619392438Y-255230476D01*
X619392438Y-255230476D02*
X619440057Y-255182857D01*
X619440057Y-254801904D02*
X619392438Y-254754285D01*
X619392438Y-254754285D02*
X619344819Y-254659047D01*
X619344819Y-254659047D02*
X619344819Y-254420952D01*
X619344819Y-254420952D02*
X619392438Y-254325714D01*
X619392438Y-254325714D02*
X619440057Y-254278095D01*
X619440057Y-254278095D02*
X619535295Y-254230476D01*
X619535295Y-254230476D02*
X619630533Y-254230476D01*
X619630533Y-254230476D02*
X619773390Y-254278095D01*
X619773390Y-254278095D02*
X620344819Y-254849523D01*
X620344819Y-254849523D02*
X620344819Y-254230476D01*
X619344819Y-253325714D02*
X619344819Y-253801904D01*
X619344819Y-253801904D02*
X619821009Y-253849523D01*
X619821009Y-253849523D02*
X619773390Y-253801904D01*
X619773390Y-253801904D02*
X619725771Y-253706666D01*
X619725771Y-253706666D02*
X619725771Y-253468571D01*
X619725771Y-253468571D02*
X619773390Y-253373333D01*
X619773390Y-253373333D02*
X619821009Y-253325714D01*
X619821009Y-253325714D02*
X619916247Y-253278095D01*
X619916247Y-253278095D02*
X620154342Y-253278095D01*
X620154342Y-253278095D02*
X620249580Y-253325714D01*
X620249580Y-253325714D02*
X620297200Y-253373333D01*
X620297200Y-253373333D02*
X620344819Y-253468571D01*
X620344819Y-253468571D02*
X620344819Y-253706666D01*
X620344819Y-253706666D02*
X620297200Y-253801904D01*
X620297200Y-253801904D02*
X620249580Y-253849523D01*
%TO.C,D39*%
X713485714Y-253854819D02*
X713485714Y-252854819D01*
X713485714Y-252854819D02*
X713723809Y-252854819D01*
X713723809Y-252854819D02*
X713866666Y-252902438D01*
X713866666Y-252902438D02*
X713961904Y-252997676D01*
X713961904Y-252997676D02*
X714009523Y-253092914D01*
X714009523Y-253092914D02*
X714057142Y-253283390D01*
X714057142Y-253283390D02*
X714057142Y-253426247D01*
X714057142Y-253426247D02*
X714009523Y-253616723D01*
X714009523Y-253616723D02*
X713961904Y-253711961D01*
X713961904Y-253711961D02*
X713866666Y-253807200D01*
X713866666Y-253807200D02*
X713723809Y-253854819D01*
X713723809Y-253854819D02*
X713485714Y-253854819D01*
X714390476Y-252854819D02*
X715009523Y-252854819D01*
X715009523Y-252854819D02*
X714676190Y-253235771D01*
X714676190Y-253235771D02*
X714819047Y-253235771D01*
X714819047Y-253235771D02*
X714914285Y-253283390D01*
X714914285Y-253283390D02*
X714961904Y-253331009D01*
X714961904Y-253331009D02*
X715009523Y-253426247D01*
X715009523Y-253426247D02*
X715009523Y-253664342D01*
X715009523Y-253664342D02*
X714961904Y-253759580D01*
X714961904Y-253759580D02*
X714914285Y-253807200D01*
X714914285Y-253807200D02*
X714819047Y-253854819D01*
X714819047Y-253854819D02*
X714533333Y-253854819D01*
X714533333Y-253854819D02*
X714438095Y-253807200D01*
X714438095Y-253807200D02*
X714390476Y-253759580D01*
X715485714Y-253854819D02*
X715676190Y-253854819D01*
X715676190Y-253854819D02*
X715771428Y-253807200D01*
X715771428Y-253807200D02*
X715819047Y-253759580D01*
X715819047Y-253759580D02*
X715914285Y-253616723D01*
X715914285Y-253616723D02*
X715961904Y-253426247D01*
X715961904Y-253426247D02*
X715961904Y-253045295D01*
X715961904Y-253045295D02*
X715914285Y-252950057D01*
X715914285Y-252950057D02*
X715866666Y-252902438D01*
X715866666Y-252902438D02*
X715771428Y-252854819D01*
X715771428Y-252854819D02*
X715580952Y-252854819D01*
X715580952Y-252854819D02*
X715485714Y-252902438D01*
X715485714Y-252902438D02*
X715438095Y-252950057D01*
X715438095Y-252950057D02*
X715390476Y-253045295D01*
X715390476Y-253045295D02*
X715390476Y-253283390D01*
X715390476Y-253283390D02*
X715438095Y-253378628D01*
X715438095Y-253378628D02*
X715485714Y-253426247D01*
X715485714Y-253426247D02*
X715580952Y-253473866D01*
X715580952Y-253473866D02*
X715771428Y-253473866D01*
X715771428Y-253473866D02*
X715866666Y-253426247D01*
X715866666Y-253426247D02*
X715914285Y-253378628D01*
X715914285Y-253378628D02*
X715961904Y-253283390D01*
%TO.C,C6*%
X489149580Y-254686666D02*
X489197200Y-254734285D01*
X489197200Y-254734285D02*
X489244819Y-254877142D01*
X489244819Y-254877142D02*
X489244819Y-254972380D01*
X489244819Y-254972380D02*
X489197200Y-255115237D01*
X489197200Y-255115237D02*
X489101961Y-255210475D01*
X489101961Y-255210475D02*
X489006723Y-255258094D01*
X489006723Y-255258094D02*
X488816247Y-255305713D01*
X488816247Y-255305713D02*
X488673390Y-255305713D01*
X488673390Y-255305713D02*
X488482914Y-255258094D01*
X488482914Y-255258094D02*
X488387676Y-255210475D01*
X488387676Y-255210475D02*
X488292438Y-255115237D01*
X488292438Y-255115237D02*
X488244819Y-254972380D01*
X488244819Y-254972380D02*
X488244819Y-254877142D01*
X488244819Y-254877142D02*
X488292438Y-254734285D01*
X488292438Y-254734285D02*
X488340057Y-254686666D01*
X488244819Y-253829523D02*
X488244819Y-254019999D01*
X488244819Y-254019999D02*
X488292438Y-254115237D01*
X488292438Y-254115237D02*
X488340057Y-254162856D01*
X488340057Y-254162856D02*
X488482914Y-254258094D01*
X488482914Y-254258094D02*
X488673390Y-254305713D01*
X488673390Y-254305713D02*
X489054342Y-254305713D01*
X489054342Y-254305713D02*
X489149580Y-254258094D01*
X489149580Y-254258094D02*
X489197200Y-254210475D01*
X489197200Y-254210475D02*
X489244819Y-254115237D01*
X489244819Y-254115237D02*
X489244819Y-253924761D01*
X489244819Y-253924761D02*
X489197200Y-253829523D01*
X489197200Y-253829523D02*
X489149580Y-253781904D01*
X489149580Y-253781904D02*
X489054342Y-253734285D01*
X489054342Y-253734285D02*
X488816247Y-253734285D01*
X488816247Y-253734285D02*
X488721009Y-253781904D01*
X488721009Y-253781904D02*
X488673390Y-253829523D01*
X488673390Y-253829523D02*
X488625771Y-253924761D01*
X488625771Y-253924761D02*
X488625771Y-254115237D01*
X488625771Y-254115237D02*
X488673390Y-254210475D01*
X488673390Y-254210475D02*
X488721009Y-254258094D01*
X488721009Y-254258094D02*
X488816247Y-254305713D01*
%TO.C,D9*%
X506961905Y-253854819D02*
X506961905Y-252854819D01*
X506961905Y-252854819D02*
X507200000Y-252854819D01*
X507200000Y-252854819D02*
X507342857Y-252902438D01*
X507342857Y-252902438D02*
X507438095Y-252997676D01*
X507438095Y-252997676D02*
X507485714Y-253092914D01*
X507485714Y-253092914D02*
X507533333Y-253283390D01*
X507533333Y-253283390D02*
X507533333Y-253426247D01*
X507533333Y-253426247D02*
X507485714Y-253616723D01*
X507485714Y-253616723D02*
X507438095Y-253711961D01*
X507438095Y-253711961D02*
X507342857Y-253807200D01*
X507342857Y-253807200D02*
X507200000Y-253854819D01*
X507200000Y-253854819D02*
X506961905Y-253854819D01*
X508009524Y-253854819D02*
X508200000Y-253854819D01*
X508200000Y-253854819D02*
X508295238Y-253807200D01*
X508295238Y-253807200D02*
X508342857Y-253759580D01*
X508342857Y-253759580D02*
X508438095Y-253616723D01*
X508438095Y-253616723D02*
X508485714Y-253426247D01*
X508485714Y-253426247D02*
X508485714Y-253045295D01*
X508485714Y-253045295D02*
X508438095Y-252950057D01*
X508438095Y-252950057D02*
X508390476Y-252902438D01*
X508390476Y-252902438D02*
X508295238Y-252854819D01*
X508295238Y-252854819D02*
X508104762Y-252854819D01*
X508104762Y-252854819D02*
X508009524Y-252902438D01*
X508009524Y-252902438D02*
X507961905Y-252950057D01*
X507961905Y-252950057D02*
X507914286Y-253045295D01*
X507914286Y-253045295D02*
X507914286Y-253283390D01*
X507914286Y-253283390D02*
X507961905Y-253378628D01*
X507961905Y-253378628D02*
X508009524Y-253426247D01*
X508009524Y-253426247D02*
X508104762Y-253473866D01*
X508104762Y-253473866D02*
X508295238Y-253473866D01*
X508295238Y-253473866D02*
X508390476Y-253426247D01*
X508390476Y-253426247D02*
X508438095Y-253378628D01*
X508438095Y-253378628D02*
X508485714Y-253283390D01*
%TO.C,C18*%
X571949580Y-255162857D02*
X571997200Y-255210476D01*
X571997200Y-255210476D02*
X572044819Y-255353333D01*
X572044819Y-255353333D02*
X572044819Y-255448571D01*
X572044819Y-255448571D02*
X571997200Y-255591428D01*
X571997200Y-255591428D02*
X571901961Y-255686666D01*
X571901961Y-255686666D02*
X571806723Y-255734285D01*
X571806723Y-255734285D02*
X571616247Y-255781904D01*
X571616247Y-255781904D02*
X571473390Y-255781904D01*
X571473390Y-255781904D02*
X571282914Y-255734285D01*
X571282914Y-255734285D02*
X571187676Y-255686666D01*
X571187676Y-255686666D02*
X571092438Y-255591428D01*
X571092438Y-255591428D02*
X571044819Y-255448571D01*
X571044819Y-255448571D02*
X571044819Y-255353333D01*
X571044819Y-255353333D02*
X571092438Y-255210476D01*
X571092438Y-255210476D02*
X571140057Y-255162857D01*
X572044819Y-254210476D02*
X572044819Y-254781904D01*
X572044819Y-254496190D02*
X571044819Y-254496190D01*
X571044819Y-254496190D02*
X571187676Y-254591428D01*
X571187676Y-254591428D02*
X571282914Y-254686666D01*
X571282914Y-254686666D02*
X571330533Y-254781904D01*
X571473390Y-253639047D02*
X571425771Y-253734285D01*
X571425771Y-253734285D02*
X571378152Y-253781904D01*
X571378152Y-253781904D02*
X571282914Y-253829523D01*
X571282914Y-253829523D02*
X571235295Y-253829523D01*
X571235295Y-253829523D02*
X571140057Y-253781904D01*
X571140057Y-253781904D02*
X571092438Y-253734285D01*
X571092438Y-253734285D02*
X571044819Y-253639047D01*
X571044819Y-253639047D02*
X571044819Y-253448571D01*
X571044819Y-253448571D02*
X571092438Y-253353333D01*
X571092438Y-253353333D02*
X571140057Y-253305714D01*
X571140057Y-253305714D02*
X571235295Y-253258095D01*
X571235295Y-253258095D02*
X571282914Y-253258095D01*
X571282914Y-253258095D02*
X571378152Y-253305714D01*
X571378152Y-253305714D02*
X571425771Y-253353333D01*
X571425771Y-253353333D02*
X571473390Y-253448571D01*
X571473390Y-253448571D02*
X571473390Y-253639047D01*
X571473390Y-253639047D02*
X571521009Y-253734285D01*
X571521009Y-253734285D02*
X571568628Y-253781904D01*
X571568628Y-253781904D02*
X571663866Y-253829523D01*
X571663866Y-253829523D02*
X571854342Y-253829523D01*
X571854342Y-253829523D02*
X571949580Y-253781904D01*
X571949580Y-253781904D02*
X571997200Y-253734285D01*
X571997200Y-253734285D02*
X572044819Y-253639047D01*
X572044819Y-253639047D02*
X572044819Y-253448571D01*
X572044819Y-253448571D02*
X571997200Y-253353333D01*
X571997200Y-253353333D02*
X571949580Y-253305714D01*
X571949580Y-253305714D02*
X571854342Y-253258095D01*
X571854342Y-253258095D02*
X571663866Y-253258095D01*
X571663866Y-253258095D02*
X571568628Y-253305714D01*
X571568628Y-253305714D02*
X571521009Y-253353333D01*
X571521009Y-253353333D02*
X571473390Y-253448571D01*
%TO.C,D7*%
X493161905Y-253854819D02*
X493161905Y-252854819D01*
X493161905Y-252854819D02*
X493400000Y-252854819D01*
X493400000Y-252854819D02*
X493542857Y-252902438D01*
X493542857Y-252902438D02*
X493638095Y-252997676D01*
X493638095Y-252997676D02*
X493685714Y-253092914D01*
X493685714Y-253092914D02*
X493733333Y-253283390D01*
X493733333Y-253283390D02*
X493733333Y-253426247D01*
X493733333Y-253426247D02*
X493685714Y-253616723D01*
X493685714Y-253616723D02*
X493638095Y-253711961D01*
X493638095Y-253711961D02*
X493542857Y-253807200D01*
X493542857Y-253807200D02*
X493400000Y-253854819D01*
X493400000Y-253854819D02*
X493161905Y-253854819D01*
X494066667Y-252854819D02*
X494733333Y-252854819D01*
X494733333Y-252854819D02*
X494304762Y-253854819D01*
%TO.C,D25*%
X616885714Y-253854819D02*
X616885714Y-252854819D01*
X616885714Y-252854819D02*
X617123809Y-252854819D01*
X617123809Y-252854819D02*
X617266666Y-252902438D01*
X617266666Y-252902438D02*
X617361904Y-252997676D01*
X617361904Y-252997676D02*
X617409523Y-253092914D01*
X617409523Y-253092914D02*
X617457142Y-253283390D01*
X617457142Y-253283390D02*
X617457142Y-253426247D01*
X617457142Y-253426247D02*
X617409523Y-253616723D01*
X617409523Y-253616723D02*
X617361904Y-253711961D01*
X617361904Y-253711961D02*
X617266666Y-253807200D01*
X617266666Y-253807200D02*
X617123809Y-253854819D01*
X617123809Y-253854819D02*
X616885714Y-253854819D01*
X617838095Y-252950057D02*
X617885714Y-252902438D01*
X617885714Y-252902438D02*
X617980952Y-252854819D01*
X617980952Y-252854819D02*
X618219047Y-252854819D01*
X618219047Y-252854819D02*
X618314285Y-252902438D01*
X618314285Y-252902438D02*
X618361904Y-252950057D01*
X618361904Y-252950057D02*
X618409523Y-253045295D01*
X618409523Y-253045295D02*
X618409523Y-253140533D01*
X618409523Y-253140533D02*
X618361904Y-253283390D01*
X618361904Y-253283390D02*
X617790476Y-253854819D01*
X617790476Y-253854819D02*
X618409523Y-253854819D01*
X619314285Y-252854819D02*
X618838095Y-252854819D01*
X618838095Y-252854819D02*
X618790476Y-253331009D01*
X618790476Y-253331009D02*
X618838095Y-253283390D01*
X618838095Y-253283390D02*
X618933333Y-253235771D01*
X618933333Y-253235771D02*
X619171428Y-253235771D01*
X619171428Y-253235771D02*
X619266666Y-253283390D01*
X619266666Y-253283390D02*
X619314285Y-253331009D01*
X619314285Y-253331009D02*
X619361904Y-253426247D01*
X619361904Y-253426247D02*
X619361904Y-253664342D01*
X619361904Y-253664342D02*
X619314285Y-253759580D01*
X619314285Y-253759580D02*
X619266666Y-253807200D01*
X619266666Y-253807200D02*
X619171428Y-253854819D01*
X619171428Y-253854819D02*
X618933333Y-253854819D01*
X618933333Y-253854819D02*
X618838095Y-253807200D01*
X618838095Y-253807200D02*
X618790476Y-253759580D01*
%TO.C,C7*%
X496049580Y-254686666D02*
X496097200Y-254734285D01*
X496097200Y-254734285D02*
X496144819Y-254877142D01*
X496144819Y-254877142D02*
X496144819Y-254972380D01*
X496144819Y-254972380D02*
X496097200Y-255115237D01*
X496097200Y-255115237D02*
X496001961Y-255210475D01*
X496001961Y-255210475D02*
X495906723Y-255258094D01*
X495906723Y-255258094D02*
X495716247Y-255305713D01*
X495716247Y-255305713D02*
X495573390Y-255305713D01*
X495573390Y-255305713D02*
X495382914Y-255258094D01*
X495382914Y-255258094D02*
X495287676Y-255210475D01*
X495287676Y-255210475D02*
X495192438Y-255115237D01*
X495192438Y-255115237D02*
X495144819Y-254972380D01*
X495144819Y-254972380D02*
X495144819Y-254877142D01*
X495144819Y-254877142D02*
X495192438Y-254734285D01*
X495192438Y-254734285D02*
X495240057Y-254686666D01*
X495144819Y-254353332D02*
X495144819Y-253686666D01*
X495144819Y-253686666D02*
X496144819Y-254115237D01*
%TO.C,D26*%
X623785714Y-253854819D02*
X623785714Y-252854819D01*
X623785714Y-252854819D02*
X624023809Y-252854819D01*
X624023809Y-252854819D02*
X624166666Y-252902438D01*
X624166666Y-252902438D02*
X624261904Y-252997676D01*
X624261904Y-252997676D02*
X624309523Y-253092914D01*
X624309523Y-253092914D02*
X624357142Y-253283390D01*
X624357142Y-253283390D02*
X624357142Y-253426247D01*
X624357142Y-253426247D02*
X624309523Y-253616723D01*
X624309523Y-253616723D02*
X624261904Y-253711961D01*
X624261904Y-253711961D02*
X624166666Y-253807200D01*
X624166666Y-253807200D02*
X624023809Y-253854819D01*
X624023809Y-253854819D02*
X623785714Y-253854819D01*
X624738095Y-252950057D02*
X624785714Y-252902438D01*
X624785714Y-252902438D02*
X624880952Y-252854819D01*
X624880952Y-252854819D02*
X625119047Y-252854819D01*
X625119047Y-252854819D02*
X625214285Y-252902438D01*
X625214285Y-252902438D02*
X625261904Y-252950057D01*
X625261904Y-252950057D02*
X625309523Y-253045295D01*
X625309523Y-253045295D02*
X625309523Y-253140533D01*
X625309523Y-253140533D02*
X625261904Y-253283390D01*
X625261904Y-253283390D02*
X624690476Y-253854819D01*
X624690476Y-253854819D02*
X625309523Y-253854819D01*
X626166666Y-252854819D02*
X625976190Y-252854819D01*
X625976190Y-252854819D02*
X625880952Y-252902438D01*
X625880952Y-252902438D02*
X625833333Y-252950057D01*
X625833333Y-252950057D02*
X625738095Y-253092914D01*
X625738095Y-253092914D02*
X625690476Y-253283390D01*
X625690476Y-253283390D02*
X625690476Y-253664342D01*
X625690476Y-253664342D02*
X625738095Y-253759580D01*
X625738095Y-253759580D02*
X625785714Y-253807200D01*
X625785714Y-253807200D02*
X625880952Y-253854819D01*
X625880952Y-253854819D02*
X626071428Y-253854819D01*
X626071428Y-253854819D02*
X626166666Y-253807200D01*
X626166666Y-253807200D02*
X626214285Y-253759580D01*
X626214285Y-253759580D02*
X626261904Y-253664342D01*
X626261904Y-253664342D02*
X626261904Y-253426247D01*
X626261904Y-253426247D02*
X626214285Y-253331009D01*
X626214285Y-253331009D02*
X626166666Y-253283390D01*
X626166666Y-253283390D02*
X626071428Y-253235771D01*
X626071428Y-253235771D02*
X625880952Y-253235771D01*
X625880952Y-253235771D02*
X625785714Y-253283390D01*
X625785714Y-253283390D02*
X625738095Y-253331009D01*
X625738095Y-253331009D02*
X625690476Y-253426247D01*
%TO.C,C38*%
X709949580Y-255162857D02*
X709997200Y-255210476D01*
X709997200Y-255210476D02*
X710044819Y-255353333D01*
X710044819Y-255353333D02*
X710044819Y-255448571D01*
X710044819Y-255448571D02*
X709997200Y-255591428D01*
X709997200Y-255591428D02*
X709901961Y-255686666D01*
X709901961Y-255686666D02*
X709806723Y-255734285D01*
X709806723Y-255734285D02*
X709616247Y-255781904D01*
X709616247Y-255781904D02*
X709473390Y-255781904D01*
X709473390Y-255781904D02*
X709282914Y-255734285D01*
X709282914Y-255734285D02*
X709187676Y-255686666D01*
X709187676Y-255686666D02*
X709092438Y-255591428D01*
X709092438Y-255591428D02*
X709044819Y-255448571D01*
X709044819Y-255448571D02*
X709044819Y-255353333D01*
X709044819Y-255353333D02*
X709092438Y-255210476D01*
X709092438Y-255210476D02*
X709140057Y-255162857D01*
X709044819Y-254829523D02*
X709044819Y-254210476D01*
X709044819Y-254210476D02*
X709425771Y-254543809D01*
X709425771Y-254543809D02*
X709425771Y-254400952D01*
X709425771Y-254400952D02*
X709473390Y-254305714D01*
X709473390Y-254305714D02*
X709521009Y-254258095D01*
X709521009Y-254258095D02*
X709616247Y-254210476D01*
X709616247Y-254210476D02*
X709854342Y-254210476D01*
X709854342Y-254210476D02*
X709949580Y-254258095D01*
X709949580Y-254258095D02*
X709997200Y-254305714D01*
X709997200Y-254305714D02*
X710044819Y-254400952D01*
X710044819Y-254400952D02*
X710044819Y-254686666D01*
X710044819Y-254686666D02*
X709997200Y-254781904D01*
X709997200Y-254781904D02*
X709949580Y-254829523D01*
X709473390Y-253639047D02*
X709425771Y-253734285D01*
X709425771Y-253734285D02*
X709378152Y-253781904D01*
X709378152Y-253781904D02*
X709282914Y-253829523D01*
X709282914Y-253829523D02*
X709235295Y-253829523D01*
X709235295Y-253829523D02*
X709140057Y-253781904D01*
X709140057Y-253781904D02*
X709092438Y-253734285D01*
X709092438Y-253734285D02*
X709044819Y-253639047D01*
X709044819Y-253639047D02*
X709044819Y-253448571D01*
X709044819Y-253448571D02*
X709092438Y-253353333D01*
X709092438Y-253353333D02*
X709140057Y-253305714D01*
X709140057Y-253305714D02*
X709235295Y-253258095D01*
X709235295Y-253258095D02*
X709282914Y-253258095D01*
X709282914Y-253258095D02*
X709378152Y-253305714D01*
X709378152Y-253305714D02*
X709425771Y-253353333D01*
X709425771Y-253353333D02*
X709473390Y-253448571D01*
X709473390Y-253448571D02*
X709473390Y-253639047D01*
X709473390Y-253639047D02*
X709521009Y-253734285D01*
X709521009Y-253734285D02*
X709568628Y-253781904D01*
X709568628Y-253781904D02*
X709663866Y-253829523D01*
X709663866Y-253829523D02*
X709854342Y-253829523D01*
X709854342Y-253829523D02*
X709949580Y-253781904D01*
X709949580Y-253781904D02*
X709997200Y-253734285D01*
X709997200Y-253734285D02*
X710044819Y-253639047D01*
X710044819Y-253639047D02*
X710044819Y-253448571D01*
X710044819Y-253448571D02*
X709997200Y-253353333D01*
X709997200Y-253353333D02*
X709949580Y-253305714D01*
X709949580Y-253305714D02*
X709854342Y-253258095D01*
X709854342Y-253258095D02*
X709663866Y-253258095D01*
X709663866Y-253258095D02*
X709568628Y-253305714D01*
X709568628Y-253305714D02*
X709521009Y-253353333D01*
X709521009Y-253353333D02*
X709473390Y-253448571D01*
%TO.C,D12*%
X527185714Y-253854819D02*
X527185714Y-252854819D01*
X527185714Y-252854819D02*
X527423809Y-252854819D01*
X527423809Y-252854819D02*
X527566666Y-252902438D01*
X527566666Y-252902438D02*
X527661904Y-252997676D01*
X527661904Y-252997676D02*
X527709523Y-253092914D01*
X527709523Y-253092914D02*
X527757142Y-253283390D01*
X527757142Y-253283390D02*
X527757142Y-253426247D01*
X527757142Y-253426247D02*
X527709523Y-253616723D01*
X527709523Y-253616723D02*
X527661904Y-253711961D01*
X527661904Y-253711961D02*
X527566666Y-253807200D01*
X527566666Y-253807200D02*
X527423809Y-253854819D01*
X527423809Y-253854819D02*
X527185714Y-253854819D01*
X528709523Y-253854819D02*
X528138095Y-253854819D01*
X528423809Y-253854819D02*
X528423809Y-252854819D01*
X528423809Y-252854819D02*
X528328571Y-252997676D01*
X528328571Y-252997676D02*
X528233333Y-253092914D01*
X528233333Y-253092914D02*
X528138095Y-253140533D01*
X529090476Y-252950057D02*
X529138095Y-252902438D01*
X529138095Y-252902438D02*
X529233333Y-252854819D01*
X529233333Y-252854819D02*
X529471428Y-252854819D01*
X529471428Y-252854819D02*
X529566666Y-252902438D01*
X529566666Y-252902438D02*
X529614285Y-252950057D01*
X529614285Y-252950057D02*
X529661904Y-253045295D01*
X529661904Y-253045295D02*
X529661904Y-253140533D01*
X529661904Y-253140533D02*
X529614285Y-253283390D01*
X529614285Y-253283390D02*
X529042857Y-253854819D01*
X529042857Y-253854819D02*
X529661904Y-253854819D01*
%TO.C,C23*%
X606449581Y-255162857D02*
X606497201Y-255210476D01*
X606497201Y-255210476D02*
X606544820Y-255353333D01*
X606544820Y-255353333D02*
X606544820Y-255448571D01*
X606544820Y-255448571D02*
X606497201Y-255591428D01*
X606497201Y-255591428D02*
X606401962Y-255686666D01*
X606401962Y-255686666D02*
X606306724Y-255734285D01*
X606306724Y-255734285D02*
X606116248Y-255781904D01*
X606116248Y-255781904D02*
X605973391Y-255781904D01*
X605973391Y-255781904D02*
X605782915Y-255734285D01*
X605782915Y-255734285D02*
X605687677Y-255686666D01*
X605687677Y-255686666D02*
X605592439Y-255591428D01*
X605592439Y-255591428D02*
X605544820Y-255448571D01*
X605544820Y-255448571D02*
X605544820Y-255353333D01*
X605544820Y-255353333D02*
X605592439Y-255210476D01*
X605592439Y-255210476D02*
X605640058Y-255162857D01*
X605640058Y-254781904D02*
X605592439Y-254734285D01*
X605592439Y-254734285D02*
X605544820Y-254639047D01*
X605544820Y-254639047D02*
X605544820Y-254400952D01*
X605544820Y-254400952D02*
X605592439Y-254305714D01*
X605592439Y-254305714D02*
X605640058Y-254258095D01*
X605640058Y-254258095D02*
X605735296Y-254210476D01*
X605735296Y-254210476D02*
X605830534Y-254210476D01*
X605830534Y-254210476D02*
X605973391Y-254258095D01*
X605973391Y-254258095D02*
X606544820Y-254829523D01*
X606544820Y-254829523D02*
X606544820Y-254210476D01*
X605544820Y-253877142D02*
X605544820Y-253258095D01*
X605544820Y-253258095D02*
X605925772Y-253591428D01*
X605925772Y-253591428D02*
X605925772Y-253448571D01*
X605925772Y-253448571D02*
X605973391Y-253353333D01*
X605973391Y-253353333D02*
X606021010Y-253305714D01*
X606021010Y-253305714D02*
X606116248Y-253258095D01*
X606116248Y-253258095D02*
X606354343Y-253258095D01*
X606354343Y-253258095D02*
X606449581Y-253305714D01*
X606449581Y-253305714D02*
X606497201Y-253353333D01*
X606497201Y-253353333D02*
X606544820Y-253448571D01*
X606544820Y-253448571D02*
X606544820Y-253734285D01*
X606544820Y-253734285D02*
X606497201Y-253829523D01*
X606497201Y-253829523D02*
X606449581Y-253877142D01*
%TO.C,C12*%
X530549580Y-255162856D02*
X530597200Y-255210475D01*
X530597200Y-255210475D02*
X530644819Y-255353332D01*
X530644819Y-255353332D02*
X530644819Y-255448570D01*
X530644819Y-255448570D02*
X530597200Y-255591427D01*
X530597200Y-255591427D02*
X530501961Y-255686665D01*
X530501961Y-255686665D02*
X530406723Y-255734284D01*
X530406723Y-255734284D02*
X530216247Y-255781903D01*
X530216247Y-255781903D02*
X530073390Y-255781903D01*
X530073390Y-255781903D02*
X529882914Y-255734284D01*
X529882914Y-255734284D02*
X529787676Y-255686665D01*
X529787676Y-255686665D02*
X529692438Y-255591427D01*
X529692438Y-255591427D02*
X529644819Y-255448570D01*
X529644819Y-255448570D02*
X529644819Y-255353332D01*
X529644819Y-255353332D02*
X529692438Y-255210475D01*
X529692438Y-255210475D02*
X529740057Y-255162856D01*
X530644819Y-254210475D02*
X530644819Y-254781903D01*
X530644819Y-254496189D02*
X529644819Y-254496189D01*
X529644819Y-254496189D02*
X529787676Y-254591427D01*
X529787676Y-254591427D02*
X529882914Y-254686665D01*
X529882914Y-254686665D02*
X529930533Y-254781903D01*
X529740057Y-253829522D02*
X529692438Y-253781903D01*
X529692438Y-253781903D02*
X529644819Y-253686665D01*
X529644819Y-253686665D02*
X529644819Y-253448570D01*
X529644819Y-253448570D02*
X529692438Y-253353332D01*
X529692438Y-253353332D02*
X529740057Y-253305713D01*
X529740057Y-253305713D02*
X529835295Y-253258094D01*
X529835295Y-253258094D02*
X529930533Y-253258094D01*
X529930533Y-253258094D02*
X530073390Y-253305713D01*
X530073390Y-253305713D02*
X530644819Y-253877141D01*
X530644819Y-253877141D02*
X530644819Y-253258094D01*
%TO.C,D32*%
X665185714Y-253854819D02*
X665185714Y-252854819D01*
X665185714Y-252854819D02*
X665423809Y-252854819D01*
X665423809Y-252854819D02*
X665566666Y-252902438D01*
X665566666Y-252902438D02*
X665661904Y-252997676D01*
X665661904Y-252997676D02*
X665709523Y-253092914D01*
X665709523Y-253092914D02*
X665757142Y-253283390D01*
X665757142Y-253283390D02*
X665757142Y-253426247D01*
X665757142Y-253426247D02*
X665709523Y-253616723D01*
X665709523Y-253616723D02*
X665661904Y-253711961D01*
X665661904Y-253711961D02*
X665566666Y-253807200D01*
X665566666Y-253807200D02*
X665423809Y-253854819D01*
X665423809Y-253854819D02*
X665185714Y-253854819D01*
X666090476Y-252854819D02*
X666709523Y-252854819D01*
X666709523Y-252854819D02*
X666376190Y-253235771D01*
X666376190Y-253235771D02*
X666519047Y-253235771D01*
X666519047Y-253235771D02*
X666614285Y-253283390D01*
X666614285Y-253283390D02*
X666661904Y-253331009D01*
X666661904Y-253331009D02*
X666709523Y-253426247D01*
X666709523Y-253426247D02*
X666709523Y-253664342D01*
X666709523Y-253664342D02*
X666661904Y-253759580D01*
X666661904Y-253759580D02*
X666614285Y-253807200D01*
X666614285Y-253807200D02*
X666519047Y-253854819D01*
X666519047Y-253854819D02*
X666233333Y-253854819D01*
X666233333Y-253854819D02*
X666138095Y-253807200D01*
X666138095Y-253807200D02*
X666090476Y-253759580D01*
X667090476Y-252950057D02*
X667138095Y-252902438D01*
X667138095Y-252902438D02*
X667233333Y-252854819D01*
X667233333Y-252854819D02*
X667471428Y-252854819D01*
X667471428Y-252854819D02*
X667566666Y-252902438D01*
X667566666Y-252902438D02*
X667614285Y-252950057D01*
X667614285Y-252950057D02*
X667661904Y-253045295D01*
X667661904Y-253045295D02*
X667661904Y-253140533D01*
X667661904Y-253140533D02*
X667614285Y-253283390D01*
X667614285Y-253283390D02*
X667042857Y-253854819D01*
X667042857Y-253854819D02*
X667661904Y-253854819D01*
%TO.C,D24*%
X609985714Y-253854819D02*
X609985714Y-252854819D01*
X609985714Y-252854819D02*
X610223809Y-252854819D01*
X610223809Y-252854819D02*
X610366666Y-252902438D01*
X610366666Y-252902438D02*
X610461904Y-252997676D01*
X610461904Y-252997676D02*
X610509523Y-253092914D01*
X610509523Y-253092914D02*
X610557142Y-253283390D01*
X610557142Y-253283390D02*
X610557142Y-253426247D01*
X610557142Y-253426247D02*
X610509523Y-253616723D01*
X610509523Y-253616723D02*
X610461904Y-253711961D01*
X610461904Y-253711961D02*
X610366666Y-253807200D01*
X610366666Y-253807200D02*
X610223809Y-253854819D01*
X610223809Y-253854819D02*
X609985714Y-253854819D01*
X610938095Y-252950057D02*
X610985714Y-252902438D01*
X610985714Y-252902438D02*
X611080952Y-252854819D01*
X611080952Y-252854819D02*
X611319047Y-252854819D01*
X611319047Y-252854819D02*
X611414285Y-252902438D01*
X611414285Y-252902438D02*
X611461904Y-252950057D01*
X611461904Y-252950057D02*
X611509523Y-253045295D01*
X611509523Y-253045295D02*
X611509523Y-253140533D01*
X611509523Y-253140533D02*
X611461904Y-253283390D01*
X611461904Y-253283390D02*
X610890476Y-253854819D01*
X610890476Y-253854819D02*
X611509523Y-253854819D01*
X612366666Y-253188152D02*
X612366666Y-253854819D01*
X612128571Y-252807200D02*
X611890476Y-253521485D01*
X611890476Y-253521485D02*
X612509523Y-253521485D01*
%TO.C,C37*%
X703049580Y-255162857D02*
X703097200Y-255210476D01*
X703097200Y-255210476D02*
X703144819Y-255353333D01*
X703144819Y-255353333D02*
X703144819Y-255448571D01*
X703144819Y-255448571D02*
X703097200Y-255591428D01*
X703097200Y-255591428D02*
X703001961Y-255686666D01*
X703001961Y-255686666D02*
X702906723Y-255734285D01*
X702906723Y-255734285D02*
X702716247Y-255781904D01*
X702716247Y-255781904D02*
X702573390Y-255781904D01*
X702573390Y-255781904D02*
X702382914Y-255734285D01*
X702382914Y-255734285D02*
X702287676Y-255686666D01*
X702287676Y-255686666D02*
X702192438Y-255591428D01*
X702192438Y-255591428D02*
X702144819Y-255448571D01*
X702144819Y-255448571D02*
X702144819Y-255353333D01*
X702144819Y-255353333D02*
X702192438Y-255210476D01*
X702192438Y-255210476D02*
X702240057Y-255162857D01*
X702144819Y-254829523D02*
X702144819Y-254210476D01*
X702144819Y-254210476D02*
X702525771Y-254543809D01*
X702525771Y-254543809D02*
X702525771Y-254400952D01*
X702525771Y-254400952D02*
X702573390Y-254305714D01*
X702573390Y-254305714D02*
X702621009Y-254258095D01*
X702621009Y-254258095D02*
X702716247Y-254210476D01*
X702716247Y-254210476D02*
X702954342Y-254210476D01*
X702954342Y-254210476D02*
X703049580Y-254258095D01*
X703049580Y-254258095D02*
X703097200Y-254305714D01*
X703097200Y-254305714D02*
X703144819Y-254400952D01*
X703144819Y-254400952D02*
X703144819Y-254686666D01*
X703144819Y-254686666D02*
X703097200Y-254781904D01*
X703097200Y-254781904D02*
X703049580Y-254829523D01*
X702144819Y-253877142D02*
X702144819Y-253210476D01*
X702144819Y-253210476D02*
X703144819Y-253639047D01*
%TO.C,D38*%
X706585714Y-253854819D02*
X706585714Y-252854819D01*
X706585714Y-252854819D02*
X706823809Y-252854819D01*
X706823809Y-252854819D02*
X706966666Y-252902438D01*
X706966666Y-252902438D02*
X707061904Y-252997676D01*
X707061904Y-252997676D02*
X707109523Y-253092914D01*
X707109523Y-253092914D02*
X707157142Y-253283390D01*
X707157142Y-253283390D02*
X707157142Y-253426247D01*
X707157142Y-253426247D02*
X707109523Y-253616723D01*
X707109523Y-253616723D02*
X707061904Y-253711961D01*
X707061904Y-253711961D02*
X706966666Y-253807200D01*
X706966666Y-253807200D02*
X706823809Y-253854819D01*
X706823809Y-253854819D02*
X706585714Y-253854819D01*
X707490476Y-252854819D02*
X708109523Y-252854819D01*
X708109523Y-252854819D02*
X707776190Y-253235771D01*
X707776190Y-253235771D02*
X707919047Y-253235771D01*
X707919047Y-253235771D02*
X708014285Y-253283390D01*
X708014285Y-253283390D02*
X708061904Y-253331009D01*
X708061904Y-253331009D02*
X708109523Y-253426247D01*
X708109523Y-253426247D02*
X708109523Y-253664342D01*
X708109523Y-253664342D02*
X708061904Y-253759580D01*
X708061904Y-253759580D02*
X708014285Y-253807200D01*
X708014285Y-253807200D02*
X707919047Y-253854819D01*
X707919047Y-253854819D02*
X707633333Y-253854819D01*
X707633333Y-253854819D02*
X707538095Y-253807200D01*
X707538095Y-253807200D02*
X707490476Y-253759580D01*
X708680952Y-253283390D02*
X708585714Y-253235771D01*
X708585714Y-253235771D02*
X708538095Y-253188152D01*
X708538095Y-253188152D02*
X708490476Y-253092914D01*
X708490476Y-253092914D02*
X708490476Y-253045295D01*
X708490476Y-253045295D02*
X708538095Y-252950057D01*
X708538095Y-252950057D02*
X708585714Y-252902438D01*
X708585714Y-252902438D02*
X708680952Y-252854819D01*
X708680952Y-252854819D02*
X708871428Y-252854819D01*
X708871428Y-252854819D02*
X708966666Y-252902438D01*
X708966666Y-252902438D02*
X709014285Y-252950057D01*
X709014285Y-252950057D02*
X709061904Y-253045295D01*
X709061904Y-253045295D02*
X709061904Y-253092914D01*
X709061904Y-253092914D02*
X709014285Y-253188152D01*
X709014285Y-253188152D02*
X708966666Y-253235771D01*
X708966666Y-253235771D02*
X708871428Y-253283390D01*
X708871428Y-253283390D02*
X708680952Y-253283390D01*
X708680952Y-253283390D02*
X708585714Y-253331009D01*
X708585714Y-253331009D02*
X708538095Y-253378628D01*
X708538095Y-253378628D02*
X708490476Y-253473866D01*
X708490476Y-253473866D02*
X708490476Y-253664342D01*
X708490476Y-253664342D02*
X708538095Y-253759580D01*
X708538095Y-253759580D02*
X708585714Y-253807200D01*
X708585714Y-253807200D02*
X708680952Y-253854819D01*
X708680952Y-253854819D02*
X708871428Y-253854819D01*
X708871428Y-253854819D02*
X708966666Y-253807200D01*
X708966666Y-253807200D02*
X709014285Y-253759580D01*
X709014285Y-253759580D02*
X709061904Y-253664342D01*
X709061904Y-253664342D02*
X709061904Y-253473866D01*
X709061904Y-253473866D02*
X709014285Y-253378628D01*
X709014285Y-253378628D02*
X708966666Y-253331009D01*
X708966666Y-253331009D02*
X708871428Y-253283390D01*
%TO.C,C3*%
X468449580Y-254686666D02*
X468497200Y-254734285D01*
X468497200Y-254734285D02*
X468544819Y-254877142D01*
X468544819Y-254877142D02*
X468544819Y-254972380D01*
X468544819Y-254972380D02*
X468497200Y-255115237D01*
X468497200Y-255115237D02*
X468401961Y-255210475D01*
X468401961Y-255210475D02*
X468306723Y-255258094D01*
X468306723Y-255258094D02*
X468116247Y-255305713D01*
X468116247Y-255305713D02*
X467973390Y-255305713D01*
X467973390Y-255305713D02*
X467782914Y-255258094D01*
X467782914Y-255258094D02*
X467687676Y-255210475D01*
X467687676Y-255210475D02*
X467592438Y-255115237D01*
X467592438Y-255115237D02*
X467544819Y-254972380D01*
X467544819Y-254972380D02*
X467544819Y-254877142D01*
X467544819Y-254877142D02*
X467592438Y-254734285D01*
X467592438Y-254734285D02*
X467640057Y-254686666D01*
X467544819Y-254353332D02*
X467544819Y-253734285D01*
X467544819Y-253734285D02*
X467925771Y-254067618D01*
X467925771Y-254067618D02*
X467925771Y-253924761D01*
X467925771Y-253924761D02*
X467973390Y-253829523D01*
X467973390Y-253829523D02*
X468021009Y-253781904D01*
X468021009Y-253781904D02*
X468116247Y-253734285D01*
X468116247Y-253734285D02*
X468354342Y-253734285D01*
X468354342Y-253734285D02*
X468449580Y-253781904D01*
X468449580Y-253781904D02*
X468497200Y-253829523D01*
X468497200Y-253829523D02*
X468544819Y-253924761D01*
X468544819Y-253924761D02*
X468544819Y-254210475D01*
X468544819Y-254210475D02*
X468497200Y-254305713D01*
X468497200Y-254305713D02*
X468449580Y-254353332D01*
%TO.C,C15*%
X551249580Y-255162856D02*
X551297200Y-255210475D01*
X551297200Y-255210475D02*
X551344819Y-255353332D01*
X551344819Y-255353332D02*
X551344819Y-255448570D01*
X551344819Y-255448570D02*
X551297200Y-255591427D01*
X551297200Y-255591427D02*
X551201961Y-255686665D01*
X551201961Y-255686665D02*
X551106723Y-255734284D01*
X551106723Y-255734284D02*
X550916247Y-255781903D01*
X550916247Y-255781903D02*
X550773390Y-255781903D01*
X550773390Y-255781903D02*
X550582914Y-255734284D01*
X550582914Y-255734284D02*
X550487676Y-255686665D01*
X550487676Y-255686665D02*
X550392438Y-255591427D01*
X550392438Y-255591427D02*
X550344819Y-255448570D01*
X550344819Y-255448570D02*
X550344819Y-255353332D01*
X550344819Y-255353332D02*
X550392438Y-255210475D01*
X550392438Y-255210475D02*
X550440057Y-255162856D01*
X551344819Y-254210475D02*
X551344819Y-254781903D01*
X551344819Y-254496189D02*
X550344819Y-254496189D01*
X550344819Y-254496189D02*
X550487676Y-254591427D01*
X550487676Y-254591427D02*
X550582914Y-254686665D01*
X550582914Y-254686665D02*
X550630533Y-254781903D01*
X550344819Y-253305713D02*
X550344819Y-253781903D01*
X550344819Y-253781903D02*
X550821009Y-253829522D01*
X550821009Y-253829522D02*
X550773390Y-253781903D01*
X550773390Y-253781903D02*
X550725771Y-253686665D01*
X550725771Y-253686665D02*
X550725771Y-253448570D01*
X550725771Y-253448570D02*
X550773390Y-253353332D01*
X550773390Y-253353332D02*
X550821009Y-253305713D01*
X550821009Y-253305713D02*
X550916247Y-253258094D01*
X550916247Y-253258094D02*
X551154342Y-253258094D01*
X551154342Y-253258094D02*
X551249580Y-253305713D01*
X551249580Y-253305713D02*
X551297200Y-253353332D01*
X551297200Y-253353332D02*
X551344819Y-253448570D01*
X551344819Y-253448570D02*
X551344819Y-253686665D01*
X551344819Y-253686665D02*
X551297200Y-253781903D01*
X551297200Y-253781903D02*
X551249580Y-253829522D01*
%TO.C,C26*%
X627149580Y-255162857D02*
X627197200Y-255210476D01*
X627197200Y-255210476D02*
X627244819Y-255353333D01*
X627244819Y-255353333D02*
X627244819Y-255448571D01*
X627244819Y-255448571D02*
X627197200Y-255591428D01*
X627197200Y-255591428D02*
X627101961Y-255686666D01*
X627101961Y-255686666D02*
X627006723Y-255734285D01*
X627006723Y-255734285D02*
X626816247Y-255781904D01*
X626816247Y-255781904D02*
X626673390Y-255781904D01*
X626673390Y-255781904D02*
X626482914Y-255734285D01*
X626482914Y-255734285D02*
X626387676Y-255686666D01*
X626387676Y-255686666D02*
X626292438Y-255591428D01*
X626292438Y-255591428D02*
X626244819Y-255448571D01*
X626244819Y-255448571D02*
X626244819Y-255353333D01*
X626244819Y-255353333D02*
X626292438Y-255210476D01*
X626292438Y-255210476D02*
X626340057Y-255162857D01*
X626340057Y-254781904D02*
X626292438Y-254734285D01*
X626292438Y-254734285D02*
X626244819Y-254639047D01*
X626244819Y-254639047D02*
X626244819Y-254400952D01*
X626244819Y-254400952D02*
X626292438Y-254305714D01*
X626292438Y-254305714D02*
X626340057Y-254258095D01*
X626340057Y-254258095D02*
X626435295Y-254210476D01*
X626435295Y-254210476D02*
X626530533Y-254210476D01*
X626530533Y-254210476D02*
X626673390Y-254258095D01*
X626673390Y-254258095D02*
X627244819Y-254829523D01*
X627244819Y-254829523D02*
X627244819Y-254210476D01*
X626244819Y-253353333D02*
X626244819Y-253543809D01*
X626244819Y-253543809D02*
X626292438Y-253639047D01*
X626292438Y-253639047D02*
X626340057Y-253686666D01*
X626340057Y-253686666D02*
X626482914Y-253781904D01*
X626482914Y-253781904D02*
X626673390Y-253829523D01*
X626673390Y-253829523D02*
X627054342Y-253829523D01*
X627054342Y-253829523D02*
X627149580Y-253781904D01*
X627149580Y-253781904D02*
X627197200Y-253734285D01*
X627197200Y-253734285D02*
X627244819Y-253639047D01*
X627244819Y-253639047D02*
X627244819Y-253448571D01*
X627244819Y-253448571D02*
X627197200Y-253353333D01*
X627197200Y-253353333D02*
X627149580Y-253305714D01*
X627149580Y-253305714D02*
X627054342Y-253258095D01*
X627054342Y-253258095D02*
X626816247Y-253258095D01*
X626816247Y-253258095D02*
X626721009Y-253305714D01*
X626721009Y-253305714D02*
X626673390Y-253353333D01*
X626673390Y-253353333D02*
X626625771Y-253448571D01*
X626625771Y-253448571D02*
X626625771Y-253639047D01*
X626625771Y-253639047D02*
X626673390Y-253734285D01*
X626673390Y-253734285D02*
X626721009Y-253781904D01*
X626721009Y-253781904D02*
X626816247Y-253829523D01*
%TO.C,C21*%
X592649580Y-255162857D02*
X592697200Y-255210476D01*
X592697200Y-255210476D02*
X592744819Y-255353333D01*
X592744819Y-255353333D02*
X592744819Y-255448571D01*
X592744819Y-255448571D02*
X592697200Y-255591428D01*
X592697200Y-255591428D02*
X592601961Y-255686666D01*
X592601961Y-255686666D02*
X592506723Y-255734285D01*
X592506723Y-255734285D02*
X592316247Y-255781904D01*
X592316247Y-255781904D02*
X592173390Y-255781904D01*
X592173390Y-255781904D02*
X591982914Y-255734285D01*
X591982914Y-255734285D02*
X591887676Y-255686666D01*
X591887676Y-255686666D02*
X591792438Y-255591428D01*
X591792438Y-255591428D02*
X591744819Y-255448571D01*
X591744819Y-255448571D02*
X591744819Y-255353333D01*
X591744819Y-255353333D02*
X591792438Y-255210476D01*
X591792438Y-255210476D02*
X591840057Y-255162857D01*
X591840057Y-254781904D02*
X591792438Y-254734285D01*
X591792438Y-254734285D02*
X591744819Y-254639047D01*
X591744819Y-254639047D02*
X591744819Y-254400952D01*
X591744819Y-254400952D02*
X591792438Y-254305714D01*
X591792438Y-254305714D02*
X591840057Y-254258095D01*
X591840057Y-254258095D02*
X591935295Y-254210476D01*
X591935295Y-254210476D02*
X592030533Y-254210476D01*
X592030533Y-254210476D02*
X592173390Y-254258095D01*
X592173390Y-254258095D02*
X592744819Y-254829523D01*
X592744819Y-254829523D02*
X592744819Y-254210476D01*
X592744819Y-253258095D02*
X592744819Y-253829523D01*
X592744819Y-253543809D02*
X591744819Y-253543809D01*
X591744819Y-253543809D02*
X591887676Y-253639047D01*
X591887676Y-253639047D02*
X591982914Y-253734285D01*
X591982914Y-253734285D02*
X592030533Y-253829523D01*
%TO.C,D17*%
X561685714Y-253854819D02*
X561685714Y-252854819D01*
X561685714Y-252854819D02*
X561923809Y-252854819D01*
X561923809Y-252854819D02*
X562066666Y-252902438D01*
X562066666Y-252902438D02*
X562161904Y-252997676D01*
X562161904Y-252997676D02*
X562209523Y-253092914D01*
X562209523Y-253092914D02*
X562257142Y-253283390D01*
X562257142Y-253283390D02*
X562257142Y-253426247D01*
X562257142Y-253426247D02*
X562209523Y-253616723D01*
X562209523Y-253616723D02*
X562161904Y-253711961D01*
X562161904Y-253711961D02*
X562066666Y-253807200D01*
X562066666Y-253807200D02*
X561923809Y-253854819D01*
X561923809Y-253854819D02*
X561685714Y-253854819D01*
X563209523Y-253854819D02*
X562638095Y-253854819D01*
X562923809Y-253854819D02*
X562923809Y-252854819D01*
X562923809Y-252854819D02*
X562828571Y-252997676D01*
X562828571Y-252997676D02*
X562733333Y-253092914D01*
X562733333Y-253092914D02*
X562638095Y-253140533D01*
X563542857Y-252854819D02*
X564209523Y-252854819D01*
X564209523Y-252854819D02*
X563780952Y-253854819D01*
%TO.C,C30*%
X654749580Y-255162857D02*
X654797200Y-255210476D01*
X654797200Y-255210476D02*
X654844819Y-255353333D01*
X654844819Y-255353333D02*
X654844819Y-255448571D01*
X654844819Y-255448571D02*
X654797200Y-255591428D01*
X654797200Y-255591428D02*
X654701961Y-255686666D01*
X654701961Y-255686666D02*
X654606723Y-255734285D01*
X654606723Y-255734285D02*
X654416247Y-255781904D01*
X654416247Y-255781904D02*
X654273390Y-255781904D01*
X654273390Y-255781904D02*
X654082914Y-255734285D01*
X654082914Y-255734285D02*
X653987676Y-255686666D01*
X653987676Y-255686666D02*
X653892438Y-255591428D01*
X653892438Y-255591428D02*
X653844819Y-255448571D01*
X653844819Y-255448571D02*
X653844819Y-255353333D01*
X653844819Y-255353333D02*
X653892438Y-255210476D01*
X653892438Y-255210476D02*
X653940057Y-255162857D01*
X653844819Y-254829523D02*
X653844819Y-254210476D01*
X653844819Y-254210476D02*
X654225771Y-254543809D01*
X654225771Y-254543809D02*
X654225771Y-254400952D01*
X654225771Y-254400952D02*
X654273390Y-254305714D01*
X654273390Y-254305714D02*
X654321009Y-254258095D01*
X654321009Y-254258095D02*
X654416247Y-254210476D01*
X654416247Y-254210476D02*
X654654342Y-254210476D01*
X654654342Y-254210476D02*
X654749580Y-254258095D01*
X654749580Y-254258095D02*
X654797200Y-254305714D01*
X654797200Y-254305714D02*
X654844819Y-254400952D01*
X654844819Y-254400952D02*
X654844819Y-254686666D01*
X654844819Y-254686666D02*
X654797200Y-254781904D01*
X654797200Y-254781904D02*
X654749580Y-254829523D01*
X653844819Y-253591428D02*
X653844819Y-253496190D01*
X653844819Y-253496190D02*
X653892438Y-253400952D01*
X653892438Y-253400952D02*
X653940057Y-253353333D01*
X653940057Y-253353333D02*
X654035295Y-253305714D01*
X654035295Y-253305714D02*
X654225771Y-253258095D01*
X654225771Y-253258095D02*
X654463866Y-253258095D01*
X654463866Y-253258095D02*
X654654342Y-253305714D01*
X654654342Y-253305714D02*
X654749580Y-253353333D01*
X654749580Y-253353333D02*
X654797200Y-253400952D01*
X654797200Y-253400952D02*
X654844819Y-253496190D01*
X654844819Y-253496190D02*
X654844819Y-253591428D01*
X654844819Y-253591428D02*
X654797200Y-253686666D01*
X654797200Y-253686666D02*
X654749580Y-253734285D01*
X654749580Y-253734285D02*
X654654342Y-253781904D01*
X654654342Y-253781904D02*
X654463866Y-253829523D01*
X654463866Y-253829523D02*
X654225771Y-253829523D01*
X654225771Y-253829523D02*
X654035295Y-253781904D01*
X654035295Y-253781904D02*
X653940057Y-253734285D01*
X653940057Y-253734285D02*
X653892438Y-253686666D01*
X653892438Y-253686666D02*
X653844819Y-253591428D01*
%TO.C,D31*%
X658285714Y-253854819D02*
X658285714Y-252854819D01*
X658285714Y-252854819D02*
X658523809Y-252854819D01*
X658523809Y-252854819D02*
X658666666Y-252902438D01*
X658666666Y-252902438D02*
X658761904Y-252997676D01*
X658761904Y-252997676D02*
X658809523Y-253092914D01*
X658809523Y-253092914D02*
X658857142Y-253283390D01*
X658857142Y-253283390D02*
X658857142Y-253426247D01*
X658857142Y-253426247D02*
X658809523Y-253616723D01*
X658809523Y-253616723D02*
X658761904Y-253711961D01*
X658761904Y-253711961D02*
X658666666Y-253807200D01*
X658666666Y-253807200D02*
X658523809Y-253854819D01*
X658523809Y-253854819D02*
X658285714Y-253854819D01*
X659190476Y-252854819D02*
X659809523Y-252854819D01*
X659809523Y-252854819D02*
X659476190Y-253235771D01*
X659476190Y-253235771D02*
X659619047Y-253235771D01*
X659619047Y-253235771D02*
X659714285Y-253283390D01*
X659714285Y-253283390D02*
X659761904Y-253331009D01*
X659761904Y-253331009D02*
X659809523Y-253426247D01*
X659809523Y-253426247D02*
X659809523Y-253664342D01*
X659809523Y-253664342D02*
X659761904Y-253759580D01*
X659761904Y-253759580D02*
X659714285Y-253807200D01*
X659714285Y-253807200D02*
X659619047Y-253854819D01*
X659619047Y-253854819D02*
X659333333Y-253854819D01*
X659333333Y-253854819D02*
X659238095Y-253807200D01*
X659238095Y-253807200D02*
X659190476Y-253759580D01*
X660761904Y-253854819D02*
X660190476Y-253854819D01*
X660476190Y-253854819D02*
X660476190Y-252854819D01*
X660476190Y-252854819D02*
X660380952Y-252997676D01*
X660380952Y-252997676D02*
X660285714Y-253092914D01*
X660285714Y-253092914D02*
X660190476Y-253140533D01*
%TO.C,C35*%
X689249580Y-255162857D02*
X689297200Y-255210476D01*
X689297200Y-255210476D02*
X689344819Y-255353333D01*
X689344819Y-255353333D02*
X689344819Y-255448571D01*
X689344819Y-255448571D02*
X689297200Y-255591428D01*
X689297200Y-255591428D02*
X689201961Y-255686666D01*
X689201961Y-255686666D02*
X689106723Y-255734285D01*
X689106723Y-255734285D02*
X688916247Y-255781904D01*
X688916247Y-255781904D02*
X688773390Y-255781904D01*
X688773390Y-255781904D02*
X688582914Y-255734285D01*
X688582914Y-255734285D02*
X688487676Y-255686666D01*
X688487676Y-255686666D02*
X688392438Y-255591428D01*
X688392438Y-255591428D02*
X688344819Y-255448571D01*
X688344819Y-255448571D02*
X688344819Y-255353333D01*
X688344819Y-255353333D02*
X688392438Y-255210476D01*
X688392438Y-255210476D02*
X688440057Y-255162857D01*
X688344819Y-254829523D02*
X688344819Y-254210476D01*
X688344819Y-254210476D02*
X688725771Y-254543809D01*
X688725771Y-254543809D02*
X688725771Y-254400952D01*
X688725771Y-254400952D02*
X688773390Y-254305714D01*
X688773390Y-254305714D02*
X688821009Y-254258095D01*
X688821009Y-254258095D02*
X688916247Y-254210476D01*
X688916247Y-254210476D02*
X689154342Y-254210476D01*
X689154342Y-254210476D02*
X689249580Y-254258095D01*
X689249580Y-254258095D02*
X689297200Y-254305714D01*
X689297200Y-254305714D02*
X689344819Y-254400952D01*
X689344819Y-254400952D02*
X689344819Y-254686666D01*
X689344819Y-254686666D02*
X689297200Y-254781904D01*
X689297200Y-254781904D02*
X689249580Y-254829523D01*
X688344819Y-253305714D02*
X688344819Y-253781904D01*
X688344819Y-253781904D02*
X688821009Y-253829523D01*
X688821009Y-253829523D02*
X688773390Y-253781904D01*
X688773390Y-253781904D02*
X688725771Y-253686666D01*
X688725771Y-253686666D02*
X688725771Y-253448571D01*
X688725771Y-253448571D02*
X688773390Y-253353333D01*
X688773390Y-253353333D02*
X688821009Y-253305714D01*
X688821009Y-253305714D02*
X688916247Y-253258095D01*
X688916247Y-253258095D02*
X689154342Y-253258095D01*
X689154342Y-253258095D02*
X689249580Y-253305714D01*
X689249580Y-253305714D02*
X689297200Y-253353333D01*
X689297200Y-253353333D02*
X689344819Y-253448571D01*
X689344819Y-253448571D02*
X689344819Y-253686666D01*
X689344819Y-253686666D02*
X689297200Y-253781904D01*
X689297200Y-253781904D02*
X689249580Y-253829523D01*
%TO.C,C11*%
X523649581Y-255162857D02*
X523697201Y-255210476D01*
X523697201Y-255210476D02*
X523744820Y-255353333D01*
X523744820Y-255353333D02*
X523744820Y-255448571D01*
X523744820Y-255448571D02*
X523697201Y-255591428D01*
X523697201Y-255591428D02*
X523601962Y-255686666D01*
X523601962Y-255686666D02*
X523506724Y-255734285D01*
X523506724Y-255734285D02*
X523316248Y-255781904D01*
X523316248Y-255781904D02*
X523173391Y-255781904D01*
X523173391Y-255781904D02*
X522982915Y-255734285D01*
X522982915Y-255734285D02*
X522887677Y-255686666D01*
X522887677Y-255686666D02*
X522792439Y-255591428D01*
X522792439Y-255591428D02*
X522744820Y-255448571D01*
X522744820Y-255448571D02*
X522744820Y-255353333D01*
X522744820Y-255353333D02*
X522792439Y-255210476D01*
X522792439Y-255210476D02*
X522840058Y-255162857D01*
X523744820Y-254210476D02*
X523744820Y-254781904D01*
X523744820Y-254496190D02*
X522744820Y-254496190D01*
X522744820Y-254496190D02*
X522887677Y-254591428D01*
X522887677Y-254591428D02*
X522982915Y-254686666D01*
X522982915Y-254686666D02*
X523030534Y-254781904D01*
X523744820Y-253258095D02*
X523744820Y-253829523D01*
X523744820Y-253543809D02*
X522744820Y-253543809D01*
X522744820Y-253543809D02*
X522887677Y-253639047D01*
X522887677Y-253639047D02*
X522982915Y-253734285D01*
X522982915Y-253734285D02*
X523030534Y-253829523D01*
%TO.C,D19*%
X575485714Y-253854819D02*
X575485714Y-252854819D01*
X575485714Y-252854819D02*
X575723809Y-252854819D01*
X575723809Y-252854819D02*
X575866666Y-252902438D01*
X575866666Y-252902438D02*
X575961904Y-252997676D01*
X575961904Y-252997676D02*
X576009523Y-253092914D01*
X576009523Y-253092914D02*
X576057142Y-253283390D01*
X576057142Y-253283390D02*
X576057142Y-253426247D01*
X576057142Y-253426247D02*
X576009523Y-253616723D01*
X576009523Y-253616723D02*
X575961904Y-253711961D01*
X575961904Y-253711961D02*
X575866666Y-253807200D01*
X575866666Y-253807200D02*
X575723809Y-253854819D01*
X575723809Y-253854819D02*
X575485714Y-253854819D01*
X577009523Y-253854819D02*
X576438095Y-253854819D01*
X576723809Y-253854819D02*
X576723809Y-252854819D01*
X576723809Y-252854819D02*
X576628571Y-252997676D01*
X576628571Y-252997676D02*
X576533333Y-253092914D01*
X576533333Y-253092914D02*
X576438095Y-253140533D01*
X577485714Y-253854819D02*
X577676190Y-253854819D01*
X577676190Y-253854819D02*
X577771428Y-253807200D01*
X577771428Y-253807200D02*
X577819047Y-253759580D01*
X577819047Y-253759580D02*
X577914285Y-253616723D01*
X577914285Y-253616723D02*
X577961904Y-253426247D01*
X577961904Y-253426247D02*
X577961904Y-253045295D01*
X577961904Y-253045295D02*
X577914285Y-252950057D01*
X577914285Y-252950057D02*
X577866666Y-252902438D01*
X577866666Y-252902438D02*
X577771428Y-252854819D01*
X577771428Y-252854819D02*
X577580952Y-252854819D01*
X577580952Y-252854819D02*
X577485714Y-252902438D01*
X577485714Y-252902438D02*
X577438095Y-252950057D01*
X577438095Y-252950057D02*
X577390476Y-253045295D01*
X577390476Y-253045295D02*
X577390476Y-253283390D01*
X577390476Y-253283390D02*
X577438095Y-253378628D01*
X577438095Y-253378628D02*
X577485714Y-253426247D01*
X577485714Y-253426247D02*
X577580952Y-253473866D01*
X577580952Y-253473866D02*
X577771428Y-253473866D01*
X577771428Y-253473866D02*
X577866666Y-253426247D01*
X577866666Y-253426247D02*
X577914285Y-253378628D01*
X577914285Y-253378628D02*
X577961904Y-253283390D01*
%TO.C,C20*%
X585749580Y-255162857D02*
X585797200Y-255210476D01*
X585797200Y-255210476D02*
X585844819Y-255353333D01*
X585844819Y-255353333D02*
X585844819Y-255448571D01*
X585844819Y-255448571D02*
X585797200Y-255591428D01*
X585797200Y-255591428D02*
X585701961Y-255686666D01*
X585701961Y-255686666D02*
X585606723Y-255734285D01*
X585606723Y-255734285D02*
X585416247Y-255781904D01*
X585416247Y-255781904D02*
X585273390Y-255781904D01*
X585273390Y-255781904D02*
X585082914Y-255734285D01*
X585082914Y-255734285D02*
X584987676Y-255686666D01*
X584987676Y-255686666D02*
X584892438Y-255591428D01*
X584892438Y-255591428D02*
X584844819Y-255448571D01*
X584844819Y-255448571D02*
X584844819Y-255353333D01*
X584844819Y-255353333D02*
X584892438Y-255210476D01*
X584892438Y-255210476D02*
X584940057Y-255162857D01*
X584940057Y-254781904D02*
X584892438Y-254734285D01*
X584892438Y-254734285D02*
X584844819Y-254639047D01*
X584844819Y-254639047D02*
X584844819Y-254400952D01*
X584844819Y-254400952D02*
X584892438Y-254305714D01*
X584892438Y-254305714D02*
X584940057Y-254258095D01*
X584940057Y-254258095D02*
X585035295Y-254210476D01*
X585035295Y-254210476D02*
X585130533Y-254210476D01*
X585130533Y-254210476D02*
X585273390Y-254258095D01*
X585273390Y-254258095D02*
X585844819Y-254829523D01*
X585844819Y-254829523D02*
X585844819Y-254210476D01*
X584844819Y-253591428D02*
X584844819Y-253496190D01*
X584844819Y-253496190D02*
X584892438Y-253400952D01*
X584892438Y-253400952D02*
X584940057Y-253353333D01*
X584940057Y-253353333D02*
X585035295Y-253305714D01*
X585035295Y-253305714D02*
X585225771Y-253258095D01*
X585225771Y-253258095D02*
X585463866Y-253258095D01*
X585463866Y-253258095D02*
X585654342Y-253305714D01*
X585654342Y-253305714D02*
X585749580Y-253353333D01*
X585749580Y-253353333D02*
X585797200Y-253400952D01*
X585797200Y-253400952D02*
X585844819Y-253496190D01*
X585844819Y-253496190D02*
X585844819Y-253591428D01*
X585844819Y-253591428D02*
X585797200Y-253686666D01*
X585797200Y-253686666D02*
X585749580Y-253734285D01*
X585749580Y-253734285D02*
X585654342Y-253781904D01*
X585654342Y-253781904D02*
X585463866Y-253829523D01*
X585463866Y-253829523D02*
X585225771Y-253829523D01*
X585225771Y-253829523D02*
X585035295Y-253781904D01*
X585035295Y-253781904D02*
X584940057Y-253734285D01*
X584940057Y-253734285D02*
X584892438Y-253686666D01*
X584892438Y-253686666D02*
X584844819Y-253591428D01*
%TO.C,C17*%
X565049580Y-255182857D02*
X565097200Y-255230476D01*
X565097200Y-255230476D02*
X565144819Y-255373333D01*
X565144819Y-255373333D02*
X565144819Y-255468571D01*
X565144819Y-255468571D02*
X565097200Y-255611428D01*
X565097200Y-255611428D02*
X565001961Y-255706666D01*
X565001961Y-255706666D02*
X564906723Y-255754285D01*
X564906723Y-255754285D02*
X564716247Y-255801904D01*
X564716247Y-255801904D02*
X564573390Y-255801904D01*
X564573390Y-255801904D02*
X564382914Y-255754285D01*
X564382914Y-255754285D02*
X564287676Y-255706666D01*
X564287676Y-255706666D02*
X564192438Y-255611428D01*
X564192438Y-255611428D02*
X564144819Y-255468571D01*
X564144819Y-255468571D02*
X564144819Y-255373333D01*
X564144819Y-255373333D02*
X564192438Y-255230476D01*
X564192438Y-255230476D02*
X564240057Y-255182857D01*
X565144819Y-254230476D02*
X565144819Y-254801904D01*
X565144819Y-254516190D02*
X564144819Y-254516190D01*
X564144819Y-254516190D02*
X564287676Y-254611428D01*
X564287676Y-254611428D02*
X564382914Y-254706666D01*
X564382914Y-254706666D02*
X564430533Y-254801904D01*
X564144819Y-253897142D02*
X564144819Y-253230476D01*
X564144819Y-253230476D02*
X565144819Y-253659047D01*
D11*
%TO.C,D34*%
X683850000Y-252650000D02*
X676550000Y-252650000D01*
X683850000Y-247150000D02*
X676550000Y-247150000D01*
X676550000Y-247150000D02*
X676550000Y-248300000D01*
%TO.C,D40*%
X725250000Y-252650000D02*
X717950000Y-252650000D01*
X725250000Y-247150000D02*
X717950000Y-247150000D01*
X717950000Y-247150000D02*
X717950000Y-248300000D01*
%TO.C,C34*%
X682790000Y-254627836D02*
X682790000Y-254412164D01*
X683510000Y-254627836D02*
X683510000Y-254412164D01*
%TO.C,D20*%
X587250000Y-252650000D02*
X579950000Y-252650000D01*
X587250000Y-247150000D02*
X579950000Y-247150000D01*
X579950000Y-247150000D02*
X579950000Y-248300000D01*
%TO.C,D4*%
X476850000Y-252650000D02*
X469550000Y-252650000D01*
X476850000Y-247150000D02*
X469550000Y-247150000D01*
X469550000Y-247150000D02*
X469550000Y-248300000D01*
%TO.C,D35*%
X690750000Y-252650000D02*
X683450000Y-252650000D01*
X690750000Y-247150000D02*
X683450000Y-247150000D01*
X683450000Y-247150000D02*
X683450000Y-248300000D01*
%TO.C,D28*%
X642450000Y-252650000D02*
X635150000Y-252650000D01*
X642450000Y-247150000D02*
X635150000Y-247150000D01*
X635150000Y-247150000D02*
X635150000Y-248300000D01*
%TO.C,C24*%
X613790000Y-254627835D02*
X613790000Y-254412163D01*
X614510000Y-254627835D02*
X614510000Y-254412163D01*
%TO.C,D8*%
X504450000Y-252650000D02*
X497150000Y-252650000D01*
X504450000Y-247150000D02*
X497150000Y-247150000D01*
X497150000Y-247150000D02*
X497150000Y-248300000D01*
%TO.C,D14*%
X545850000Y-252650000D02*
X538550000Y-252650000D01*
X545850000Y-247150000D02*
X538550000Y-247150000D01*
X538550000Y-247150000D02*
X538550000Y-248300000D01*
%TO.C,D10*%
X518250000Y-252650000D02*
X510950000Y-252650000D01*
X518250000Y-247150000D02*
X510950000Y-247150000D01*
X510950000Y-247150000D02*
X510950000Y-248300000D01*
%TO.C,D16*%
X559650000Y-252650000D02*
X552350000Y-252650000D01*
X559650000Y-247150000D02*
X552350000Y-247150000D01*
X552350000Y-247150000D02*
X552350000Y-248300000D01*
%TO.C,C16*%
X558590000Y-254627835D02*
X558590000Y-254412163D01*
X559310000Y-254627835D02*
X559310000Y-254412163D01*
%TO.C,D11*%
X525150000Y-252650000D02*
X517850000Y-252650000D01*
X525150000Y-247150000D02*
X517850000Y-247150000D01*
X517850000Y-247150000D02*
X517850000Y-248300000D01*
%TO.C,D5*%
X483750000Y-252650000D02*
X476450000Y-252650000D01*
X483750000Y-247150000D02*
X476450000Y-247150000D01*
X476450000Y-247150000D02*
X476450000Y-248300000D01*
%TO.C,C10*%
X517190000Y-254627836D02*
X517190000Y-254412164D01*
X517910000Y-254627836D02*
X517910000Y-254412164D01*
%TO.C,C2*%
X461990000Y-254627836D02*
X461990000Y-254412164D01*
X462710000Y-254627836D02*
X462710000Y-254412164D01*
%TO.C,C29*%
X648290000Y-254627836D02*
X648290000Y-254412164D01*
X649010000Y-254627836D02*
X649010000Y-254412164D01*
%TO.C,D21*%
X594150000Y-252650000D02*
X586850000Y-252650000D01*
X594150000Y-247150000D02*
X586850000Y-247150000D01*
X586850000Y-247150000D02*
X586850000Y-248300000D01*
%TO.C,D1*%
X456150000Y-252650000D02*
X448850000Y-252650000D01*
X456150000Y-247150000D02*
X448850000Y-247150000D01*
X448850000Y-247150000D02*
X448850000Y-248300000D01*
%TO.C,C39*%
X717290001Y-254627836D02*
X717290001Y-254412164D01*
X718010001Y-254627836D02*
X718010001Y-254412164D01*
%TO.C,D36*%
X697650000Y-252650000D02*
X690350000Y-252650000D01*
X697650000Y-247150000D02*
X690350000Y-247150000D01*
X690350000Y-247150000D02*
X690350000Y-248300000D01*
%TO.C,C9*%
X510290000Y-254647836D02*
X510290000Y-254432164D01*
X511010000Y-254647836D02*
X511010000Y-254432164D01*
%TO.C,D6*%
X490650000Y-252650000D02*
X483350000Y-252650000D01*
X490650000Y-247150000D02*
X483350000Y-247150000D01*
X483350000Y-247150000D02*
X483350000Y-248300000D01*
%TO.C,C1*%
X455090000Y-254647836D02*
X455090000Y-254432164D01*
X455810000Y-254647836D02*
X455810000Y-254432164D01*
%TO.C,C36*%
X696590000Y-254627836D02*
X696590000Y-254412164D01*
X697310000Y-254627836D02*
X697310000Y-254412164D01*
%TO.C,C8*%
X503390000Y-254627836D02*
X503390000Y-254412164D01*
X504110000Y-254627836D02*
X504110000Y-254412164D01*
%TO.C,D33*%
X676950000Y-252650000D02*
X669650000Y-252650000D01*
X676950000Y-247150000D02*
X669650000Y-247150000D01*
X669650000Y-247150000D02*
X669650000Y-248300000D01*
%TO.C,D37*%
X704550000Y-252650000D02*
X697250000Y-252650000D01*
X704550000Y-247150000D02*
X697250000Y-247150000D01*
X697250000Y-247150000D02*
X697250000Y-248300000D01*
%TO.C,D22*%
X601050000Y-252650000D02*
X593750000Y-252650000D01*
X601050000Y-247150000D02*
X593750000Y-247150000D01*
X593750000Y-247150000D02*
X593750000Y-248300000D01*
%TO.C,C4*%
X475790000Y-254627836D02*
X475790000Y-254412164D01*
X476510000Y-254627836D02*
X476510000Y-254412164D01*
%TO.C,C31*%
X662090001Y-254627836D02*
X662090001Y-254412164D01*
X662810001Y-254627836D02*
X662810001Y-254412164D01*
%TO.C,D3*%
X469950000Y-252650000D02*
X462650000Y-252650000D01*
X469950000Y-247150000D02*
X462650000Y-247150000D01*
X462650000Y-247150000D02*
X462650000Y-248300000D01*
%TO.C,C27*%
X634490000Y-254627836D02*
X634490000Y-254412164D01*
X635210000Y-254627836D02*
X635210000Y-254412164D01*
%TO.C,C28*%
X641390000Y-254627836D02*
X641390000Y-254412164D01*
X642110000Y-254627836D02*
X642110000Y-254412164D01*
%TO.C,D13*%
X538950000Y-252650000D02*
X531650000Y-252650000D01*
X538950000Y-247150000D02*
X531650000Y-247150000D01*
X531650000Y-247150000D02*
X531650000Y-248300000D01*
%TO.C,C40*%
X724190000Y-254627835D02*
X724190000Y-254412163D01*
X724910000Y-254627835D02*
X724910000Y-254412163D01*
%TO.C,C22*%
X599990000Y-254627836D02*
X599990000Y-254412164D01*
X600710000Y-254627836D02*
X600710000Y-254412164D01*
%TO.C,D18*%
X573450000Y-252650000D02*
X566150000Y-252650000D01*
X573450000Y-247150000D02*
X566150000Y-247150000D01*
X566150000Y-247150000D02*
X566150000Y-248300000D01*
%TO.C,D29*%
X649350000Y-252650000D02*
X642050000Y-252650000D01*
X649350000Y-247150000D02*
X642050000Y-247150000D01*
X642050000Y-247150000D02*
X642050000Y-248300000D01*
%TO.C,D27*%
X635550000Y-252650000D02*
X628250000Y-252650000D01*
X635550000Y-247150000D02*
X628250000Y-247150000D01*
X628250000Y-247150000D02*
X628250000Y-248300000D01*
%TO.C,C33*%
X675890000Y-254647836D02*
X675890000Y-254432164D01*
X676610000Y-254647836D02*
X676610000Y-254432164D01*
%TO.C,D30*%
X656250000Y-252650000D02*
X648950000Y-252650000D01*
X656250000Y-247150000D02*
X648950000Y-247150000D01*
X648950000Y-247150000D02*
X648950000Y-248300000D01*
%TO.C,D23*%
X607950000Y-252650000D02*
X600650000Y-252650000D01*
X607950000Y-247150000D02*
X600650000Y-247150000D01*
X600650000Y-247150000D02*
X600650000Y-248300000D01*
%TO.C,C19*%
X579290000Y-254627836D02*
X579290000Y-254412164D01*
X580010000Y-254627836D02*
X580010000Y-254412164D01*
%TO.C,D2*%
X463050000Y-252650000D02*
X455750000Y-252650000D01*
X463050000Y-247150000D02*
X455750000Y-247150000D01*
X455750000Y-247150000D02*
X455750000Y-248300000D01*
%TO.C,C5*%
X482690000Y-254627836D02*
X482690000Y-254412164D01*
X483410000Y-254627836D02*
X483410000Y-254412164D01*
%TO.C,D15*%
X552750000Y-252650000D02*
X545450000Y-252650000D01*
X552750000Y-247150000D02*
X545450000Y-247150000D01*
X545450000Y-247150000D02*
X545450000Y-248300000D01*
%TO.C,C32*%
X668990000Y-254627835D02*
X668990000Y-254412163D01*
X669710000Y-254627835D02*
X669710000Y-254412163D01*
%TO.C,C14*%
X544790000Y-254627835D02*
X544790000Y-254412163D01*
X545510000Y-254627835D02*
X545510000Y-254412163D01*
%TO.C,C13*%
X537890000Y-254607836D02*
X537890000Y-254392164D01*
X538610000Y-254607836D02*
X538610000Y-254392164D01*
%TO.C,C25*%
X620690000Y-254647836D02*
X620690000Y-254432164D01*
X621410000Y-254647836D02*
X621410000Y-254432164D01*
%TO.C,D39*%
X718350000Y-252650000D02*
X711050000Y-252650000D01*
X718350000Y-247150000D02*
X711050000Y-247150000D01*
X711050000Y-247150000D02*
X711050000Y-248300000D01*
%TO.C,C6*%
X489590000Y-254627836D02*
X489590000Y-254412164D01*
X490310000Y-254627836D02*
X490310000Y-254412164D01*
%TO.C,D9*%
X511350000Y-252650000D02*
X504050000Y-252650000D01*
X511350000Y-247150000D02*
X504050000Y-247150000D01*
X504050000Y-247150000D02*
X504050000Y-248300000D01*
%TO.C,C18*%
X572390000Y-254627836D02*
X572390000Y-254412164D01*
X573110000Y-254627836D02*
X573110000Y-254412164D01*
%TO.C,D7*%
X497550000Y-252650000D02*
X490250000Y-252650000D01*
X497550000Y-247150000D02*
X490250000Y-247150000D01*
X490250000Y-247150000D02*
X490250000Y-248300000D01*
%TO.C,D25*%
X621750000Y-252650000D02*
X614450000Y-252650000D01*
X621750000Y-247150000D02*
X614450000Y-247150000D01*
X614450000Y-247150000D02*
X614450000Y-248300000D01*
%TO.C,C7*%
X496490000Y-254627836D02*
X496490000Y-254412164D01*
X497210000Y-254627836D02*
X497210000Y-254412164D01*
%TO.C,D26*%
X628650000Y-252650000D02*
X621350000Y-252650000D01*
X628650000Y-247150000D02*
X621350000Y-247150000D01*
X621350000Y-247150000D02*
X621350000Y-248300000D01*
%TO.C,C38*%
X710390000Y-254627836D02*
X710390000Y-254412164D01*
X711110000Y-254627836D02*
X711110000Y-254412164D01*
%TO.C,D12*%
X532050000Y-252650000D02*
X524750000Y-252650000D01*
X532050000Y-247150000D02*
X524750000Y-247150000D01*
X524750000Y-247150000D02*
X524750000Y-248300000D01*
%TO.C,C23*%
X606890001Y-254627836D02*
X606890001Y-254412164D01*
X607610001Y-254627836D02*
X607610001Y-254412164D01*
%TO.C,C12*%
X530990000Y-254627835D02*
X530990000Y-254412163D01*
X531710000Y-254627835D02*
X531710000Y-254412163D01*
%TO.C,D32*%
X670050000Y-252650000D02*
X662750000Y-252650000D01*
X670050000Y-247150000D02*
X662750000Y-247150000D01*
X662750000Y-247150000D02*
X662750000Y-248300000D01*
%TO.C,D24*%
X614850000Y-252650000D02*
X607550000Y-252650000D01*
X614850000Y-247150000D02*
X607550000Y-247150000D01*
X607550000Y-247150000D02*
X607550000Y-248300000D01*
%TO.C,C37*%
X703490000Y-254627836D02*
X703490000Y-254412164D01*
X704210000Y-254627836D02*
X704210000Y-254412164D01*
%TO.C,D38*%
X711450000Y-252650000D02*
X704150000Y-252650000D01*
X711450000Y-247150000D02*
X704150000Y-247150000D01*
X704150000Y-247150000D02*
X704150000Y-248300000D01*
%TO.C,C3*%
X468890000Y-254627836D02*
X468890000Y-254412164D01*
X469610000Y-254627836D02*
X469610000Y-254412164D01*
%TO.C,C15*%
X551690000Y-254627835D02*
X551690000Y-254412163D01*
X552410000Y-254627835D02*
X552410000Y-254412163D01*
%TO.C,C26*%
X627590000Y-254627836D02*
X627590000Y-254412164D01*
X628310000Y-254627836D02*
X628310000Y-254412164D01*
%TO.C,C21*%
X593090000Y-254627836D02*
X593090000Y-254412164D01*
X593810000Y-254627836D02*
X593810000Y-254412164D01*
%TO.C,D17*%
X566550000Y-252650000D02*
X559250000Y-252650000D01*
X566550000Y-247150000D02*
X559250000Y-247150000D01*
X559250000Y-247150000D02*
X559250000Y-248300000D01*
%TO.C,C30*%
X655190000Y-254627836D02*
X655190000Y-254412164D01*
X655910000Y-254627836D02*
X655910000Y-254412164D01*
%TO.C,D31*%
X663150000Y-252650000D02*
X655850000Y-252650000D01*
X663150000Y-247150000D02*
X655850000Y-247150000D01*
X655850000Y-247150000D02*
X655850000Y-248300000D01*
%TO.C,C35*%
X689690000Y-254627836D02*
X689690000Y-254412164D01*
X690410000Y-254627836D02*
X690410000Y-254412164D01*
%TO.C,C11*%
X524090001Y-254627836D02*
X524090001Y-254412164D01*
X524810001Y-254627836D02*
X524810001Y-254412164D01*
%TO.C,D19*%
X580350000Y-252650000D02*
X573050000Y-252650000D01*
X580350000Y-247150000D02*
X573050000Y-247150000D01*
X573050000Y-247150000D02*
X573050000Y-248300000D01*
%TO.C,C20*%
X586190000Y-254627836D02*
X586190000Y-254412164D01*
X586910000Y-254627836D02*
X586910000Y-254412164D01*
%TO.C,C17*%
X565490000Y-254647836D02*
X565490000Y-254432164D01*
X566210000Y-254647836D02*
X566210000Y-254432164D01*
%TD*%
M02*
