%TF.GenerationSoftware,KiCad,Pcbnew,7.0.5-0*%
%TF.CreationDate,2024-11-15T11:06:40-08:00*%
%TF.ProjectId,arm,61726d2e-6b69-4636-9164-5f7063625858,rev?*%
%TF.SameCoordinates,Original*%
%TF.FileFunction,Soldermask,Top*%
%TF.FilePolarity,Negative*%
%FSLAX46Y46*%
G04 Gerber Fmt 4.6, Leading zero omitted, Abs format (unit mm)*
G04 Created by KiCad (PCBNEW 7.0.5-0) date 2024-11-15 11:06:40*
%MOMM*%
%LPD*%
G01*
G04 APERTURE LIST*
G04 Aperture macros list*
%AMRoundRect*
0 Rectangle with rounded corners*
0 $1 Rounding radius*
0 $2 $3 $4 $5 $6 $7 $8 $9 X,Y pos of 4 corners*
0 Add a 4 corners polygon primitive as box body*
4,1,4,$2,$3,$4,$5,$6,$7,$8,$9,$2,$3,0*
0 Add four circle primitives for the rounded corners*
1,1,$1+$1,$2,$3*
1,1,$1+$1,$4,$5*
1,1,$1+$1,$6,$7*
1,1,$1+$1,$8,$9*
0 Add four rect primitives between the rounded corners*
20,1,$1+$1,$2,$3,$4,$5,0*
20,1,$1+$1,$4,$5,$6,$7,0*
20,1,$1+$1,$6,$7,$8,$9,0*
20,1,$1+$1,$8,$9,$2,$3,0*%
G04 Aperture macros list end*
%ADD10R,1.500000X0.900000*%
%ADD11RoundRect,0.140000X0.170000X-0.140000X0.170000X0.140000X-0.170000X0.140000X-0.170000X-0.140000X0*%
%ADD12RoundRect,0.249999X1.025001X-1.025001X1.025001X1.025001X-1.025001X1.025001X-1.025001X-1.025001X0*%
%ADD13RoundRect,0.249999X-1.025001X1.025001X-1.025001X-1.025001X1.025001X-1.025001X1.025001X1.025001X0*%
G04 APERTURE END LIST*
D10*
%TO.C,D34*%
X682650000Y-251550000D03*
X682650000Y-248250000D03*
X677750000Y-248250000D03*
X677750000Y-251550000D03*
%TD*%
%TO.C,D40*%
X724050000Y-251550000D03*
X724050000Y-248250000D03*
X719150000Y-248250000D03*
X719150000Y-251550000D03*
%TD*%
D11*
%TO.C,C34*%
X683150000Y-255000000D03*
X683150000Y-254040000D03*
%TD*%
D10*
%TO.C,D20*%
X586050000Y-251550000D03*
X586050000Y-248250000D03*
X581150000Y-248250000D03*
X581150000Y-251550000D03*
%TD*%
%TO.C,D4*%
X475650000Y-251550000D03*
X475650000Y-248250000D03*
X470750000Y-248250000D03*
X470750000Y-251550000D03*
%TD*%
%TO.C,D35*%
X689550000Y-251550000D03*
X689550000Y-248250000D03*
X684650000Y-248250000D03*
X684650000Y-251550000D03*
%TD*%
%TO.C,D28*%
X641250000Y-251550000D03*
X641250000Y-248250000D03*
X636350000Y-248250000D03*
X636350000Y-251550000D03*
%TD*%
D11*
%TO.C,C24*%
X614150000Y-254999999D03*
X614150000Y-254039999D03*
%TD*%
D10*
%TO.C,D8*%
X503250000Y-251550000D03*
X503250000Y-248250000D03*
X498350000Y-248250000D03*
X498350000Y-251550000D03*
%TD*%
%TO.C,D14*%
X544650000Y-251550000D03*
X544650000Y-248250000D03*
X539750000Y-248250000D03*
X539750000Y-251550000D03*
%TD*%
%TO.C,D10*%
X517050000Y-251550000D03*
X517050000Y-248250000D03*
X512150000Y-248250000D03*
X512150000Y-251550000D03*
%TD*%
%TO.C,D16*%
X558450000Y-251550000D03*
X558450000Y-248250000D03*
X553550000Y-248250000D03*
X553550000Y-251550000D03*
%TD*%
D11*
%TO.C,C16*%
X558950000Y-254999999D03*
X558950000Y-254039999D03*
%TD*%
D10*
%TO.C,D11*%
X523950000Y-251550000D03*
X523950000Y-248250000D03*
X519050000Y-248250000D03*
X519050000Y-251550000D03*
%TD*%
%TO.C,D5*%
X482550000Y-251550000D03*
X482550000Y-248250000D03*
X477650000Y-248250000D03*
X477650000Y-251550000D03*
%TD*%
D11*
%TO.C,C10*%
X517550000Y-255000000D03*
X517550000Y-254040000D03*
%TD*%
%TO.C,C2*%
X462350000Y-255000000D03*
X462350000Y-254040000D03*
%TD*%
%TO.C,C29*%
X648650000Y-255000000D03*
X648650000Y-254040000D03*
%TD*%
D10*
%TO.C,D21*%
X592950000Y-251550000D03*
X592950000Y-248250000D03*
X588050000Y-248250000D03*
X588050000Y-251550000D03*
%TD*%
%TO.C,D1*%
X454950000Y-251550000D03*
X454950000Y-248250000D03*
X450050000Y-248250000D03*
X450050000Y-251550000D03*
%TD*%
D11*
%TO.C,C39*%
X717650001Y-255000000D03*
X717650001Y-254040000D03*
%TD*%
D10*
%TO.C,D36*%
X696450000Y-251550000D03*
X696450000Y-248250000D03*
X691550000Y-248250000D03*
X691550000Y-251550000D03*
%TD*%
D11*
%TO.C,C9*%
X510650000Y-255020000D03*
X510650000Y-254060000D03*
%TD*%
D10*
%TO.C,D6*%
X489450000Y-251550000D03*
X489450000Y-248250000D03*
X484550000Y-248250000D03*
X484550000Y-251550000D03*
%TD*%
D11*
%TO.C,C1*%
X455450000Y-255020000D03*
X455450000Y-254060000D03*
%TD*%
%TO.C,C36*%
X696950000Y-255000000D03*
X696950000Y-254040000D03*
%TD*%
%TO.C,C8*%
X503750000Y-255000000D03*
X503750000Y-254040000D03*
%TD*%
D10*
%TO.C,D33*%
X675750000Y-251550000D03*
X675750000Y-248250000D03*
X670850000Y-248250000D03*
X670850000Y-251550000D03*
%TD*%
%TO.C,D37*%
X703350000Y-251550000D03*
X703350000Y-248250000D03*
X698450000Y-248250000D03*
X698450000Y-251550000D03*
%TD*%
%TO.C,D22*%
X599850000Y-251550000D03*
X599850000Y-248250000D03*
X594950000Y-248250000D03*
X594950000Y-251550000D03*
%TD*%
D11*
%TO.C,C4*%
X476150000Y-255000000D03*
X476150000Y-254040000D03*
%TD*%
%TO.C,C31*%
X662450001Y-255000000D03*
X662450001Y-254040000D03*
%TD*%
D10*
%TO.C,D3*%
X468750000Y-251550000D03*
X468750000Y-248250000D03*
X463850000Y-248250000D03*
X463850000Y-251550000D03*
%TD*%
D11*
%TO.C,C27*%
X634850000Y-255000000D03*
X634850000Y-254040000D03*
%TD*%
%TO.C,C28*%
X641750000Y-255000000D03*
X641750000Y-254040000D03*
%TD*%
D10*
%TO.C,D13*%
X537750000Y-251550000D03*
X537750000Y-248250000D03*
X532850000Y-248250000D03*
X532850000Y-251550000D03*
%TD*%
D11*
%TO.C,C40*%
X724550000Y-254999999D03*
X724550000Y-254039999D03*
%TD*%
%TO.C,C22*%
X600350000Y-255000000D03*
X600350000Y-254040000D03*
%TD*%
D10*
%TO.C,D18*%
X572250000Y-251550000D03*
X572250000Y-248250000D03*
X567350000Y-248250000D03*
X567350000Y-251550000D03*
%TD*%
%TO.C,D29*%
X648150000Y-251550000D03*
X648150000Y-248250000D03*
X643250000Y-248250000D03*
X643250000Y-251550000D03*
%TD*%
%TO.C,D27*%
X634350000Y-251550000D03*
X634350000Y-248250000D03*
X629450000Y-248250000D03*
X629450000Y-251550000D03*
%TD*%
D11*
%TO.C,C33*%
X676250000Y-255020000D03*
X676250000Y-254060000D03*
%TD*%
D10*
%TO.C,D30*%
X655050000Y-251550000D03*
X655050000Y-248250000D03*
X650150000Y-248250000D03*
X650150000Y-251550000D03*
%TD*%
%TO.C,D23*%
X606750000Y-251550000D03*
X606750000Y-248250000D03*
X601850000Y-248250000D03*
X601850000Y-251550000D03*
%TD*%
D11*
%TO.C,C19*%
X579650000Y-255000000D03*
X579650000Y-254040000D03*
%TD*%
D10*
%TO.C,D2*%
X461850000Y-251550000D03*
X461850000Y-248250000D03*
X456950000Y-248250000D03*
X456950000Y-251550000D03*
%TD*%
D11*
%TO.C,C5*%
X483050000Y-255000000D03*
X483050000Y-254040000D03*
%TD*%
D10*
%TO.C,D15*%
X551550000Y-251550000D03*
X551550000Y-248250000D03*
X546650000Y-248250000D03*
X546650000Y-251550000D03*
%TD*%
D11*
%TO.C,C32*%
X669350000Y-254999999D03*
X669350000Y-254039999D03*
%TD*%
%TO.C,C14*%
X545150000Y-254999999D03*
X545150000Y-254039999D03*
%TD*%
%TO.C,C13*%
X538250000Y-254980000D03*
X538250000Y-254020000D03*
%TD*%
%TO.C,C25*%
X621050000Y-255020000D03*
X621050000Y-254060000D03*
%TD*%
D10*
%TO.C,D39*%
X717150000Y-251550000D03*
X717150000Y-248250000D03*
X712250000Y-248250000D03*
X712250000Y-251550000D03*
%TD*%
D11*
%TO.C,C6*%
X489950000Y-255000000D03*
X489950000Y-254040000D03*
%TD*%
D12*
%TO.C,J2*%
X460000000Y-257250000D03*
%TD*%
D10*
%TO.C,D9*%
X510150000Y-251550000D03*
X510150000Y-248250000D03*
X505250000Y-248250000D03*
X505250000Y-251550000D03*
%TD*%
D13*
%TO.C,J3*%
X451500000Y-258750000D03*
%TD*%
D11*
%TO.C,C18*%
X572750000Y-255000000D03*
X572750000Y-254040000D03*
%TD*%
D10*
%TO.C,D7*%
X496350000Y-251550000D03*
X496350000Y-248250000D03*
X491450000Y-248250000D03*
X491450000Y-251550000D03*
%TD*%
%TO.C,D25*%
X620550000Y-251550000D03*
X620550000Y-248250000D03*
X615650000Y-248250000D03*
X615650000Y-251550000D03*
%TD*%
D11*
%TO.C,C7*%
X496850000Y-255000000D03*
X496850000Y-254040000D03*
%TD*%
D10*
%TO.C,D26*%
X627450000Y-251550000D03*
X627450000Y-248250000D03*
X622550000Y-248250000D03*
X622550000Y-251550000D03*
%TD*%
D11*
%TO.C,C38*%
X710750000Y-255000000D03*
X710750000Y-254040000D03*
%TD*%
D10*
%TO.C,D12*%
X530850000Y-251550000D03*
X530850000Y-248250000D03*
X525950000Y-248250000D03*
X525950000Y-251550000D03*
%TD*%
D11*
%TO.C,C23*%
X607250001Y-255000000D03*
X607250001Y-254040000D03*
%TD*%
%TO.C,C12*%
X531350000Y-254999999D03*
X531350000Y-254039999D03*
%TD*%
D10*
%TO.C,D32*%
X668850000Y-251550000D03*
X668850000Y-248250000D03*
X663950000Y-248250000D03*
X663950000Y-251550000D03*
%TD*%
%TO.C,D24*%
X613650000Y-251550000D03*
X613650000Y-248250000D03*
X608750000Y-248250000D03*
X608750000Y-251550000D03*
%TD*%
D11*
%TO.C,C37*%
X703850000Y-255000000D03*
X703850000Y-254040000D03*
%TD*%
D10*
%TO.C,D38*%
X710250000Y-251550000D03*
X710250000Y-248250000D03*
X705350000Y-248250000D03*
X705350000Y-251550000D03*
%TD*%
D11*
%TO.C,C3*%
X469250000Y-255000000D03*
X469250000Y-254040000D03*
%TD*%
%TO.C,C15*%
X552050000Y-254999999D03*
X552050000Y-254039999D03*
%TD*%
%TO.C,C26*%
X627950000Y-255000000D03*
X627950000Y-254040000D03*
%TD*%
%TO.C,C21*%
X593450000Y-255000000D03*
X593450000Y-254040000D03*
%TD*%
D10*
%TO.C,D17*%
X565350000Y-251550000D03*
X565350000Y-248250000D03*
X560450000Y-248250000D03*
X560450000Y-251550000D03*
%TD*%
D11*
%TO.C,C30*%
X655550000Y-255000000D03*
X655550000Y-254040000D03*
%TD*%
D10*
%TO.C,D31*%
X661950000Y-251550000D03*
X661950000Y-248250000D03*
X657050000Y-248250000D03*
X657050000Y-251550000D03*
%TD*%
D11*
%TO.C,C35*%
X690050000Y-255000000D03*
X690050000Y-254040000D03*
%TD*%
%TO.C,C11*%
X524450001Y-255000000D03*
X524450001Y-254040000D03*
%TD*%
D10*
%TO.C,D19*%
X579150000Y-251550000D03*
X579150000Y-248250000D03*
X574250000Y-248250000D03*
X574250000Y-251550000D03*
%TD*%
D11*
%TO.C,C20*%
X586550000Y-255000000D03*
X586550000Y-254040000D03*
%TD*%
D12*
%TO.C,J1*%
X455750000Y-258000000D03*
%TD*%
D11*
%TO.C,C17*%
X565850000Y-255020000D03*
X565850000Y-254060000D03*
%TD*%
M02*
